<?xml version="1.0" encoding="UTF-8" standalone="no"?>
<svg
        xmlns:dc="http://purl.org/dc/elements/1.1/"
        xmlns:cc="http://creativecommons.org/ns#"
        xmlns:rdf="http://www.w3.org/1999/02/22-rdf-syntax-ns#"
        xmlns="http://www.w3.org/2000/svg"
        xml:space="preserve"
        viewBox="0 0 578.80177 285.5451"
        height="285.5451"
        width="578.80176"
        y="0px"
        x="0px"
        id="Capa_1"
        version="1.1"><metadata
   id="metadata933"><rdf:RDF><cc:Work
       rdf:about=""><dc:format>image/svg+xml</dc:format><dc:type
        rdf:resource="http://purl.org/dc/dcmitype/StillImage"/><dc:title></dc:title></cc:Work></rdf:RDF></metadata>
    <defs
            id="defs931"/>
    <g
            transform="translate(5e-4,-146.628)"
            id="g896">
	<path
            id="path894"
            d="m 573.062,172.025 c -29.988,5.508 -58.446,15.3 -85.68,29.07 -28.152,14.382 -54.162,32.13 -78.948,51.408 -9.486,7.344 -18.666,14.688 -28.458,22.338 -0.306,0.306 -0.612,0.306 -0.612,0.306 -0.306,-0.306 -0.306,-0.306 -0.611,-0.612 -0.307,-0.306 -0.918,-0.612 -1.225,-0.918 -6.119,-5.814 -12.546,-11.934 -18.972,-18.054 -0.306,-0.306 -0.918,-0.306 -0.918,0 -0.918,1.53 -0.918,3.366 -0.306,4.896 1.836,5.202 4.284,10.098 6.426,15.3 1.53,3.06 3.366,5.814 4.59,8.874 0.306,0.612 0.306,1.836 -0.306,2.448 -18.055,17.443 -36.108,34.884 -54.162,52.326 -1.836,1.836 -3.366,1.836 -5.508,0.918 -7.345,-3.059 -13.464,-7.955 -18.973,-13.463 -7.344,-7.957 -14.688,-15.912 -21.726,-24.174 -1.53,-1.836 -2.448,-4.59 -3.672,-6.732 -3.673,-9.18 -8.874,-17.136 -17.442,-22.338 -0.612,-0.306 -0.918,-0.918 -1.224,-1.53 -5.509,-10.098 -12.547,-18.972 -19.584,-27.846 -4.591,-5.814 -8.874,-12.24 -14.994,-16.83 -5.509,-4.284 -11.628,-7.344 -17.137,-11.322 -10.71,-7.038 -21.113,-14.076 -31.823,-20.808 -7.038,-4.284 -14.688,-7.65 -22.032,-11.322 -19.278,-9.486 -38.556,-18.36 -58.446,-26.316 -15.912,-6.426 -32.13,-9.18 -48.96,-10.098 -10.71,-0.612 -21.42,-0.918 -32.13,-0.918 -0.306,0 -0.306,0 0,0.306 1.836,0.612 3.366,1.53 5.202,2.142 33.354,13.158 66.096,28.152 96.084,48.042 18.054,11.934 35.496,25.092 51.102,40.392 10.404,10.404 18.973,22.338 27.234,34.578 13.77,20.501 26.928,41.005 36.72,63.954 3.061,7.037 6.426,14.076 7.344,22.031 0.307,2.449 0.612,4.896 0.612,7.65 0.306,2.447 -0.612,6.426 -1.53,8.875 -1.836,4.59 -3.978,9.18 -6.426,13.463 -2.448,3.979 -5.508,7.039 -10.403,7.957 -14.688,2.141 -29.377,2.447 -44.064,0.611 -2.754,-0.307 -5.202,-1.529 -7.65,-2.447 -1.529,-0.613 -3.06,-0.613 -3.672,0.918 -0.611,1.223 -0.611,3.365 0,3.977 1.836,1.836 4.284,3.672 6.732,4.896 3.366,1.529 7.344,1.529 11.016,0.918 13.464,-2.447 27.234,-4.283 41.004,-3.061 4.284,0.307 7.956,0 11.935,-0.918 h 0.306 c 0.306,0 -0.306,1.836 -1.53,3.979 -1.224,1.836 -2.754,3.367 -4.896,4.285 -13.158,6.73 -26.928,11.627 -41.616,14.688 -2.448,0.611 -5.202,0.305 -7.956,0.305 -1.53,0 -3.06,0.307 -3.06,1.836 0,1.225 0.306,3.367 1.224,3.674 2.448,1.223 5.202,2.141 7.956,2.447 3.672,0.307 7.344,-0.918 10.71,-2.754 12.24,-6.732 24.48,-12.852 37.944,-16.219 3.978,-0.918 7.649,-2.447 11.016,-4.59 4.59,-2.754 9.18,-5.508 13.771,-8.262 2.142,-1.529 4.59,-2.143 7.344,-2.447 11.016,-0.918 22.032,-3.061 32.742,-6.121 0.918,-0.305 1.836,-0.305 2.754,-0.305 17.442,0.611 33.966,-2.449 50.49,-7.346 5.508,-1.836 10.403,-5.201 13.77,-9.791 0.612,-0.611 1.225,-1.225 2.143,-1.529 1.529,-0.613 3.06,-0.918 4.283,-1.531 2.755,-1.529 3.673,-3.672 2.448,-6.732 0,-0.305 0,-0.918 0.307,-0.918 5.813,-3.365 11.321,-6.426 17.747,-7.648 6.12,-1.225 12.24,2.141 14.383,7.955 1.224,3.365 2.754,5.508 5.813,7.039 2.143,0.918 3.979,2.447 5.508,4.283 6.427,7.65 14.688,13.77 22.645,19.891 13.158,9.791 26.622,19.584 39.78,29.068 1.224,0.92 2.447,1.531 3.672,2.143 1.529,1.225 3.06,0.918 4.283,-0.307 1.53,-1.223 1.836,-2.754 1.53,-4.283 -0.306,-1.225 -0.918,-2.143 -1.836,-3.061 -11.322,-13.158 -22.644,-26.314 -33.66,-39.473 -2.754,-3.061 -5.202,-6.121 -7.649,-9.486 -0.918,-1.225 -1.225,-2.449 -1.836,-3.672 -0.307,-0.307 -0.307,-0.918 0,-0.918 0.306,0 0.611,-0.307 0.918,0 0.306,0 0.918,0.305 1.224,0.305 18.972,7.039 36.72,15.912 54.774,25.398 5.813,3.061 11.934,6.121 17.747,8.875 0.612,0.305 1.837,0.611 1.837,0.305 0.306,-0.918 1.224,-2.141 0.918,-2.447 -1.225,-2.143 -2.448,-3.979 -3.979,-5.508 -5.202,-4.59 -10.404,-9.18 -15.912,-13.77 -18.666,-15.912 -37.332,-31.824 -56.304,-47.736 -1.224,-1.225 -1.836,-2.143 -1.836,-3.979 0,-6.119 -2.448,-8.873 -8.262,-10.098 -2.143,-0.611 -3.673,-1.529 -5.202,-3.061 -3.979,-4.59 -8.263,-9.18 -12.546,-14.076 -0.307,-0.305 -0.307,-0.918 0,-1.223 4.896,-5.508 9.485,-10.711 14.075,-16.219 4.896,-5.508 9.792,-11.016 14.688,-16.524 0.918,-1.224 1.53,-2.142 1.224,-3.672 -0.306,-1.836 0.612,-2.754 2.448,-2.448 1.53,0.306 3.061,0.612 4.896,1.224 0.306,0 0.611,0 0.611,-0.612 -0.306,-2.142 -0.611,-3.978 -0.918,-6.12 0,-0.306 0.307,-0.612 0.612,-0.306 0.918,0.306 1.836,0.918 3.06,1.224 0.307,0.306 0.612,0 0.307,-0.306 -0.612,-1.53 -1.225,-2.754 -1.836,-3.672 -0.918,-1.53 -0.612,-2.448 0.306,-3.672 16.83,-18.972 35.802,-34.884 58.14,-46.818 19.584,-10.71 40.393,-17.442 62.118,-21.42 3.672,-0.612 7.344,-1.836 10.71,-3.06 0.918,-0.306 1.836,-0.918 2.754,-1.53 0.307,-0.306 0.307,-0.612 0,-0.612 -1.531,-1.835 -3.367,-1.835 -5.509,-1.529 z"/>
</g>
    <g
            transform="translate(5e-4,-146.628)"
            id="g898">
</g>
    <g
            transform="translate(5e-4,-146.628)"
            id="g900">
</g>
    <g
            transform="translate(5e-4,-146.628)"
            id="g902">
</g>
    <g
            transform="translate(5e-4,-146.628)"
            id="g904">
</g>
    <g
            transform="translate(5e-4,-146.628)"
            id="g906">
</g>
    <g
            transform="translate(5e-4,-146.628)"
            id="g908">
</g>
    <g
            transform="translate(5e-4,-146.628)"
            id="g910">
</g>
    <g
            transform="translate(5e-4,-146.628)"
            id="g912">
</g>
    <g
            transform="translate(5e-4,-146.628)"
            id="g914">
</g>
    <g
            transform="translate(5e-4,-146.628)"
            id="g916">
</g>
    <g
            transform="translate(5e-4,-146.628)"
            id="g918">
</g>
    <g
            transform="translate(5e-4,-146.628)"
            id="g920">
</g>
    <g
            transform="translate(5e-4,-146.628)"
            id="g922">
</g>
    <g
            transform="translate(5e-4,-146.628)"
            id="g924">
</g>
    <g
            transform="translate(5e-4,-146.628)"
            id="g926">
</g>
</svg>