<?xml version="1.0" encoding="UTF-8" standalone="no"?>
<svg
        xmlns:dc="http://purl.org/dc/elements/1.1/"
        xmlns:cc="http://creativecommons.org/ns#"
        xmlns:rdf="http://www.w3.org/1999/02/22-rdf-syntax-ns#"
        xmlns="http://www.w3.org/2000/svg"
        version="1.1"
        id="Capa_1"
        x="0px"
        y="0px"
        width="418.50449"
        height="247.64323"
        viewBox="0 0 418.5045 247.64323"
        xml:space="preserve"><metadata
   id="metadata933"><rdf:RDF><cc:Work
       rdf:about=""><dc:format>image/svg+xml</dc:format><dc:type
        rdf:resource="http://purl.org/dc/dcmitype/StillImage"/><dc:title></dc:title></cc:Work></rdf:RDF></metadata>
    <defs
            id="defs931"/>
    <g
            id="g896"
            transform="translate(-108.50449,-184.52987)">
	<path
            d="M 521.10381,185.45575 C 491.9847,194.49433 514.616,187.325 487.382,201.095 c -28.152,14.382 -54.162,32.13 -78.948,51.408 -9.486,7.344 -18.666,14.688 -28.458,22.338 -0.306,0.306 -0.612,0.306 -0.612,0.306 -0.306,-0.306 -0.306,-0.306 -0.611,-0.612 -0.307,-0.306 -0.918,-0.612 -1.225,-0.918 -6.119,-5.814 -12.546,-11.934 -18.972,-18.054 -0.306,-0.306 -0.918,-0.306 -0.918,0 -0.918,1.53 -0.918,3.366 -0.306,4.896 1.836,5.202 4.284,10.098 6.426,15.3 1.53,3.06 3.366,5.814 4.59,8.874 0.306,0.612 0.306,1.836 -0.306,2.448 -18.055,17.443 -36.108,34.884 -54.162,52.326 -1.836,1.836 -3.366,1.836 -5.508,0.918 -7.345,-3.059 -13.464,-7.955 -18.973,-13.463 -7.344,-7.957 -14.688,-15.912 -21.726,-24.174 -1.53,-1.836 -2.448,-4.59 -3.672,-6.732 -3.673,-9.18 -8.874,-17.136 -17.442,-22.338 -0.612,-0.306 -0.918,-0.918 -1.224,-1.53 -5.509,-10.098 -12.547,-18.972 -19.584,-27.846 -4.591,-5.814 -8.874,-12.24 -14.994,-16.83 -5.509,-4.284 -8.13738,-7.344 -13.64638,-11.322 -23.60389,-9.98807 -22.72162,-24.08736 -88.37663,-31.56013 -0.306,0 -0.306,0 0,0.306 1.836,0.612 3.366,1.53 5.202,2.142 33.354,13.158 27.02846,22.44835 57.01646,42.33835 12.42765,22.13668 -1.1623,4.42852 16.86285,40.14928 18.71487,16.96895 22.61621,41.01856 28.7557,66.5765 3.061,7.037 6.426,14.076 7.344,22.031 0.307,2.449 0.612,4.896 0.612,7.65 0.306,2.447 -0.612,6.426 -1.53,8.875 -1.836,4.59 -3.978,9.18 -6.426,13.463 -2.448,3.979 -5.508,7.039 -10.403,7.957 -14.688,2.141 -29.377,2.447 -44.064,0.611 -2.754,-0.307 -5.202,-1.529 -7.65,-2.447 -1.529,-0.613 -3.06,-0.613 -3.672,0.918 -0.611,1.223 -0.611,3.365 0,3.977 1.836,1.836 4.284,3.672 6.732,4.896 3.366,1.529 7.344,1.529 11.016,0.918 13.464,-2.447 27.234,-4.283 41.004,-3.061 4.284,0.307 7.956,0 11.935,-0.918 h 0.306 c 0.306,0 -0.306,1.836 -1.53,3.979 -1.224,1.836 -2.754,3.367 -4.896,4.285 -13.158,6.73 -26.928,11.627 -41.616,14.688 -2.448,0.611 -5.202,0.305 -7.956,0.305 -1.53,0 -3.06,0.307 -3.06,1.836 0,1.225 0.306,3.367 1.224,3.674 2.448,1.223 5.202,2.141 7.956,2.447 3.672,0.307 7.344,-0.918 10.71,-2.754 12.24,-6.732 24.48,-12.852 37.944,-16.219 3.978,-0.918 7.649,-2.447 11.016,-4.59 4.59,-2.754 9.18,-5.508 13.771,-8.262 2.142,-1.529 4.59,-2.143 7.344,-2.447 11.016,-0.918 22.032,-3.061 32.742,-6.121 0.918,-0.305 1.836,-0.305 2.754,-0.305 17.442,0.611 33.966,-2.449 50.49,-7.346 5.508,-1.836 10.403,-5.201 13.77,-9.791 0.612,-0.611 1.225,-1.225 2.143,-1.529 1.529,-0.613 3.06,-0.918 4.283,-1.531 2.755,-1.529 3.673,-3.672 2.448,-6.732 0,-0.305 0,-0.918 0.307,-0.918 5.813,-3.365 11.321,-6.426 17.747,-7.648 6.12,-1.225 12.24,2.141 14.383,7.955 1.224,3.365 2.754,5.508 5.813,7.039 2.143,0.918 3.979,2.447 5.508,4.283 6.427,7.65 14.688,13.77 22.645,19.891 13.158,9.791 26.622,19.584 39.78,29.068 1.224,0.92 2.447,1.531 3.672,2.143 1.529,1.225 3.06,0.918 4.283,-0.307 1.53,-1.223 1.836,-2.754 1.53,-4.283 -0.306,-1.225 -0.918,-2.143 -1.836,-3.061 -11.322,-13.158 -22.644,-26.314 -33.66,-39.473 -2.754,-3.061 -5.202,-6.121 -7.649,-9.486 -0.918,-1.225 -1.225,-2.449 -1.836,-3.672 -0.307,-0.307 -0.307,-0.918 0,-0.918 0.306,0 0.611,-0.307 0.918,0 0.306,0 0.918,0.305 1.224,0.305 18.972,7.039 36.72,15.912 54.774,25.398 5.813,3.061 11.934,6.121 17.747,8.875 0.612,0.305 1.837,0.611 1.837,0.305 0.306,-0.918 1.224,-2.141 0.918,-2.447 -1.225,-2.143 -2.448,-3.979 -3.979,-5.508 -5.202,-4.59 -10.404,-9.18 -15.912,-13.77 -18.666,-15.912 -37.332,-31.824 -56.304,-47.736 -1.224,-1.225 -1.836,-2.143 -1.836,-3.979 0,-6.119 -2.448,-8.873 -8.262,-10.098 -2.143,-0.611 -3.673,-1.529 -5.202,-3.061 -3.979,-4.59 -8.263,-9.18 -12.546,-14.076 -0.307,-0.305 -0.307,-0.918 0,-1.223 4.896,-5.508 9.485,-10.711 14.075,-16.219 l 14.688,-16.524 c 0.918,-1.224 1.53,-2.142 1.224,-3.672 -0.306,-1.836 0.612,-2.754 2.448,-2.448 1.53,0.306 3.061,0.612 4.896,1.224 0.306,0 0.611,0 0.611,-0.612 -0.306,-2.142 -0.611,-3.978 -0.918,-6.12 0,-0.306 0.307,-0.612 0.612,-0.306 0.918,0.306 1.836,0.918 3.06,1.224 0.307,0.306 0.612,0 0.307,-0.306 -0.612,-1.53 -1.225,-2.754 -1.836,-3.672 -0.918,-1.53 -0.612,-2.448 0.306,-3.672 26.10173,-34.0727 76.37244,-57.29075 81.9795,-60.06826 0.26839,-0.34037 0.23197,-0.64419 -0.0729,-0.60765 -1.73855,-1.6397 -3.5615,-1.42115 -5.65184,-0.86234 z"
            id="path894"/>
</g>
    <g
            id="g898"
            transform="translate(-108.50449,-184.52987)">
</g>
    <g
            id="g900"
            transform="translate(-108.50449,-184.52987)">
</g>
    <g
            id="g902"
            transform="translate(-108.50449,-184.52987)">
</g>
    <g
            id="g904"
            transform="translate(-108.50449,-184.52987)">
</g>
    <g
            id="g906"
            transform="translate(-108.50449,-184.52987)">
</g>
    <g
            id="g908"
            transform="translate(-108.50449,-184.52987)">
</g>
    <g
            id="g910"
            transform="translate(-108.50449,-184.52987)">
</g>
    <g
            id="g912"
            transform="translate(-108.50449,-184.52987)">
</g>
    <g
            id="g914"
            transform="translate(-108.50449,-184.52987)">
</g>
    <g
            id="g916"
            transform="translate(-108.50449,-184.52987)">
</g>
    <g
            id="g918"
            transform="translate(-108.50449,-184.52987)">
</g>
    <g
            id="g920"
            transform="translate(-108.50449,-184.52987)">
</g>
    <g
            id="g922"
            transform="translate(-108.50449,-184.52987)">
</g>
    <g
            id="g924"
            transform="translate(-108.50449,-184.52987)">
</g>
    <g
            id="g926"
            transform="translate(-108.50449,-184.52987)">
</g>
</svg>