<?xml version="1.0" encoding="UTF-8" standalone="no"?>
<svg
        xmlns="http://www.w3.org/2000/svg"
        id="svg3096"
        version="1.1"
        viewBox="0 0 158.78014 16.468204">
  <defs
          id="defs3090"/>
  <g
          transform="translate(-18.883735,-71.807564)"
          id="layer1">
    <g
            transform="matrix(0.08870399,0,0,0.08901698,48.333475,84.893149)"
            id="g860">
      <path
              id="path862"
              style="fill:#1f1a17;fill-opacity:1;fill-rule:nonzero;stroke:none"
              d="m 0,0 1,-4 v -7.001 L 2,-19 1,-27 0,-32 -1,-36 -4,-39.001 -7,-43 l -4,-2 -5,-2.001 -7,-1.999 h -7.001 -6.999 -6 -6 -6 -6 -6 -7 -6 v -2 h 49.999 l 6.001,1 6,1 5,0.999 4,2.001 4,2 3,2 2,2 2,3 2,5 1,4 v 3 1 L 9,-38.001 13,-54 l 5,-15 4,-16 4,-16.001 4,-14.999 4,-16 4,-15.001 h 10 l -2,15.001 -1,12.999 1,11.001 1,10 2,9 1.999,7 4.001,6 3,6 4,3.999 5,3.001 5,3 5,2 9.999,1.999 L 97,-55 h 73 v 1 H 97 L 88,-55 79,-56.001 72,-58 65,-61 59.999,-65.001 55,-69 50.999,-74.001 48,-80 45,-85 44,-91 41.999,-97 41,-104 v -12 L 41.999,-129.001 38,-113 34,-97 29,-81 25,-64 21,-48.001 17,-32 13,-16 9,0 Z"/>
    </g>
    <g
            transform="matrix(0.08870399,0,0,0.08901698,49.131815,85.694304)"
            id="g864">
      <path
              id="path866"
              style="fill:#1f1a17;fill-opacity:1;fill-rule:nonzero;stroke:none"
              d="m 0,0 -18,-2.001 -10,-1 -9,-1.999 -10,-3 -10.001,-3.001 -9,-3.999 -9,-4 -7.999,-5 -7,-5.001 -6,-6.999 -5,-7 -3,-8 -1,-9 v -5.001 l 1,-4.999 1.999,-5.001 2.001,-4.999 4,-5 5,-5 5,-4 7,-5 7,-4 9,-4 10,-3.001 11,-3.999 13,-2 14,-3.001 15,-1 16,-1.999 v 1 0.999 H 14.999 14 13 v 1 H 12 11 10 L 9,-118 H 2 l -12,1 -17,2 -19,3.999 -9,3.001 -9,4 -9,5 -7,5.999 -6,6.001 -4,8 -2,3.999 -1.001,5.001 -0.999,4.999 v 5.001 3.999 l 2,4.001 1,3.999 3,5.001 3,3.999 5,5.001 4.999,4.999 6.001,4.001 7,3.999 8,4.001 9,4 10,3 11,3 11.999,2 L 1,-4 14.999,-3.001 H 31 L 45,-5 58,-6 70,-9 80,-12.001 89,-16 97,-20.001 104,-25 109,-29.001 113.999,-34 118,-39.001 121,-43 122.999,-48.001 125,-52 V -56.001 -60 -64 l -2.001,-7 -1.999,-4.001 -2,-3.999 -4,-5.001 -3,-3.999 -5,-5.001 -6,-3.999 -7,-4.001 -8,-3.999 -10,-4 -10,-3 -13,-3 -13,-2 v -1 h 1 0.999 v -1.001 H 43 h 1 1 v -1 h 1 1 1 1 1 l 8,1 13,2.001 14,4 15,6 7,4 6.999,4 6.001,5 6,6 4,6 4,6.999 2,7.001 v 8 6 l -3,8 -3,4 -4,5 -4,4 -6,5 -7,5 -8,5 -10,4 -11,4 L 66,-6 50.999,-3.001 34,-1 14.999,0 Z"/>
    </g>
    <g
            transform="matrix(0.08870399,0,0,0.08901698,96.144925,76.703515)"
            id="g868">
      <path
              id="path870"
              style="fill:#1f1a17;fill-opacity:1;fill-rule:nonzero;stroke:none"
              d="M 0,0 -12.001,-31 H -4 L 4,-7.999 13,-31 h 7 L 8,0 Z"/>
    </g>
    <g
            transform="matrix(0.08870399,0,0,0.08901698,98.717335,77.415654)"
            id="g872">
      <path
              id="path874"
              style="fill:#1f1a17;fill-opacity:1;fill-rule:nonzero;stroke:none"
              d="m 0,0 h -1 -1 -1 -1 -1 -1 -1 -1 v -4 h 1 1 1 1 l 1,-1 h 1 v -0.999 h 1 v -1 V -8 h 1 l -10,-23 h 7 L 3,-14.999 9,-31 h 7 L 7,-9 5,-5 v 1 l -1,1 v 1 H 3 v 1 H 2 1 v 1 z"/>
    </g>
    <g
            transform="matrix(0.08870399,0,0,0.08901698,101.6446,76.703515)"
            id="g876">
      <path
              id="path878"
              style="fill:#1f1a17;fill-opacity:1;fill-rule:nonzero;stroke:none"
              d="m 0,0 h -2.001 -1 H -4 -5 -7 -8 l -1,-1 h -1.001 l -1,-1 h -1 L -13,-3 -14,-4 v -1 h -1 v -1 -0.999 l 7,-1 v 1 V -6 h 1 v 1 h 1 l 1,1 h 1 0.999 1 1 L 0,-5 H 1 V -6 H 2 V -6.999 H 1 v -1 H 0 -1.001 L -3.001,-9 H -5 l -1,-1 h -2 -1 l -1.001,-1 h -1 l -1,-1 H -13 v -1 l -1,-1 v -1 -0.999 -1 -1.001 -1 l 1,-1 0.999,-1 1,-1 h 1 H -9 l 1,-1 h 1 1 1 1 1.999 1 H 0 1 l 1,1 h 1 1 l 1,1 0.999,1 1,1 v 1 l 1,1.001 -6.999,1 v -1 V -18 H 0 -1.001 v -1 h -1 -1 H -4 -5 -6 l -1,1 h -1 v 1.001 1 h 1 L -6,-15 h 1 1 0.999 1 l 1,1 H 0 1 l 1,1 h 1 1 l 1,1 h 0.999 l 1,1 1,1 v 1 1.001 1 0.999 1 l -1,1 v 1 h -1 v 1 L 5,-2 4,-1 H 3 2 L 1,0 Z M -6,-24.999 -11.001,-31 H -6 l 2.999,3 2,-3 H 5 l -5,6.001 z"/>
    </g>
    <g
            transform="matrix(0.08870399,0,0,0.08901698,104.0396,76.703515)"
            id="g880">
      <path
              id="path882"
              style="fill:#1f1a17;fill-opacity:1;fill-rule:nonzero;stroke:none"
              d="m 0,0 h -2.001 -1 H -4 -5 -7 -8 l -1,-1 h -1.001 l -1,-1 h -1 V -3 H -13 l -1,-1 v -1 l -1,-1 v -0.999 l 7,-1 v 1 V -6 h 1 v 1 h 1 1 v 1 h 1 0.999 1 1 L 0,-5 h 1 v -1 h 1 v -0.999 l -1,-1 H 0 -1.001 L -3.001,-9 H -5 l -1,-1 h -1 -2 l -1.001,-1 h -1 l -1,-1 -0.999,-1 -1,-1 v -1 -0.999 -1 V -18 l 1,-1 v -1 l 0.999,-1 1,-1 h 1 H -9 l 1,-1 h 1 1 1 1 1.999 1 H 0 1 l 1,1 h 1 1 l 1,1 0.999,1 1,1 v 1 l 1,1.001 -6.999,1 v -1 V -18 H 0 -1.001 v -1 h -1 -1 H -4 -5 -6 v 1 h -1 -1 v 1.001 1 h 1 L -6,-15 h 1 1 0.999 1 l 1,1 H 0 1 l 2,1 h 1 l 1,1 h 0.999 l 1,1 1,1 v 1 L 9,-7.999 v 1 H 7.999 V -6 -5 l -1,1 v 1 h -1 v 1 H 5 L 4,-1 H 3 2 L 1,0 Z M -6,-24.999 -11.001,-31 H -6 l 2.999,3 2,-3 H 5 l -5,6.001 z"/>
    </g>
    <g
            transform="matrix(0.08870399,0,0,0.08901698,-9.5068448,360.95865)"
            id="g884">
      <path
              id="path886"
              style="fill:#1f1a17;fill-opacity:1;fill-rule:nonzero;stroke:none"
              d="m 1294.06,-3216.268 h 7 v 23 h -7 z m 0,-2 2.999,-6 h 8 l -6.999,6 z"/>
    </g>
    <g
            transform="matrix(0.08870399,0,0,0.08901698,109.007,76.703515)"
            id="g888">
      <path
              id="path890"
              style="fill:#1f1a17;fill-opacity:1;fill-rule:nonzero;stroke:none"
              d="m 0,0 h -2 -1 -1 -1 -1 l -1,-1 h -1 -1 -1 v -1 h -1 l -1,-1 -1,-1 h -1 v -1 l -1,-1 v -0.999 -1 h -1 V -9 v -1 -1 -1 -1 -1 -1 h 1 v -0.999 -1 h 1 V -18 -19 h 1 l 1,-1 1,-1 1,-1 h 1 1 1 v -1 h 1 1 1 1 1 2 1 l 1,1 h 1 l 1,1 h 1 l 1,1 1,1 1,1 1,1.001 v 1 0.999 l 1,1 v 1 1 2 1 l -1,1.001 v 1 V -6 L 8,-5 7,-4 6,-3 H 5 L 4,-2 3,-1 H 2 L 1,0 Z m -7,-16.999 -1,1 -1,0.999 v 1 1 1 1 1 1 1.001 l 1,1 1,0.999 1,1 h 1 1 1 1 1 1 v -1 h 1 l 1,-0.999 v -1 L 3,-9 v -1 -1 -1 -1 -1 l -1,-1 v -0.999 l -1,-1 H 0 V -18 h -1 -1 -1 -1 -1 -1 z"/>
    </g>
    <g
            transform="matrix(0.08870399,0,0,0.08901698,111.84549,76.703515)"
            id="g892">
      <path
              id="path894"
              style="fill:#1f1a17;fill-opacity:1;fill-rule:nonzero;stroke:none"
              d="m 0,0 v -3 -1 1 h -1 v 1 h -1 v 1 h -1 -1 -1 v 1 h -0.999 -1 -1.001 -1 -1 -1 l -1,-1 h -1 l -1,-1 -0.999,-1 -1,-1 L -17,-5 v -1 -0.999 l -1,-1 V -9 v -1 -2 -1 -1 -1 -1.999 L -17,-18 v -1 h 1.001 l 1,-1 0.999,-1 1,-1 h 1 l 1,-1 h 1 1 1 1.001 1 H -5 l 1,1 h 1 l 1,1 h 1 l 1,1 V -31 H 6 V 0 Z m -11,-15 v 1 1 1 1 1 1 1.001 1 h 1 V -6 h 1 v 1 h 1 1.001 1 0.999 1 1 v -1 h 1 v -0.999 h 1 v -1 L 0,-9 v -1 -1 -1 -1 -1 l -1,-1 v -0.999 l -1,-1 L -3,-18 h -1 -1 v -1 h -0.999 l -1,1 H -8 -9 v 1.001 h -1 v 1 h -1 z"/>
    </g>
    <g
            transform="matrix(0.08870399,0,0,0.08901698,114.41797,76.703515)"
            id="g896">
      <path
              id="path898"
              style="fill:#1f1a17;fill-opacity:1;fill-rule:nonzero;stroke:none"
              d="m 0,0 h -1.001 -1 -1 H -4 -5 v -1 h -1 -1 l -1,-1 h -1 v -1 h -1.001 v -1 1 3 H -16 v -31 h 5.999 v 11 L -9,-21 h 1 l 1,-1 h 1 l 1,-1 h 1 0.999 1 1 H 0 1 l 1,1 h 1 l 1,1 h 1 v 1 l 0.999,1 h 1 v 1 l 1,1.001 v 1.999 1 1 1 2 1 1.001 1 l -1,0.999 v 1 l -1,1 L 5,-3 4,-2 3,-1 H 2 L 1,0 Z m -10.001,-13 v 1 1 1 H -9 v 1 1.001 1 h 1 V -6 h 1 l 1,1 h 1 1 0.999 1 1 V -6 H 0 v -0.999 h 1 v -1 -1.001 -1 -1 h 1 l -1,-1 v -1 -1 -1 -0.999 H 0 v -1 L -1.001,-18 h -1 -1 v -1 H -4 -5 v 1 h -1 -1 l -1,1.001 -1,1 v 0.999 1 h -1.001 z"/>
    </g>
    <g
            transform="matrix(0.08870399,0,0,0.08901698,116.90167,76.703515)"
            id="g900">
      <path
              id="path902"
              style="fill:#1f1a17;fill-opacity:1;fill-rule:nonzero;stroke:none"
              d="M 0,0 H -1 -3.001 -4 -5 -6 l -1,-1 h -1 -1 l -1,-1 h -1.001 l -1,-1 -0.999,-1 -1,-1 -1,-1 v -0.999 -1 L -16,-9 v -1 -1 -1 -1 -1 l 1,-1 v -0.999 -1 h 1 V -18 l 1,-1 0.999,-1 1,-1 H -10 v -1 h 1 1 1 l 1,-1 h 1 1 0.999 H -1 0 1 l 1,1 h 2 l 1,1 h 0.999 l 1,1 v 1 l 1.001,1 1,1.001 v 1 L 10,-15 v 1 1 1 2 1 1.001 l -1,1 V -6 l -1,1 -1.001,1 v 1 h -1 L 5,-2 4,-1 H 2 L 1,0 Z m -9,-13 v 1 1 1 1 h 1 v 1.001 1 L -7,-6 h 1 v 1 h 1 1 0.999 1 H -1 0 l 1,-1 h 1 v -0.999 l 1,-1 V -9 v -1 -1 -1 -1 -1 -1 l -1,-0.999 v -1 H 1 L 0,-18 h -1 -1.001 -1 H -4 -5 -6 v 1.001 h -1 l -1,1 v 0.999 1 h -1 z"/>
    </g>
    <g
            transform="matrix(0.08870399,0,0,0.08901698,118.23217,76.703515)"
            id="g904">
      <path
              id="path906"
              style="fill:#1f1a17;fill-opacity:1;fill-rule:nonzero;stroke:none"
              d="m 0,0 v -23 h 6 v 4 l 1,-1 1,-1 v -1 h 1 l 1,-1 h 1.001 1 0.999 1 1 l 1,1 h 1 l -2,5.001 H 14 13 V -18 h -0.999 -1 H 10 v 1.001 H 9 l -1,1 V -15 H 7 v 1 1 1 1 1 1 2.001 V 0 Z"/>
    </g>
    <g
            transform="matrix(0.08870399,0,0,0.08901698,121.42551,76.703515)"
            id="g908">
      <path
              id="path910"
              style="fill:#1f1a17;fill-opacity:1;fill-rule:nonzero;stroke:none"
              d="m 0,0 v -12 -1 -1 -1 -0.999 h -1 v -1 V -18 h -1 -1 v -1 h -1 -1 l -0.999,1 h -1 H -8 v 1.001 h -1 v 1 L -10,-15 v 1 1 1 1 1 10 h -7 v -23 h 7 v 4 -1 l 1,-1 1,-1 h 1.001 l 1,-1 H -4 h 1 1 1 1 1 1.001 v 1 h 1 H 4 v 1 h 1 v 1 l 1,1 v 1 1.001 1 0.999 1 14 z"/>
    </g>
    <g
            transform="matrix(0.08870399,0,0,0.08901698,123.998,76.703515)"
            id="g912">
      <path
              id="path914"
              style="fill:#1f1a17;fill-opacity:1;fill-rule:nonzero;stroke:none"
              d="m 0,0 -1.001,-1 v -1 -1 h -1 v 1 h -1 L -4,-1 h -1 l -1,1 h -1 -1 -1 -1.001 -1 -1 H -13 v -1 h -1 -1 v -1 h -1 v -1 h -1 v -1 -1 -1 l -1,-0.999 h 1 v -1 V -9 -10 h 1 v -1 h 1 v -1 h 1 1 l 0.999,-1 h 1 1 1.001 1 l 1,-1 h 1 1 1 l 0.999,-1 h 1 v -0.999 -1 l -1,-1.001 H -4 -5 v -1 h -1 -1 -1 v 1 h -1 -1.001 v 1.001 l -1,1 -5.999,-1 V -18 h 1 v -1 l 1,-1 1,-1 1,-1 h 0.999 1 l 1,-1 H -9 h 1 1 1 1 1 0.999 1 1 H 0 v 1 h 1 1 v 1 h 1 v 1 h 1 v 1 1 h 1 v 1.001 1 0.999 7.001 1 0.999 1 1 1 1 h 0.999 v 1 1 z m -11.001,-7.999 v 1 V -6 h 1 v 1 H -9 v 1 h 1 1 1 1 v -1 h 1 0.999 v -1 h 1 v -0.999 -1 -1.001 -1 -1 h -1 H -4 l -1,1 h -1 -1 -1 -1 v 1 h -1.001 z M -9,-24.999 -6,-31 h 8 l -7,6.001 z"/>
    </g>
    <g
            transform="matrix(0.08870399,0,0,0.08901698,127.28003,76.703515)"
            id="g916">
      <path
              id="path918"
              style="fill:#1f1a17;fill-opacity:1;fill-rule:nonzero;stroke:none"
              d="M 0,0 H -1 -2.001 -4 -5 -6 -7 l -1,-1 h -1 -1 l -1.001,-1 -1,-1 H -13 v -1 l -1,-1 v -1 l -1,-0.999 7,-1 v 1 h 1 V -6 l 1,1 h 1 l 1,1 h 0.999 1 H -1 0 v -1 h 1 1 v -1 -0.999 -1 H 1 0 L -2.001,-9 H -4 l -2,-1 h -1 -1 l -1,-1 h -1 -1.001 v -1 h -1 v -1 H -13 v -1 -1 l -1,-0.999 v -1 L -13,-18 v -1 -1 h 0.999 v -1 h 1 L -10,-22 h 1 l 1,-1 h 1 2 1 0.999 1 H -1 1 2 v 1 h 1 1 1 v 1 h 0.999 v 1 h 1 v 1 H 8 v 1 1.001 l -6,1 v -1 H 1 V -18 H 0 l -1,-1 h -1.001 -1 H -4 -5 -6 v 1 h -1 v 1.001 1 h 1 L -5,-15 h 1 0.999 1 L 0,-14 h 1 1 l 1,1 h 1 1 l 0.999,1 h 1 v 1 H 8 v 1 h 1 v 1 1.001 1 V -6 -5 H 8 v 1 l -1.001,1 -1,1 H 5 v 1 H 4 3 L 1,0 Z M -6,-24.999 -11.001,-31 H -5 l 1.999,3 L 0,-31 h 5 l -5,6.001 z"/>
    </g>
    <g
            transform="matrix(0.08870399,0,0,0.08901698,130.02983,76.703515)"
            id="g920">
      <path
              id="path922"
              style="fill:#1f1a17;fill-opacity:1;fill-rule:nonzero;stroke:none"
              d="m 0,0 -7,-10 -3,2.001 V 0 h -6 v -31 h 6 v 16 l 8,-8 h 8 l -8,8 9,15 z"/>
    </g>
    <g
            transform="matrix(0.08870399,0,0,0.08901698,132.24745,76.703515)"
            id="g924">
      <path
              id="path926"
              style="fill:#1f1a17;fill-opacity:1;fill-rule:nonzero;stroke:none"
              d="m 0,0 h -1 -1 -1 -1 -1 -1 l -1,-1 h -1 -1 l -1,-1 h -1 v -1 h -1 v -1 h -1 v -1 h -1 v -1 l -1,-0.999 v -1 V -9 -10 l -1,-1 v -1 -1 h 1 v -1 -1 -0.999 l 1,-1 1,-1.001 v -1 h 1 v -1 h 1 v -1 h 1 l 1,-1 h 1 1 l 1,-1 h 1 1 1 2 1 1 l 2,1 h 1 l 1,1 h 1 l 1,1 1,1 v 1 l 1,1.001 1,1 v 0.999 1 1 l 1,1 -1,2 v 1 1.001 1 L 9,-6 8,-5 v 1 L 7,-3 H 6 L 5,-2 4,-1 H 3 L 1,0 Z m -8,-15 v 1 l -1,1 v 1 1 1 l 1,1 v 1.001 1 h 1 V -6 h 1 l 1,1 h 1 1 1 1 1 l 1,-1 h 1 v -0.999 h 1 v -1 V -9 l 1,-1 v -1 -1 -1 l -1,-1 v -1 -0.999 H 2 v -1 H 1 L 0,-18 h -1 -1 -1 -1 -1 l -1,1.001 h -1 v 1 h -1 z"/>
    </g>
    <g
            transform="matrix(0.08870399,0,0,0.08901698,-9.5068448,360.95865)"
            id="g928">
      <path
              id="path930"
              style="fill:#1f1a17;fill-opacity:1;fill-rule:nonzero;stroke:none"
              d="m 1614.06,-3224.268 h 5.999 v 31 h -5.999 z"/>
    </g>
    <g
            transform="matrix(0.08870399,0,0,0.08901698,136.23913,76.703515)"
            id="g932">
      <path
              id="path934"
              style="fill:#1f1a17;fill-opacity:1;fill-rule:nonzero;stroke:none"
              d="m 0,0 v -1 h -1 v -1 -1 h -1 v 1 h -1 v 1 h -1 -1 l -1,1 h -1 -1 -1 -1 -1 -1 -1 v -1 h -1 -1 v -1 h -1 v -1 h -1 v -1 -1 -1 -0.999 -1 V -9 l 1,-1 v -1 h 1 l 1,-1 h 1 l 1,-1 h 1 1 1 1 l 1,-1 h 1 1 1 l 1,-1 h 1 v -0.999 -1 V -18 h -1 -1 -1 v -1 h -1 -1 -1 v 1 h -1 -1 v 1.001 l -1,1 -6,-1 1,-1.001 v -1 l 1,-1 1,-1 1,-1 h 1 1 l 1,-1 h 1 1 1 1 1 1 1 1 1 1 v 1 h 1 1 v 1 h 1 v 1 h 1 v 1 1 h 1 v 1.001 1 0.999 7.001 1 0.999 1 1 1 1 h 1 v 1 1 z M -11,-6.999 V -6 h 1 v 1 h 1 v 1 h 1 1 1 1 v -1 h 1 1 v -1 h 1 v -0.999 -1 -1.001 -1 -1 h -1 -1 l -1,1 h -1 -1 -1 -1 v 1 h -1 v 1.001 h -1 z"/>
    </g>
    <g
            transform="matrix(0.08870399,0,0,0.08901698,139.78724,76.703515)"
            id="g936">
      <path
              id="path938"
              style="fill:#1f1a17;fill-opacity:1;fill-rule:nonzero;stroke:none"
              d="m 0,0 v -1 -1 -1 h -1 v 1 h -1 l -1,1 h -1 -0.999 v 1 h -1 -1 -1.001 -1 -1 -1 -1 l -1,-1 h -0.999 l -1,-1 -1,-1 V -4 -5 H -17 v -1 -0.999 -1 L -15.999,-9 v -1 l 1,-1 h 1 v -1 h 0.999 1 l 1,-1 h 1 1 1 l 2.001,-1 h 1 0.999 1 l 1,-1 h 1 v -0.999 -1 H -2 V -18 h -1 -1 v -1 h -0.999 -1 -1 v 1 H -8 -9 v 1.001 h -1 v 1 l -5.999,-1 V -18 l 1,-1 v -1 h 1 v -1 H -13 v -1 h 1 1 1 l 1,-1 h 2.001 1 1 0.999 1 1 1 1 l 1,1 h 1.001 l 1,1 h 1 v 1 H 5 v 1 1 1.001 1 0.999 7.001 1 0.999 1 h 1 v 1 1 1 1 h 1 v 1 z m -10,-7.999 v 1 0.999 1 h 1 l 1,1 h 1.001 1 1 L -4,-5 h 1 l 1,-1 v -0.999 h 1 v -1 -1.001 -1 -1 h -1 -1 l -1,1 h -0.999 -1 -1 H -8 v 1 h -1 -1 z"/>
    </g>
    <g
            transform="matrix(0.08870399,0,0,0.08901698,75.388205,80.976377)"
            id="g940">
      <path
              id="path942"
              style="fill:#1f1a17;fill-opacity:1;fill-rule:nonzero;stroke:none"
              d="M 0,0 H -1 -3.001 L -4,-1 h -2 -1 -1 l -1,-1 h -1 l -1.001,-1 -1,-1 -0.999,-1 -1,-1 v -1 l -1,-1 v -2 -1 h 6 1 v 1 1 l 1,1 v 1 h 1 l 1,1 h 1 0.999 1 H -1 0 1 2 3 l 1,-1 h 1 v -1 l 0.999,-1 v -1 -1 H 5 v -1 H 4 v -1 H 3 2 1 l -1,-1 h -1 -1.001 -1 L -4,-15 h -2 -1 l -1,-1 h -1 -1 v -1 h -1.001 l -1,-1 v -1 H -13 v -1 l -1,-1 v -1 -1 -1 -1 -1 l 1,-1 v -1 h 0.999 v -1 h 1 v -1 H -10 l 1,-1 h 1 1 l 1,-1 h 1 1 0.999 1 H -1 0 2 3 l 1,1 h 1.999 1 L 8,-30 v 1 h 1 l 1,1 v 1 l 1,1 1,1 v 1 1 l -7,1 v -1 -1 H 4 v -1 L 3,-26 H 2 l -1,-1 h -1 -1 -1.001 -1 H -4 l -1,1 h -1 -1 v 1 1 1 1 h 1 1 v 1 h 1 0.999 l 1,1 H -1 0 1 l 1,1 h 2 1 l 0.999,1 h 1 H 8 v 1 h 1 l 1,1 h 1 v 1 h 1 v 1 1 l 1,1 v 1 1 1 1 1 h -1 v 1 l -1,1 v 1 h -1 v 1 H 9 L 8,-2 H 6.999 l -1,1 H 5 4 3 2 L 1,0 Z"/>
    </g>
    <g
            transform="matrix(0.08870399,0,0,0.08901698,77.605735,80.976377)"
            id="g944">
      <path
              id="path946"
              style="fill:#1f1a17;fill-opacity:1;fill-rule:nonzero;stroke:none"
              d="m 0,0 -1,-1 h -1 -1 -1 v -1 h -0.999 v -1 -1 h -1 v -1 -1 -1 -1 -1 -9 H -9 v -5 h 3.001 v -4 l 7,-4 v 8 H 5 v 5 H 1.001 v 9 1 1 1 h 1 v 1 h 1 1 V -6 H 5 l 1,5 h -1 -0.999 -1 -1 l -1,1 z"/>
    </g>
    <g
            transform="matrix(0.08870399,0,0,0.08901698,78.492855,80.887386)"
            id="g948">
      <path
              id="path950"
              style="fill:#1f1a17;fill-opacity:1;fill-rule:nonzero;stroke:none"
              d="m 0,0 v -22 h 5.999 v 3 l 1,-1.001 v -1 h 1 V -22 H 9 h 1 1 v -1 h 1 l 1,1 h 0.999 1 1 v 0.999 l -2,5.001 v -1 H 13 12 11 10 9 l -1.001,1 -1,1 v 1 1 0.999 1 1.001 l -1,1 v 1 1 7 z m 3,-25 -5.001,-6 H 4 L 5.999,-28 9,-31 h 5.999 L 10,-25 Z"/>
    </g>
    <g
            transform="matrix(0.08870399,0,0,0.08901698,81.065245,80.976377)"
            id="g952">
      <path
              id="path954"
              style="fill:#1f1a17;fill-opacity:1;fill-rule:nonzero;stroke:none"
              d="M 0,0 -1,-1 H -3.001 -4 -5 l -2,-1 -1,-1 h -1 v -1 l -1,-1 -1,-1 v -1 -1 l -1.001,-1 v -1 -1 -1 -1 -1 -2 L -11,-17 v -1 l 1,-1 1,-1 1,-1 1,-1 h 1 l 1,-1 H -4 -3.001 -2 l 2,-1 1,1 h 1 2 0.999 l 1,1 H 7 l 1,1 1,1 v 1 l 1,1 v 1 l 1,1 v 1 2 l 1,1 v 2 H -5 v 1 1 h 1 v 1 1 h 0.999 L -2,-5 h 1 1 1 1 1 V -6 H 4 V -7 -8 H 4.999 L 11,-7 v 1 1 h -1 v 1 H 9 v 1 H 8 L 7,-2 H 5.999 v 1 h -1 H 4 3 2 L 1,0 Z m -5,-15 v 1 h 9.999 v -1 -1 L 4,-17 3,-18 2,-19 H 1 0 -1 -2 l -1.001,1 H -4 v 1 1 h -1 z"/>
    </g>
    <g
            transform="matrix(0.08870399,0,0,0.08901698,83.371555,80.976377)"
            id="g956">
      <path
              id="path958"
              style="fill:#1f1a17;fill-opacity:1;fill-rule:nonzero;stroke:none"
              d="m 0,0 -1,-1 h -1.001 -1 H -4 l -1,-1 h -1 l -1,-1 v -1 h -1 l -1,-1 v -1 l -1,-1 v -1 -1 -2 -1 -1 -2 -1 -1 l 1,-1 v -1 l 1,-1 1,-1 1,-1 h 1 l 1,-1 h 0.999 1 H -1 l 1,-1 1,1 h 1 1 1 l 1,1 h 0.999 l 1,1 1.001,1 v -11 h 6 V -1 H 8 v -3 l -1.001,1 h -1 v 1 H 5 L 4,-1 H 3 2 1 v 1 z m -2.001,-17 -1,1 v 1 L -4,-14 v 1 1 1 l 0.999,1 v 1 1 l 1,1 v 1 H -1 l 1,1 h 1 1 1 1 l 1,-1 h 0.999 v -1 l 1,-1 v -1 -1 L 8,-11 v -1 -1 l -1.001,-1 v -1 -1 l -1,-1 v -1 H 5 L 4,-19 H 3 2 1 0 l -1,1 h -1.001 z"/>
    </g>
    <g
            transform="matrix(0.08870399,0,0,0.08901698,86.653595,80.887386)"
            id="g960">
      <path
              id="path962"
              style="fill:#1f1a17;fill-opacity:1;fill-rule:nonzero;stroke:none"
              d="m 0,0 v -11.001 -1 -0.999 -1 -1 -1 h -1 v -1 h -1 v -1 h -1 -1 -1 -1 l -1,1 h -1 v 1 h -1 v 1 1 1 0.999 h -1 v 1 V -10 0 h -6 v -22 h 6 v 3 l 1,-1.001 h 1 l 1,-1 1,-0.999 h 1 1 1 l 1,-1 h 1 v 1 h 1 1 1 1 v 0.999 h 1 1 v 1 L 6,-19 v 1 l 1,1 v 1 1 1 14 z"/>
    </g>
    <g
            transform="matrix(0.08870399,0,0,0.08901698,-9.5068448,360.95865)"
            id="g964">
      <path
              id="path966"
              style="fill:#1f1a17;fill-opacity:1;fill-rule:nonzero;stroke:none"
              d="m 1098.059,-3168.268 h 6 v 22 h -6 z m -1,-3 3.001,-6 h 7.999 l -6.999,6 z"/>
    </g>
    <g
            transform="matrix(0.08870399,0,0,0.08901698,90.201715,81.59952)"
            id="g968">
      <path
              id="path970"
              style="fill:#1f1a17;fill-opacity:1;fill-rule:nonzero;stroke:none"
              d="m 0,0 v -30 h 7 v 3 -1.001 h 1 l 1,-1 h 1 L 11,-30 H 12.001 13 l 1,-1 h 1 l 1,1 h 1 1 1 l 1,0.999 1.001,1 H 22 L 23,-27 v 1 l 1,1 v 1 l 1,1 v 1 1.999 1 1.001 1 2 l -1,1 v 1 l -1,1 v 0.999 h -1 l -0.999,1 L 20,-9 19,-8 h -1 -1 -1 l -1,1 H 14 V -8 H 13 12.001 11 10 V -9 H 9 l -1,-1.001 -1,-1 V 0 Z m 8,-23 -1,1 v 1 0.999 1 1.001 1 l 1,1 v 1 1 h 1 v 1 h 1 1 v 1 h 1.001 0.999 1 1 l 1,-1 1,-1 v -1 h 1 v -1 -1 -1 -1.001 -1 -0.999 -1 -1 h -1 v -1 l -1,-1 h -1 l -1,-1 H 13 12.001 11 v 1 H 10 9 v 1 H 8 Z"/>
    </g>
    <g
            transform="matrix(0.08870399,0,0,0.08901698,92.862895,80.887386)"
            id="g972">
      <path
              id="path974"
              style="fill:#1f1a17;fill-opacity:1;fill-rule:nonzero;stroke:none"
              d="m 0,0 v -22 h 5.999 v 3 h 1 v -1.001 h 1 v -1 H 9 V -22 h 1 1 l 1,-1 h 1 v 1 h 1 0.999 1 l 1,0.999 L 14,-16 v -1 H 13 12 11 10 9 v 1 H 7.999 v 1 l -1,1 v 1 0.999 1 1.001 1 1 1 7 z"/>
    </g>
    <g
            transform="matrix(0.08870399,0,0,0.08901698,95.257905,80.976377)"
            id="g976">
      <path
              id="path978"
              style="fill:#1f1a17;fill-opacity:1;fill-rule:nonzero;stroke:none"
              d="m 0,0 -1.001,-1 h -1 -1 H -4 v -1 h -1 l -1,-1 -1,-1 v -1 -1 h -1 v -1 -1 -1 -14 h 6.999 v 10 1 1 1 1 1 1 H 0 v 1 h 1 v 1 h 1 1 1 1 l 0.999,-1 h 1 v -1 h 1 v -1 -1 -1 -1 L 9,-12 v -1 -1 -9 h 5.999 V -1 H 9 v -3 l -1.001,1 h -1 v 1 h -1 L 5,-1 H 4 3 2 L 1,0 Z M 5,-25 H 4 3 2 1 v -1 H 0 v -1 h -1.001 v -1 -1 -1 L 0,-31 v -1 h 1 1 v -1 h 1 1 1 0.999 v 1 h 1 v 1 h 1 v 1 1 1 1 l -1,1 -1,1 z m -3,-4 v 1 1 h 1 1 1 v -1 h 0.999 v -1 -1 H 5 v -1 H 4 3 v 1 H 2 Z"/>
    </g>
    <g
            transform="matrix(0.08870399,0,0,0.08901698,99.870445,80.887386)"
            id="g980">
      <path
              id="path982"
              style="fill:#1f1a17;fill-opacity:1;fill-rule:nonzero;stroke:none"
              d="m 0,0 v -13 -1 -1 -1 -1 h -1 v -1 h -1 -1 -1 -1 l -0.999,1 h -1 v 1 H -8 v 1 1 1 0.999 1 V 0 h -6.999 V -12.001 -13 v -1 -1 -1 h -1 v -1 L -17,-18 h -1 -1 -1 -1 v 1 h -1 v 1 h -1 v 1 1 l -0.999,1 v 0.999 1 V 0 H -30 v -22 h 6.001 v 3 l 0.999,-1.001 1,-1 1,-0.999 h 1 1 2 l 1.001,-1 1,1 h 0.999 1 1 v 0.999 h 1 1 v 1 l 1,1.001 1,-1.001 1.001,-1 h 1 V -22 H -5 h 1 1 l 1,-1 h 1 l 1,1 h 1 1.001 1 L 4,-21.001 h 1 v 1 h 1 v 1.001 1 l 1,1 v 1 1 1 14 z"/>
    </g>
    <g
            transform="matrix(0.08870399,0,0,0.08901698,101.55582,81.68854)"
            id="g984">
      <path
              id="path986"
              style="fill:#1f1a17;fill-opacity:1;fill-rule:nonzero;stroke:none"
              d="M 0,0 H -1 -2 -3 -4 -5 -6 -6.999 V -5 H -6 h 1 1 1 1 1 V -6 H 0 V -7 -8 H 1.001 V -9 L -9,-31 h 7 l 6,16 6.001,-16 H 17 l -9,21 -1,4 v 1 H 6 v 1 H 5 v 0.999 l -1,1 H 3 V -1 h -0.999 -1 v 1 z"/>
    </g>
    <g
            transform="matrix(0.08870399,0,0,0.08901698,104.30569,80.976377)"
            id="g988">
      <path
              id="path990"
              style="fill:#1f1a17;fill-opacity:1;fill-rule:nonzero;stroke:none"
              d="m 0,0 h -1 l -1,-1 h -1 -1 -1 -1 l -1,-1 h -1 l -1,-1 -1,-1 -1,-1 v -1 h -1 v -1 l 7,-1 v 1 h 1 v 1 h 1 v 1 h 1 1 1 1 1 1 1 V -6 H 5 V -7 -8 H 4 V -9 H 3 2 0 l -1,-1 h -2 -1 l -1,-1 h -1 -1 l -1,-1 h -1 v -1 h -1 v -1 -1 h -1 v -1 -1 -1 -1 h 1 v -1 l 1,-1 1,-1 h 1 l 1,-1 h 1 1 1 1 l 2,-1 h 1 l 1,1 h 1 1 1 1 l 1,1 h 1 l 1,1 1,1 v 1 l 1,1 -6,1 H 4 v -1 H 3 v -1 H 2 1 0 -1 -2 -3 -4 v 1 h -1 v 1 h 1 v 1 h 1 1 1 l 1,1 h 1 1 2 l 1,1 h 1 1 l 1,1 h 1 l 1,1 1,1 v 1 l 1,1 v 1 1 1 h -1 v 1 1 h -1 v 1 H 9 L 8,-2 H 7 L 6,-1 H 5 4 3 L 2,0 Z"/>
    </g>
    <g
            transform="matrix(0.08870399,0,0,0.08901698,-9.5068448,360.95865)"
            id="g992">
      <path
              id="path994"
              style="fill:#1f1a17;fill-opacity:1;fill-rule:nonzero;stroke:none"
              d="m 1301.06,-3176.269 h 6 v 30.001 h -6 z"/>
    </g>
    <g
            transform="matrix(0.08870399,0,0,0.08901698,108.03129,80.976377)"
            id="g996">
      <path
              id="path998"
              style="fill:#1f1a17;fill-opacity:1;fill-rule:nonzero;stroke:none"
              d="m 0,0 -1.001,-1 h -1 -1 H -4 l -1,-1 h -1 -1 v -1 h -1 l -1,-1 -1.001,-1 -1,-1 v -1 l -1,-1 v -1 -1 -1 -1 -1 -1 -1 -1 l 1,-1 v -1 l 1,-1 1.001,-1 1,-1 1,-1 h 1 1 v -1 h 1 0.999 1 1 L 0,-24 h 1 l 1,1 h 1 2 0.999 l 1,1 h 1 l 1.001,1 1,1 1,1 h 1 v 1 l 1,1 v 1 2 l 1,1 v 1 1 l -1,1 v 1 2 l -1,1 -1,1 -1,1 -1,1 -1.001,1 h -1 l -1,1 H 5 3 2 L 1,0 Z m -5,-16 v 1 1 l -1,1 v 1 1 l 1,1 v 1 1 l 1,1 h 0.999 v 1 h 1 l 1,1 H 0 1 2 l 1,-1 h 1 l 1,-1 0.999,-1 v -1 l 1,-1 v -1 -1 -1 -1 l -1,-1 v -1 L 5,-17 4,-18 H 3 L 2,-19 H 1 0 -1.001 l -1,1 h -1 v 1 H -4 Z"/>
    </g>
    <g
            transform="matrix(0.08870399,0,0,0.08901698,110.33752,80.887386)"
            id="g1000">
      <path
              id="path1002"
              style="fill:#1f1a17;fill-opacity:1;fill-rule:nonzero;stroke:none"
              d="m 0,0 -10,-22 h 7 L 1.001,-11.001 3,-7 v -1 -1 h 1 v -1 -1.001 L 9,-22 h 7 L 6,0 Z"/>
    </g>
    <g
            transform="matrix(0.08870399,0,0,0.08901698,112.64382,80.976377)"
            id="g1004">
      <path
              id="path1006"
              style="fill:#1f1a17;fill-opacity:1;fill-rule:nonzero;stroke:none"
              d="m 0,0 -1,-1 h -1 -1 -1 l -1,-1 h -0.999 v -1 l -1,-1 V -5 L -8,-6 v -1 -1 l 1.001,-1 v -1 l 1,-1 v -1 H -5 -4 v -1 h 1 1 1 l 1,-1 H 1 3.001 4 5 v -1 h 1 1 1 v -1 -1 -1 H 7 v -1 H 6 5 4 3.001 2.001 1 v 1 H 0 v 1 h -1 v 1 l -5.999,-1 v -1 l 1,-1 v -1 l 0.999,-1 1,-1 h 1 l 1,-1 h 1 1 1 1.001 l 1,-1 H 4 5 l 1,1 h 1 1 1 1 1.001 v 1 h 1 l 0.999,1 1,1 v 1 1 1 1 l 1,1 -1,7 v 1 1 h 1 v 1 1 1 1 h 1 v 1 H 9 V -2 -3 H 8 L 7,-2 H 6 l -1,1 h -1 -0.999 -1 L 1,0 Z m -1,-8 v 1 1 h 1 v 1 h 1 1.001 1 H 4 5 6 v -1 h 1 v -1 h 1 v -1 -1 -1 -1 -1 1 H 7 6 5 4 3.001 v 1 h -1 H 1 0 v 1 h -1 z m 2,-18 3,-6 h 7.001 L 5,-26 Z"/>
    </g>
    <g
            transform="matrix(0.08870399,0,0,0.08901698,116.54681,80.976377)"
            id="g1008">
      <path
              id="path1010"
              style="fill:#1f1a17;fill-opacity:1;fill-rule:nonzero;stroke:none"
              d="M 0,0 H -1 L -2,-1 H -3 -4 -5 -5.999 L -7,-2 h -1 l -1,-1 -1,-1 -1,-1 v -1 l -1,-1 7,-1 v 1 h 1 v 1 h 1 v 1 H -2 -1 0 1 2 3.001 4 V -6 H 5 V -7 -8 H 4 V -9 H 3.001 2 1 l -2,-1 h -2 -1 l -1,-1 H -5.999 -7 l -1,-1 h -1 v -1 h -1 v -1 -1 h -1 v -1 -1 -1 l 1,-1 v -1 l 1,-1 1,-1 h 1 l 1.001,-1 H -5 h 1 1 2 l 1,-1 h 1 l 1,1 H 3.001 4 5 6 l 1,1 h 1 l 1,1 1,1 v 1 l 1,1 -6,1 H 4 v -1 H 3.001 v -1 H 2 1 0 -1 -2 -3 -4 v 1 h -1 v 1 h 1 v 1 h 1 1 1 l 1,1 h 1 1 2 l 1,1 h 1 1 l 1,1 h 1 l 1,1 1,1 v 1 h 1.001 v 1 1 1 1 H 11 v 1 1 h -1 v 1 H 9 L 8,-2 H 7 L 6,-1 H 5 4 3.001 L 2,0 Z m -3,-26 -5,-6 h 5 l 3,3 3.001,-3 H 8 l -4.999,6 z"/>
    </g>
    <g
            transform="matrix(0.08870399,0,0,0.08901698,119.56276,80.887386)"
            id="g1012">
      <path
              id="path1014"
              style="fill:#1f1a17;fill-opacity:1;fill-rule:nonzero;stroke:none"
              d="m 0,0 -7,-10 -3,3 v 7 h -7 v -30.001 h 7 V -14 l 8,-8 h 8 l -8,8 9,14 z"/>
    </g>
    <g
            transform="matrix(0.08870399,0,0,0.08901698,121.42551,80.976377)"
            id="g1016">
      <path
              id="path1018"
              style="fill:#1f1a17;fill-opacity:1;fill-rule:nonzero;stroke:none"
              d="m 0,0 v -1 h -1 -1 -1 -1 l -1,-1 h -0.999 l -1,-1 L -8,-4 h -1 v -1 h -1 v -1 -1 h -1 v -1 -1 l -1,-1 v -1 -1 -1 -1 l 1,-1 v -1 -1 h 1 v -1 -1 h 1 v -1 h 1 v -1 h 1.001 l 1,-1 H -5 l 1,-1 h 1 1 1 l 1,-1 h 1 l 2.001,1 H 4 5 6 l 2,1 h 1 l 1,1 1.001,1 1,1 0.999,1 v 1 l 1,1 v 2 1 1 1 1 1 l -1,2 v 1 h -0.999 l -1,1 v 1 L 10,-3 9,-2 H 8 L 6,-1 H 5 4 3.001 L 1,0 Z m -4,-16 v 1 l -1,1 v 1 1 1 1 l 1,1 v 1 1 h 1 l 1,1 h 1 v 1 h 1 1 1.001 1 L 4,-6 h 1 v -1 h 1 v -1 h 1 v -1 -1 -1 -1 -1 -1 -1 l -1,-1 v -1 H 5 v -1 H 4 l -0.999,-1 h -1 H 1 0 -1 v 1 h -1 l -1,1 h -1 z"/>
    </g>
    <g
            transform="matrix(0.08870399,0,0,0.08901698,-9.5068448,360.95865)"
            id="g1020">
      <path
              id="path1022"
              style="fill:#1f1a17;fill-opacity:1;fill-rule:nonzero;stroke:none"
              d="m 1496.06,-3176.269 h 5.999 v 30.001 h -5.999 z"/>
    </g>
    <g
            transform="matrix(0.08870399,0,0,0.08901698,124.88502,80.976377)"
            id="g1024">
      <path
              id="path1026"
              style="fill:#1f1a17;fill-opacity:1;fill-rule:nonzero;stroke:none"
              d="m 0,0 -1,-1 h -1.001 -1 H -4 l -1,-1 -1,-1 -1,-1 v -1 l -1,-1 v -1 -1 l 1,-1 v -1 l 1,-1 1,-1 h 1 v -1 h 0.999 1 H -1 l 1,-1 h 1 1 1 1 1 l 0.999,-1 h 1 H 8 v -1 -1 -1 H 6.999 v -1 h -1 H 5 4 3 2 1 v 1 H 0 v 1 h -1 v 1 l -6,-1 v -1 l 1,-1 v -1 l 1,-1 1,-1 h 0.999 l 1,-1 H -1 0 1 2 l 1,-1 h 1 1 l 0.999,1 h 1 1.001 1 1 1 v 1 h 1 l 1,1 1,1 v 1 1 l 0.999,1 v 1 1 7 1 1 1 1 1 1 h 1 v 1 H 9 V -2 -3 H 8 l -1.001,1 h -1 L 5,-1 H 4 3 2 L 1,0 Z m -1,-8 v 1 1 h 1 v 1 h 1 1 1 1 1 0.999 v -1 h 1 V -7 H 8 v -1 -1 -1 -1 -1 1 H 6.999 5.999 5 4 3 v 1 H 2 1 0 v 1 h -1 z"/>
    </g>
    <g
            transform="matrix(0.08870399,0,0,0.08901698,128.8767,80.976377)"
            id="g1028">
      <path
              id="path1030"
              style="fill:#1f1a17;fill-opacity:1;fill-rule:nonzero;stroke:none"
              d="m 0,0 -2.001,-1 h -1 H -4 -6 l -1,-1 -1,-1 h -1 l -1,-1 v -1 l -1.001,-1 v -1 l -1,-1 v -1 -1 -1 -1 -1 -1 -2 l 1,-1 v -1 L -10,-19 v -1 h 1 l 1,-1 1,-1 h 1 l 1,-1 h 1 0.999 1 l 1.001,-1 2,1 h 1 1 1 l 1,1 h 0.999 l 1,1 1.001,1 1,1 1,1 v 1 l 1,1 v 1 2 1 2 H -5 v 1 1 l 1,1 v 1 h 0.999 l 1,1 H -1 0 1 2 l 1,-1 1,-1 v -1 l 7,1 v 1 l -1,1 -1,1 -1,1 -1.001,1 h -1 L 5,-1 H 4 3 2 L 1,0 Z m -4,-17 -1,1 v 1 1 H 5 v -1 l -1,-1 v -1 L 3,-18 H 2 v -1 h -1 -1 -1 -1.001 -1 v 1 H -4 Z"/>
    </g>
    <g
            transform="matrix(0.08870399,0,0,0.08901698,-9.5068448,360.95865)"
            id="g1032">
      <path
              id="path1034"
              style="fill:#1f1a17;fill-opacity:1;fill-rule:nonzero;stroke:none"
              d="m 1577.06,-3176.269 h 5.999 v 30.001 h -5.999 z"/>
    </g>
    <g
            transform="matrix(0.08870399,0,0,0.08901698,132.51352,80.976377)"
            id="g1036">
      <path
              id="path1038"
              style="fill:#1f1a17;fill-opacity:1;fill-rule:nonzero;stroke:none"
              d="M 0,0 -2,-1 H -3 -5 -5.999 L -7,-2 -8,-3 h -1 l -1,-1 -1,-1 v -1 l -1,-1 v -1 -1 -1 l -1,-1 v -1 -1 l 1,-1 v -2 -1 l 1,-1 v -1 l 1,-1 h 1 l 1,-1 v -1 h 1 l 1.001,-1 H -5 h 2 1 l 1,-1 1,1 H 2 3.001 4 l 1,1 h 1 l 1,1 1,1 1,1 v 1 l 1,1 v 1 l 1,1 v 2 1 2 H -5.999 v 1 H -5 v 1 1 h 1 v 1 h 1 v 1 h 1 1 1 1 1 V -6 H 3.001 V -7 H 4 v -1 l 7,1 -1,1 v 1 H 9 v 1 H 8 v 1 H 7 v 1 H 6 L 5,-1 H 4 3.001 2 L 1,0 Z m -5,-17 v 1 l -0.999,1 v 1 H 4 v -1 -1 -1 H 3.001 v -1 H 2 v -1 H 1 0 -1 -2 -3 v 1 h -1 z"/>
    </g>
    <g
            transform="matrix(0.08870399,0,0,0.08901698,135.3521,80.887386)"
            id="g1040">
      <path
              id="path1042"
              style="fill:#1f1a17;fill-opacity:1;fill-rule:nonzero;stroke:none"
              d="m 0,0 -6,-10 -3,3 v 7 h -7 v -30.001 h 7 V -14 l 8,-8 h 8 l -9,8 10,14 z"/>
    </g>
    <g
            transform="matrix(0.08870399,0,0,0.08901698,136.94877,80.976377)"
            id="g1044">
      <path
              id="path1046"
              style="fill:#1f1a17;fill-opacity:1;fill-rule:nonzero;stroke:none"
              d="m 0,0 h -1 v -1 h -1 -1.001 -1 V -2 H -5 v -1 h -1 v -1 -1 -1 -1 -1 -1 -9 h -3 v -5 h 3 v -4 l 7,-4 v 8 h 3.999 v 5 H 1 v 9 1 1 1 l 1,1 h 1 1 v -1 h 0.999 l 1,5 h -1 H 4 3 2 L 1,0 Z"/>
    </g>
    <g
            transform="matrix(0.08870399,0,0,0.08901698,137.7471,80.887386)"
            id="g1048">
      <path
              id="path1050"
              style="fill:#1f1a17;fill-opacity:1;fill-rule:nonzero;stroke:none"
              d="m 0,0 v -22 h 7 v 3 -1.001 h 1 v -1 H 9 V -22 h 1 1 1 v -1 h 1 l 0.999,1 h 1 H 16 l 1,0.999 -2.001,5.001 -1,-1 H 13 12 11 10 9 v 1 H 8 v 1 1 l -1,1 v 0.999 1 1.001 1 1 1 7 z"/>
    </g>
    <g
            transform="matrix(0.08870399,0,0,0.08901698,140.40819,80.976377)"
            id="g1052">
      <path
              id="path1054"
              style="fill:#1f1a17;fill-opacity:1;fill-rule:nonzero;stroke:none"
              d="m 0,0 -1,-1 h -1 -1 -1 l -1,-1 h -1 l -1,-1 h -1 v -1 h -1 v -1 h -1 v -1 l -1,-1 v -1 -1 l -1,-1 v -1 -1 -1 -1 l 1,-1 v -1 -1 l 1,-1 v -1 h 1 v -1 h 1 v -1 h 1 l 1,-1 h 1 l 1,-1 h 1 1 1 l 1,-1 h 1 l 2,1 h 1 1 1 l 2,1 h 1 l 1,1 1,1 v 1 h 1 l 1,1 v 1 l 1,1 v 2 1 1 1 1 1 l -1,2 v 1 h -1 l -1,1 v 1 l -1,1 -1,1 H 7 L 6,-1 H 5 4 3 L 1,0 Z m -5,-14 v 1 1 1 1 1 l 1,1 v 1 h 1 l 1,1 h 1 v 1 h 1 1 1 1 l 1,-1 h 1 v -1 h 1 v -1 h 1 v -1 -1 -1 -1 -1 -1 -1 l -1,-1 v -1 H 5 v -1 H 4 L 3,-19 H 2 1 0 -1 v 1 h -1 l -1,1 h -1 v 1 1 h -1 z"/>
    </g>
    <g
            transform="matrix(0.08870399,0,0,0.08901698,142.71451,80.976377)"
            id="g1056">
      <path
              id="path1058"
              style="fill:#1f1a17;fill-opacity:1;fill-rule:nonzero;stroke:none"
              d="m 0,0 h -1 v -1 h -1 -1 -1 v -1 h -1 v -1 h -1 v -1 -1 -1 -1 -1 -1 -9 h -3 v -5 h 3 v -4 l 6,-4 v 8 h 5 v 5 H 0 v 9 1 l 1,1 v 1 1 h 1 1 l 1,-1 h 1 l 1,5 H 5 4 3 2 L 1,0 Z"/>
    </g>
    <g
            transform="matrix(0.08870399,0,0,0.08901698,144.48856,80.976377)"
            id="g1060">
      <path
              id="path1062"
              style="fill:#1f1a17;fill-opacity:1;fill-rule:nonzero;stroke:none"
              d="M 0,0 -2,-1 H -3 -4 -5.999 L -7,-2 -8,-3 h -1 l -1,-1 v -1 l -1,-1 v -1 l -1,-1 v -1 -1 -1 -1 -1 -1 -2 l 1,-1 v -1 l 1,-1 v -1 h 1 l 1,-1 1,-1 h 1.001 L -5,-23 h 1 1 1 l 1,-1 2,1 h 1 1 1 l 1,1 h 1 l 1,1 1,1 1,1 1,1 v 1 l 1,1 v 1 2 1 2 H -5 v 1 1 l 1,1 v 1 h 1 v 1 h 1 1 1 1 1 l 1,-1 1,-1 v -1 l 7,1 v 1 l -1,1 -1,1 -1,1 -1,1 H 6 L 5,-1 H 4 3 2 L 1,0 Z m -5,-16 v 1 1 H 5 v -1 l -1,-1 v -1 L 3,-18 H 2 v -1 H 1 0 -1 -2 -3 v 1 h -1 v 1 h -1 z"/>
    </g>
    <g
            transform="matrix(0.08870399,0,0,0.08901698,146.88357,80.976377)"
            id="g1064">
      <path
              id="path1066"
              style="fill:#1f1a17;fill-opacity:1;fill-rule:nonzero;stroke:none"
              d="m 0,0 -1,-1 h -1 -1 -2 l -1,-1 h -1 l -1,-1 v -1 h -1 l -1,-1 v -1 l -1,-1 v -1 l -1,-1 v -2 -1 -1 -2 l 1,-1 v -1 l 1,-1 v -1 l 1,-1 h 1 v -1 l 1,-1 h 1 l 1,-1 h 2 1 1 l 2,-1 1,1 h 1 1 1 1 l 1,1 h 1 l 1,1 1,1 1,1 v 1 1 l 1,1 -7,1 v -1 -1 H 4 v -1 H 3 v -1 H 2 1 0 -1 -2 v 1 h -1 v 1 h -1 v 1 1 h -1 v 1 1 1 1 1 l 1,1 v 1 1 h 1 v 1 h 1 l 1,1 h 1 1 1 l 1,-1 h 1 v -1 h 1 v -1 -1 h 1 l 6,1 v 1 h -1 v 1 1 l -1,1 -1,1 -1,1 H 7 L 6,-1 H 5 4 3 L 2,0 Z"/>
    </g>
    <g
            transform="matrix(0.08870399,0,0,0.08901698,149.81084,80.887386)"
            id="g1068">
      <path
              id="path1070"
              style="fill:#1f1a17;fill-opacity:1;fill-rule:nonzero;stroke:none"
              d="M 0,0 V -12.001 -13 v -1 -1 -1 l -1,-1 -1,-1 H -3.001 -4 -5 -6 -7 v 1 h -1 v 1 h -1 v 1 1 1 0.999 1 V 0 h -7 v -30.001 h 7 v 10 1.001 -1.001 l 1,-1 h 1 L -6,-22 h 1 1 0.999 L -2,-23 h 1 v 1 h 1 1 1 1 v 0.999 h 1 l 1,1 0.999,1.001 v 1 1 H 7 v 1 1 1 1 13 z"/>
    </g>
    <g
            transform="matrix(0.08870399,0,0,0.08901698,152.47192,80.887386)"
            id="g1072">
      <path
              id="path1074"
              style="fill:#1f1a17;fill-opacity:1;fill-rule:nonzero;stroke:none"
              d="m 0,0 v -11.001 -1 -0.999 -1 -1 -1 h -1 v -1 h -1 v -1 h -1 -1 -1 -1 -1 v 1 h -1 l -1,1 v 1 1 h -1 v 1 0.999 1 V -10 0 h -6 v -22 h 6 v 3 l 1,-1.001 h 1 v -1 L -6,-22 h 1 1 1 l 1,-1 h 1 v 1 h 1 1 1 1 v 0.999 h 1 l 1,1 V -19 h 1 v 1 1 1 l 1,1 v 1 14 z"/>
    </g>
    <g
            transform="matrix(0.08870399,0,0,0.08901698,-9.5068448,360.95865)"
            id="g1076">
      <path
              id="path1078"
              style="fill:#1f1a17;fill-opacity:1;fill-rule:nonzero;stroke:none"
              d="m 1839.06,-3168.268 h 6.999 v 22 h -6.999 z m 0,-8.001 h 6.999 v 5 h -6.999 z"/>
    </g>
    <g
            transform="matrix(0.08870399,0,0,0.08901698,155.84266,80.976377)"
            id="g1080">
      <path
              id="path1082"
              style="fill:#1f1a17;fill-opacity:1;fill-rule:nonzero;stroke:none"
              d="m 0,0 -2,-1 h -1 -1 -1 l -0.999,-1 h -1 L -8,-3 -9,-4 h -1 l -1,-1 v -1 l -1,-1 v -1 -1 l -1,-2 v -1 -1 l 1,-2 v -1 -1 l 1,-1 v -1 l 1,-1 h 1 l 1,-1 1.001,-1 h 1 L -5,-23 h 1 1 1 l 2,-1 1,1 h 1.001 1 H 4 5 6 v 1 h 1 l 1,1 1,1 1,1 v 1 l 1.001,1 v 1 L 4,-15 v -1 -1 l -0.999,-1 h -1 v -1 H 1 0 -1 -2 l -1,1 h -1 v 1 h -1 v 1 1 l -0.999,1 v 1 1 1 L -5,-10 v 1 1 1 h 1 v 1 h 1 1 v 1 h 1 1 1 1.001 v -1 h 1 L 4,-7 v -1 l 1,-1 6.001,1 v 1 L 10,-6 v 1 L 9,-4 8,-3 7,-2 H 6 l -1,1 h -1 -0.999 -1 L 1,0 Z"/>
    </g>
    <g
            transform="matrix(0.08870399,0,0,0.08901698,158.68123,80.887386)"
            id="g1084">
      <path
              id="path1086"
              style="fill:#1f1a17;fill-opacity:1;fill-rule:nonzero;stroke:none"
              d="m 0,0 -6,-10 -4,3 v 7 h -6 v -30.001 h 6 V -14 l 8,-8 h 8 l -8,8 9,14 z"/>
    </g>
    <g
            transform="matrix(0.08870399,0,0,0.08901698,160.1892,80.976377)"
            id="g1088">
      <path
              id="path1090"
              style="fill:#1f1a17;fill-opacity:1;fill-rule:nonzero;stroke:none"
              d="M 0,0 -1,-1 H -2 -3.001 -4 l -1,-1 -1,-1 -1,-1 v -1 l -1,-1 v -1 -1 l 1,-1 v -1 l 1,-1 1,-1 h 1 v -1 H -3.001 -2 -1 l 1,-1 h 1 1 1 1 1 v -1 H 5.999 7 8 v -1 -1 -1 H 7 v -1 H 5.999 5 4 3 2 1 v 1 H 0 v 1 h -1 v 1 l -6,-1 v -1 l 1,-1 v -1 l 1,-1 1,-1 h 0.999 L -2,-23 h 1 1 1 1 l 1,-1 h 1 1 l 0.999,1 H 7 h 1 1 1 1 v 1 h 1 l 1,1 1,1 v 1 1 l 0.999,1 v 1 1 7 1 1 1 1 1 1 H 16 v 1 H 9 V -2 -3 H 8 L 7,-2 H 5.999 L 5,-1 H 4 3 2 L 1,0 Z m -1,-8 v 1 1 h 1 v 1 H 1 2 3 4 5 5.999 V -6 H 7 v -1 h 1 v -1 -1 -1 -1 -1 1 H 7 5.999 5 4 3 v 1 H 2 1 0 v 1 h -1 z m 2,-18 3,-6 h 8 l -7,6 z"/>
    </g>
    <g
            transform="matrix(0.08870399,0,0,0.08901698,86.032655,85.160156)"
            id="g1092">
      <path
              id="path1094"
              style="fill:#1f1a17;fill-opacity:1;fill-rule:nonzero;stroke:none"
              d="m 0,0 h -1 -1 -2 -12 v -31 h 14 1 1 1 1 1 1 l 1,1 h 1 1 l 1,1 h 1 v 1 h 1 v 1 h 1 v 1 1 l 1,1 v 1 1 h -1 v 1 1 l -1,1 v 1 H 9 l -1,1 H 7 l 1,1 h 1 1 v 1 h 1 v 1 h 1 v 1 l 1,1 v 1 1 1 1 1 1 l -1,1 v 1 h -1 v 1 h -1 v 1 H 9 8 v 1 H 7 6 5 4 3 2 v 1 z m -9,-6 h 7 1 1 1 1 1 1 l 1,-1 h 1 v -1 -1 -1 -1 l -1,-1 v -1 H 4 3 2 v -1 H 1 0 -1 -2 -3 -9 Z m 0,-13 h 5 1 1 1 1 1 1 1 v -1 h 1 v -1 h 1 v -1 -1 -1 H 4 v -1 H 3 2 v -1 H 1 0 -1 -2 -3 -4 -5 -9 Z"/>
    </g>
    <g
            transform="matrix(0.08870399,0,0,0.08901698,88.959905,85.160156)"
            id="g1096">
      <path
              id="path1098"
              style="fill:#1f1a17;fill-opacity:1;fill-rule:nonzero;stroke:none"
              d="m 0,0 h -1 -1.001 -1 H -4 -5 -6 l -1,-1 h -1 -1 l -1,-1 h -1.001 l -1,-1 V -4 H -13 v -1 h -1 v -1 -1 h -1 v -1 -1 -1 -1 -1 -1 -1 -1 l 1,-1 v -1 l 1,-1 v -1 h 0.999 v -1 h 1 l 1.001,-1 1,-1 h 1 1 l 1,-1 h 1 1 0.999 1 H -1 0 2 l 1,1 h 1 l 1,1 0.999,1 h 1 l 1.001,1 1,1 v 1 l 1,1 v 1 l 1,1 v 1 1 2 1 l -1,1 v 1 l -1,1 v 1 l -1,1 -1.001,1 -1,1 H 5 L 4,-1 H 3 L 2,0 Z m -6,-17 -1,1 -1,1 v 1 1 1 1 1 1 1 l 1,1 v 1 h 1 l 1,1 h 1 0.999 1 H -1 0 1 v -1 h 1 l 1,-1 v -1 -1 h 1 v -1 -1 -1 -1 -1 H 3 v -1 -1 H 2 v -1 H 1 v -1 h -1 -1 -1.001 -1 H -4 -5 Z"/>
    </g>
    <g
            transform="matrix(0.08870399,0,0,0.08901698,90.113025,85.160156)"
            id="g1100">
      <path
              id="path1102"
              style="fill:#1f1a17;fill-opacity:1;fill-rule:nonzero;stroke:none"
              d="m 0,0 v -5 l 10,-9 v -1 l 1,-1 h 1 v -1 h 1 v -1 H 12 11 10 1 v -4 h 21 v 4 l -10,9 -3,4 h 1 1 v -1 h 1 1 10 v 6 z m 9,-25 -5,-6 h 5 l 3,3 2,-3 h 6 l -5,6 z"/>
    </g>
    <g
            transform="matrix(0.08870399,0,0,0.08901698,93.661235,85.160156)"
            id="g1104">
      <path
              id="path1106"
              style="fill:#1f1a17;fill-opacity:1;fill-rule:nonzero;stroke:none"
              d="m 0,0 h -1.001 -1 H -4 -5 -7 l -1,-1 h -1 l -1.001,-1 -1,-1 -1,-1 H -13 v -1 l -1,-1 v -1 -1 -1 l -1,-1 v -1 -2 l 1,-1 v -1 -1 l 1,-1 v -1 l 0.999,-1 1,-1 1,-1 1.001,-1 h 1 l 1,-1 h 2 1 0.999 1 H 0 1 l 1,1 h 1 l 1,1 1,1 h 0.999 l 1,1 v 1 l 1,1 v 1 L 9,-14 v 1 2 1 H -8 v 1 l 1,1 v 1 l 1,1 v 1 h 1 1 v 1 h 0.999 1 1 L 0,-5 h 1 v -1 h 1 v -1 l 7,1 H 7.999 v 1 l -1,1 -1,1 L 5,-2 4,-1 H 3 2 L 1,0 Z m -7,-16 v 1 l -1,1 v 1 H 2 v -1 -1 -1 l -1,-1 v -1 h -1 -1.001 -1 l -1,-1 v 1 H -4 -5 l -1,1 h -1 z"/>
    </g>
    <g
            transform="matrix(0.08870399,0,0,0.08901698,95.790065,85.160156)"
            id="g1108">
      <path
              id="path1110"
              style="fill:#1f1a17;fill-opacity:1;fill-rule:nonzero;stroke:none"
              d="M 0,0 H -1 -2 -3 -4 -5 -5.999 V -1 H -7 -8 v -1 l -1,-1 v -1 -1 -1 -1 -1 -10 h -3 v -4 h 3 v -5 l 6,-3 v 8 h 5 v 4 h -5 v 9 1 1 h 1 v 1 1 h 1 1 1 1 l 1.001,4 H 2 L 1,0 Z"/>
    </g>
    <g
            transform="matrix(0.08870399,0,0,0.08901698,97.564135,85.160156)"
            id="g1112">
      <path
              id="path1114"
              style="fill:#1f1a17;fill-opacity:1;fill-rule:nonzero;stroke:none"
              d="M 0,0 H -1 -2 -3 -5 -6 -6.999 L -9,-1 h -1 l -1,-1 -1,-1 -1,-1 -1,-1 v -1 l -1,-1 v -1 -1 -1 -1 -2 -1 -1 l 1,-1 v -1 l 1,-1 v -1 l 1,-1 1,-1 h 1 l 1,-1 h 1.001 l 1,-1 H -6 h 1 1 2 1 1 l 1.001,1 h 1 l 0.999,1 1,1 h 1 l 1,1 1,1 v 1 l 1,1 v 2 1 2 1 H -7.999 v 1 1 1 h 1 v 1 L -6,-5 h 1 v 1 h 1 1 1 l 1,-1 H 0 V -6 H 1.001 V -7 L 8,-6 7,-5 v 1 H 6 v 1 H 5 v 1 H 4 L 3,-1 H 2.001 l -1,1 z m -6.999,-17 -1,1 v 1 1 1 h 10 v -1 -1 h -1 v -1 -1 H 0 v -1 h -1 -1 -1 v -1 l -1,1 h -1 -1 z m 0,-8 -5.001,-6 h 6 l 2,3 3,-3 h 6 l -5,6 z"/>
    </g>
    <g
            transform="matrix(0.08870399,0,0,0.08901698,100.04793,85.160156)"
            id="g1116">
      <path
              id="path1118"
              style="fill:#1f1a17;fill-opacity:1;fill-rule:nonzero;stroke:none"
              d="m 0,0 h -1.001 -1 H -4 -5 -6 -7 l -2,-1 h -1.001 l -1,-1 h -1 V -3 L -13,-4 -14,-5 v -1 l -1,-1 v -1 l -1,-1 v -1 -1 -2 -1 l 1,-1 v -1 l 1,-1 v -1 l 1,-1 0.999,-1 v -1 h 1 l 1,-1 H -9 l 2,-1 h 1 1 1.999 1 1 H 0 1 l 1,1 h 1 l 1,1 h 1 v 1 h 0.999 v 1 l 1,1 v 1 l 1,1 L 1,-15 v -1 l -1,-1 v -1 h -1.001 -1 -1 H -4 -5 -6 -7 v 1 l -1,1 v 1 l -1,1 v 1 1 1 1 1 l 1,1 v 1 l 1,1 1,1 h 1 1 0.999 1 1 H 0 v -1 l 1,-1 v -1 l 1,-1 5.999,1 v 1 l -1,1 v 1 1 h -1 v 1 L 5,-2 H 4 L 3,-1 H 2 L 1,0 Z"/>
    </g>
    <g
            transform="matrix(0.08870399,0,0,0.08901698,102.62032,85.160156)"
            id="g1120">
      <path
              id="path1122"
              style="fill:#1f1a17;fill-opacity:1;fill-rule:nonzero;stroke:none"
              d="m 0,0 v -12 -1 -1 -1 -1 -1 h -1 v -1 h -1 -1 l -1,-1 -1,1 h -1 -1 l -1,1 -1,1 v 1 1 1 1 1 11 h -7 v -31 h 7 v 11 l 1,-1 1,-1 h 1 l 1,-1 h 1 1 1 1 1 1 l 1,1 h 1 1 v 1 h 1 v 1 h 1 v 1 1 l 1,1 v 1 1 1 1 13 z"/>
    </g>
    <g
            transform="matrix(0.08870399,0,0,0.08901698,105.10402,85.160156)"
            id="g1124">
      <path
              id="path1126"
              style="fill:#1f1a17;fill-opacity:1;fill-rule:nonzero;stroke:none"
              d="m 0,0 h -2 -1 -1 -1 -1 -1 l -1,-1 h -1 -1 v -1 h -1 -1 v -1 l -1,-1 -1,-1 -1,-1 v -1 l -1,-1 v -1 -1 -1 -1 -1 -1 -1 h 1 v -1 -1 h 1 v -1 l 1,-1 1,-1 1,-1 h 1 v -1 h 1 1 1 l 1,-1 h 1 1 1 1 2 1 l 1,1 h 1 l 2,1 1,1 1,1 1,1 1,1 v 1 l 1,1 v 1 1 1 2 1 1 l -1,1 v 1 L 8,-5 7,-4 6,-3 5,-2 H 4 L 3,-1 H 2 L 1,0 Z m -8,-15 -1,1 v 1 1 1 1 1 l 1,1 v 1 l 1,1 h 1 v 1 h 1 1 1 1 1 1 l 1,-1 1,-1 1,-1 v -1 -1 -1 -1 -1 -1 -1 L 2,-16 H 1 v -1 l -1,-1 h -1 -1 -1 -1 -1 -1 v 1 h -1 v 1 h -1 z"/>
    </g>
    <g
            transform="matrix(0.08870399,0,0,0.08901698,107.05547,85.160156)"
            id="g1128">
      <path
              id="path1130"
              style="fill:#1f1a17;fill-opacity:1;fill-rule:nonzero;stroke:none"
              d="m 0,0 -10,-22 h 7 l 5.001,11 1,4 V -8 H 4 v -1 -1 -1 h 1 l 4,-11 h 7 L 6,0 Z"/>
    </g>
    <g
            transform="matrix(0.08870399,0,0,0.08901698,110.24881,85.160156)"
            id="g1132">
      <path
              id="path1134"
              style="fill:#1f1a17;fill-opacity:1;fill-rule:nonzero;stroke:none"
              d="m 0,0 v -1 h -1 v -1 -1 l -1,1 h -1 v 1 h -1 -1 v 1 h -0.999 -1 -1.001 -1 -1 -1 -1 l -1,-1 h -1 l -0.999,-1 h -1 V -3 L -17,-4 v -1 -1 -1 -1 -1 l 1.001,-1 1,-1 0.999,-1 h 1 1 v -1 h 1 1 1 1 l 1.001,-1 h 1 0.999 1 1 l 1,-1 v -1 -1 -1 h -1 -1 -1 l -0.999,-1 h -1 v 1 H -8 -9 l -1,1 v 1 h -1 l -6,-1 h 1.001 v -1 -1 h 1 v -1 L -14,-21 h 1 l 1,-1 h 1 l 1,-1 h 1 1 1.001 1 0.999 1 1 1 1 l 1,1 h 1 1.001 v 1 h 1 L 4,-20 v 1 l 1,1 v 1 1 1 1 6 1 1 1 1 1 l 1,1 v 1 1 z m -11,-7 v 1 h 1 v 1 h 1 v 1 h 1 1.001 1 H -5 l 1,-1 h 1 v -1 h 1 v -1 -1 -1 -1 -1 h -1 l -1,1 h -1 -0.999 -1 H -8 v 1 h -1 -1 v 1 h -1 z"/>
    </g>
    <g
            transform="matrix(0.08870399,0,0,0.08901698,113.53086,85.160156)"
            id="g1136">
      <path
              id="path1138"
              style="fill:#1f1a17;fill-opacity:1;fill-rule:nonzero;stroke:none"
              d="m 0,0 h -1 -1 -1 -1 -1 -1 l -0.999,-1 h -1 L -9,-2 h -1 l -1,-1 v -1 h -1 v -1 l -1,-1 v -1 -1 l -1,-1 h 7.001 v 1 1 H -6 v 1 h 1 v 1 h 1 1 1 1 1 l 1.001,-1 h 1 V -7 -8 H 3 v -1 -1 -1 l -0.999,-1 v -1 h -1 v -1 H 0 -1 v -1 h -1 -1 v 1 h -1 -1 l 1,-5 h 1 1 1 v -1 h 1 v -1 h 1.001 v -1 -1 -1 -1 H 0 v -1 h -1 -1 -1 -1 -1 v 1 h -1 v 1 l -0.999,1 v 1 L -13,-23 v -1 -1 l 1,-1 v -1 h 1 v -1 h 1 v -1 h 1 v -1 h 1.001 1 H -6 v -1 h 1 1 1 1 1 1 1.001 l 1,1 H 3 l 1,1 h 1 l 1,1 1,1 v 1 l 1,1 v 1 1 1 1 l -1,1 -1,1 -1,1 -1,1 H 3 4 v 1 h 1 1 l 1,1 1,1 1,1 v 1 1 l 1.001,1 v 1 L 9,-8 v 1 1 l -1,1 v 1 L 7,-3 H 6 L 5,-2 4,-1 H 3 2.001 l -1,1 z"/>
    </g>
    <g
            transform="matrix(0.08870399,0,0,0.08901698,115.03883,85.694304)"
            id="g1140">
      <path
              id="path1142"
              style="fill:#1f1a17;fill-opacity:1;fill-rule:nonzero;stroke:none"
              d="m 0,0 h -1 l -2,-2.001 h 1 l 1,-1 H 0 V -4 h 1 v -1 -1 h -3 v -6.001 H 5 V -8 v 1 1 l -1,1 v 1 0.999 H 3.001 v 1 L 2.001,-1 H 1 v 1 z"/>
    </g>
    <g
            transform="matrix(0.08870399,0,0,0.08901698,117.61132,85.160156)"
            id="g1144">
      <path
              id="path1146"
              style="fill:#1f1a17;fill-opacity:1;fill-rule:nonzero;stroke:none"
              d="m 0,0 v -2 -2 -1 -2 l 1,-1 v -2 l 1,-2 v -1 l 1,-2 1,-1 1,-2 0.999,-2 1,-1 1,-1 1.001,-2 1,-1 H -5 v -5 h 23 v 4 h -1.001 l -1,1 v 1 l -1,1 -0.999,1 -1,1 v 1 l -1,1 -1,1 v 1 l -1,1 -1,1 v 2 l -1.001,1 v 1 l -1,1 v 2 1 1 l -1,1 v 1 1 2 1 z"/>
    </g>
    <g
            transform="matrix(0.08870399,0,0,0.08901698,120.00632,85.160156)"
            id="g1148">
      <path
              id="path1150"
              style="fill:#1f1a17;fill-opacity:1;fill-rule:nonzero;stroke:none"
              d="m 0,0 v -2 -2 -1 -2 l 1,-1 v -2 l 1,-2 1,-1 v -2 l 1,-1 1,-2 0.999,-2 1,-1 1,-1 1.001,-2 1,-1 H -5 v -5 h 23 v 4 h -1.001 l -1,1 v 1 l -1,1 -0.999,1 -1,1 v 1 l -1,1 -1,1 v 1 l -1,1 -1,1 v 2 l -1.001,1 v 1 1 l -1,2 v 1 1 l -1,1 v 1 1 2 1 z"/>
    </g>
    <g
            transform="matrix(0.08870399,0,0,0.08901698,121.86908,85.160156)"
            id="g1152">
      <path
              id="path1154"
              style="fill:#1f1a17;fill-opacity:1;fill-rule:nonzero;stroke:none"
              d="m 0,0 v -1 -1 l 1,-1 v -1 l 1,-1 v -1 l 1,-1 1,-1 v -1 h 1 l 1,-1 1,-1 2,-1 1,-2 h 1 l 1,-1 1,-1 1,-1 1,-1 v -1 h 1 v -1 h 1 v -1 -1 -1 -1 h -1 v -1 h -1 v -1 h -1 -1 -1 -1 -1 l -1,1 -1,1 v 1 1 1 l -7,-1 v -1 -1 l 1,-1 v -1 l 1,-1 v -1 h 1 l 1,-1 1,-1 h 1 1 l 1,-1 h 1 1 1 2 1 1 l 1,1 h 1 1 l 1,1 h 1 v 1 l 1,1 1,1 v 1 1 l 1,1 v 1 l -1,1 v 1 1 l -1,1 v 1 l -1,1 -1,1 v 1 h -1 l -1,1 -1,1 -1,1 -1,1 h -1 v 1 h -1 v 1 h -1 v 1 h -1 v 1 h -1 14 v 6 z"/>
    </g>
    <g
            transform="matrix(0.08870399,0,0,0.08901698,126.74779,85.160156)"
            id="g1156">
      <path
              id="path1158"
              style="fill:#1f1a17;fill-opacity:1;fill-rule:nonzero;stroke:none"
              d="m 0,0 h -1 -1 -1 -2 -1 l -1,-1 h -1 l -1,-1 v -1 h -1 l -1,-1 -1,-1 v -2 l -1,-1 v -2 -1 -2 -3 -2 -2 -1 -2 l 1,-1 1,-2 v -1 l 1,-1 1,-1 h 1 v -1 h 1 l 1,-1 h 2 1 1 1 1 1 l 1,1 h 1 l 1,1 h 1 l 1,1 1,1 v 1 l 1,2 v 1 l 1,2 v 2 1 3 2 2 1 l -1,2 v 1 l -1,2 v 1 L 6,-3 5,-2 H 4 L 3,-1 H 2 L 1,0 Z m -5,-24 -1,1 v 1 1 1 1 1 1 2 1 1 1 1 1 1 1 l 1,1 v 1 h 1 v 1 h 1 1 1 1 v -1 h 1 v -1 l 1,-1 v -1 -1 -1 -1 -1 -1 -1 -2 -1 -1 -1 -1 -1 -1 H 1 v -1 -1 H 0 v -1 h -1 -1 -1 -1 v 1 h -1 z"/>
    </g>
    <g
            transform="matrix(0.08870399,0,0,0.08901698,129.1428,85.160156)"
            id="g1160">
      <path
              id="path1162"
              style="fill:#1f1a17;fill-opacity:1;fill-rule:nonzero;stroke:none"
              d="m 0,0 h -1 -1 -1 -1 -2 l -1,-1 h -1 l -1,-1 v -1 h -1 l -1,-1 -1,-1 v -2 l -1,-1 v -2 -1 -2 -3 -2 -2 -1 l 1,-2 v -1 l 1,-2 v -1 l 1,-1 1,-1 h 1 l 1,-1 2,-1 h 1 1 1 1 1 1 l 2,1 1,1 h 1 l 1,1 1,1 v 1 l 1,2 v 1 l 1,2 v 2 1 3 2 2 1 l -1,2 v 1 l -1,2 v 1 L 6,-3 5,-2 H 4 L 3,-1 1,0 Z m -5,-24 -1,1 v 1 1 1 1 1 1 2 1 1 1 1 1 1 1 l 1,1 v 1 h 1 v 1 h 1 1 1 1 v -1 h 1 v -1 l 1,-1 v -1 -1 -1 -1 -1 -1 -1 -2 -1 -1 -1 -1 -1 -1 l -1,-1 v -1 H 0 v -1 h -1 -1 -1 -1 v 1 h -1 z"/>
    </g>
    <g
            transform="matrix(0.08870399,0,0,0.08901698,134.64245,85.160156)"
            id="g1164">
      <path
              id="path1166"
              style="fill:#1f1a17;fill-opacity:1;fill-rule:nonzero;stroke:none"
              d="m 0,0 h -2 -2 -2 -2 -2 l -1,-1 -2,-1 h -1 l -1,-1 -2,-1 -1,-1 -1,-1 v -2 l -1,-1 v -1 l -1,-2 v -2 -1 -2 -1 -1 -1 l 1,-1 v -1 l 1,-1 v -1 l 1,-1 v -1 h 1 v -1 h 1 v -1 h 1 v -1 h 1 l 1,-1 h 1 1 l 1,-1 h 1 1 1 1 1 1 2 1 2 l 2,1 h 1 l 2,1 1,1 1,1 1,1 1,1 1,1 1,2 v 1 2 l 1,2 v 1 2 l -1,2 v 1 2 l -1,1 -1,2 -1,1 -1,1 -1,1 -1,1 H 4 L 3,-1 1,0 Z m -12,-23 v 1 l -1,1 v 1 1 l -1,1 v 1 1 2 1 l 1,1 v 1 1 l 1,1 1,1 1,1 1,1 h 1 1 l 1,1 h 1 1 1 1 l 1,-1 h 1 1 v -1 h 1 l 1,-1 v -1 h 1 v -1 l 1,-1 v -1 -1 -1 -2 -1 -1 -1 -1 l -1,-1 v -1 l -1,-1 v -1 H 2 L 1,-25 H 0 l -1,-1 h -1 -1 -1 -1 -1 -1 l -1,1 h -1 -1 v 1 h -1 z"/>
    </g>
    <g
            transform="matrix(0.08870399,0,0,0.08901698,-9.5068448,360.95865)"
            id="g1168">
      <path
              id="path1170"
              style="fill:#1f1a17;fill-opacity:1;fill-rule:nonzero;stroke:none"
              d="m 1643.06,-3129.268 h 7 v 31 h -7 z"/>
    </g>
    <g
            transform="matrix(0.08870399,0,0,0.08901698,138.72283,85.160156)"
            id="g1172">
      <path
              id="path1174"
              style="fill:#1f1a17;fill-opacity:1;fill-rule:nonzero;stroke:none"
              d="m 0,0 h -1 -2 -1 -1 -1 -1 l -1,-1 h -1 l -1,-1 h -1 -1 v -1 l -1,-1 -1,-1 -1,-1 v -1 -1 l -1,-1 v -1 -1 -1 -1 -1 l 1,-1 v -1 -1 h 1 v -1 l 1,-1 1,-1 1,-1 h 1 v -1 h 1 1 1 l 1,-1 h 1 1 1 2 1 1 l 1,1 h 2 l 1,1 1,1 h 1 v 1 l 1,1 1,1 v 1 l 1,1 v 1 1 1 2 1 1 l -1,1 v 1 l -1,1 -1,1 v 1 L 6,-2 H 5 L 4,-1 H 2 L 1,0 Z m -8,-15 -1,1 v 1 1 1 1 1 l 1,1 v 1 l 1,1 h 1 v 1 h 1 1 1 1 1 1 l 1,-1 h 1 v -1 l 1,-1 v -1 -1 -1 -1 -1 -1 -1 l -1,-1 -1,-1 -1,-1 h -1 -1 -1 -1 -1 -1 v 1 h -1 v 1 h -1 z"/>
    </g>
    <g
            transform="matrix(0.08870399,0,0,0.08901698,142.71451,85.160156)"
            id="g1176">
      <path
              id="path1178"
              style="fill:#1f1a17;fill-opacity:1;fill-rule:nonzero;stroke:none"
              d="m 0,0 v -13 -1 -1 -1 -1 -1 h -1 -1 -1 v -1 l -1,1 h -1 -1 v 1 h -1 v 1 h -1 v 1 1 1 1 1 11 h -7 v -13 -1 -1 -1 -1 h -1 v -1 h -1 -1 v -1 h -1 v 1 h -1 -1 l -1,1 v 1 h -1 v 1 1 1 1 1 11 h -7 v -22 h 6 v 3 l 1,-1 1,-1 1,-1 h 1 1 l 1,-1 h 1 1 1 1 1 v 1 h 1 1 v 1 h 1 l 1,1 v 1 l 1,-1 v -1 h 1 l 1,-1 h 1 1 v -1 h 1 1 1 1 1 1 l 1,1 h 1 v 1 h 1 l 1,1 v 1 h 1 v 1 1 1 1 15 z"/>
    </g>
    <g
            transform="matrix(0.08870399,0,0,0.08901698,145.19821,85.160156)"
            id="g1180">
      <path
              id="path1182"
              style="fill:#1f1a17;fill-opacity:1;fill-rule:nonzero;stroke:none"
              d="m 0,0 h -1 -2 -1 -1 -1 -1 l -1,-1 h -1 l -1,-1 h -1 l -1,-1 -1,-1 -1,-1 v -1 l -1,-1 v -1 l -1,-1 v -1 -1 -1 -1 -1 l 1,-1 v -1 l 1,-1 v -1 l 1,-1 1,-1 1,-1 h 1 l 1,-1 h 1 1 l 1,-1 h 1 1 1 2 1 1 l 1,1 h 2 l 1,1 1,1 h 1 l 1,1 v 1 l 1,1 v 1 l 1,1 v 1 1 1 2 1 1 l -1,1 v 1 l -1,1 -1,1 v 1 L 6,-2 H 5 L 4,-1 H 2 L 1,0 Z m -9,-13 v 1 1 1 1 h 1 v 1 1 l 1,1 h 1 v 1 h 1 1 1 1 1 1 l 1,-1 h 1 v -1 l 1,-1 v -1 -1 -1 -1 -1 -1 -1 l -1,-1 -1,-1 -1,-1 h -1 -1 -1 -1 -1 -1 v 1 h -1 v 1 h -1 v 1 1 h -1 z"/>
    </g>
    <g
            transform="matrix(0.08870399,0,0,0.08901698,148.03677,85.160156)"
            id="g1184">
      <path
              id="path1186"
              style="fill:#1f1a17;fill-opacity:1;fill-rule:nonzero;stroke:none"
              d="m 0,0 v -3 -1 1 h -1.001 v 1 h -1 v 1 h -1 H -4 l -1,1 h -1 -1 -1 -1 -1.001 -1 -1 V -1 H -13 -14 v -1 h -1 v -1 l -1,-1 v -1 -1 l -1,-1 v -1 -1 -13 h 6.999 v 10 1 1 1 1 1 L -9,-6 v 1 h 1 1 v 1 h 1 1 1 v -1 h 0.999 1 v -1 h 1 V -7 -8 L 0,-9 v -1 -1 -1 -1 -9 H 5.999 V 0 Z"/>
    </g>
    <g
            transform="matrix(0.08870399,0,0,0.08901698,150.43177,85.160156)"
            id="g1188">
      <path
              id="path1190"
              style="fill:#1f1a17;fill-opacity:1;fill-rule:nonzero;stroke:none"
              d="m 0,0 h -1.001 -1 -1 H -4 -6 -7 l -1,-1 h -1 l -1.001,-1 h -1 l -1,-1 L -13,-4 v -1 l -1,-1 v -1 l -1,-1 v -1 -1 -1 -2 -1 -1 l 1,-1 v -1 l 1,-1 v -1 l 0.999,-1 1,-1 h 1 L -9,-22 h 1 l 1,-1 h 1 2 0.999 1 1 H 0 1 l 1,1 h 1 1 v 1 h 1 l 0.999,1 1,1 v 1 h 1 v 1 1 L 2,-15 v -1 H 1 v -1 l -1,-1 h -1.001 -1 -1 H -4 -5 -6 v 1 h -1 v 1 l -1,1 v 1 1 1 1 1 1 1 l 1,1 v 1 h 1 l 1,1 h 1 0.999 1 1 H 0 v -1 h 1 v -1 h 1 v -1 -1 l 7,1 -1.001,1 v 1 1 l -1,1 -1,1 L 5,-2 4,-1 H 3 2 L 1,0 Z"/>
    </g>
    <g
            transform="matrix(0.08870399,0,0,0.08901698,18.883735,88.275769)"
            id="g1192">
      <path
              id="path1194"
              style="fill:#008fe0;fill-opacity:1;fill-rule:nonzero;stroke:none"
              d="m 0,0 v -15 h 1790 v 7 8 z"/>
    </g>
  </g>
</svg>
