<?xml version="1.0" encoding="UTF-8" standalone="no"?>
<!-- Created with Inkscape (http://www.inkscape.org/) -->

<svg
   xmlns:dc="http://purl.org/dc/elements/1.1/"
   xmlns:cc="http://creativecommons.org/ns#"
   xmlns:rdf="http://www.w3.org/1999/02/22-rdf-syntax-ns#"
   xmlns:svg="http://www.w3.org/2000/svg"
   xmlns="http://www.w3.org/2000/svg"
   xmlns:sodipodi="http://sodipodi.sourceforge.net/DTD/sodipodi-0.dtd"
   xmlns:inkscape="http://www.inkscape.org/namespaces/inkscape"
   width="297mm"
   height="210mm"
   viewBox="0 0 297 210"
   version="1.1"
   id="svg8"
   inkscape:version="0.92.3 (2405546, 2018-03-11)"
   sodipodi:docname="LogoSkoly.svg">
  <defs
     id="defs2" />
  <sodipodi:namedview
     id="base"
     pagecolor="#ffffff"
     bordercolor="#666666"
     borderopacity="1.0"
     inkscape:pageopacity="0.0"
     inkscape:pageshadow="2"
     inkscape:zoom="0.82524802"
     inkscape:cx="561.55115"
     inkscape:cy="396.90271"
     inkscape:document-units="mm"
     inkscape:current-layer="layer1"
     showgrid="false"
     inkscape:window-width="1600"
     inkscape:window-height="837"
     inkscape:window-x="-8"
     inkscape:window-y="-8"
     inkscape:window-maximized="1" />
  <metadata
     id="metadata5">
    <rdf:RDF>
      <cc:Work
         rdf:about="">
        <dc:format>image/svg+xml</dc:format>
        <dc:type
           rdf:resource="http://purl.org/dc/dcmitype/StillImage" />
        <dc:title />
      </cc:Work>
    </rdf:RDF>
  </metadata>
  <g
     inkscape:label="Vrstva 1"
     inkscape:groupmode="layer"
     id="layer1"
     transform="translate(0,-87)">
    <path
       inkscape:connector-curvature="0"
       id="path10"
       d="m -0.2096007,171.0701 -2e-7,-16.29203 47.3722159,0.0164 c 31.911993,0.0111 47.398186,0.038 47.451798,0.0825 0.04675,0.0388 0.09874,0.34083 0.12602,0.73228 0.02555,0.36643 0.143403,1.16427 0.261903,1.77298 1.483646,7.62118 6.810764,13.79177 15.783534,18.28257 6.1892,3.09766 13.64859,5.26341 22.01001,6.39035 3.50607,0.47255 5.99453,0.66511 9.37484,0.72546 1.88997,0.0337 2.3591,0.0196 4.39445,-0.13255 10.30928,-0.77063 18.34036,-2.35279 25.7157,-5.06609 1.73414,-0.63797 3.67832,-1.47712 3.67832,-1.58764 0,-0.0744 -0.26386,-0.0903 -1.49604,-0.0903 h -1.49604 l -0.66864,0.29907 c -4.61052,2.06221 -10.61992,3.60084 -16.74908,4.2884 -3.53776,0.39686 -4.62035,0.45064 -9.11442,0.45279 -3.76547,0.002 -4.33269,-0.012 -5.89183,-0.14352 -3.43712,-0.2899 -5.7824,-0.58532 -8.39829,-1.05787 -8.93409,-1.61392 -16.2831,-4.56824 -22.10247,-8.88524 -4.99739,-3.70721 -8.63911,-8.46522 -9.95518,-13.00672 -0.245635,-0.84765 -0.482355,-2.04244 -0.505615,-2.55202 l -0.0208,-0.45572 11.848755,8.2e-4 c 12.87743,8.8e-4 12.40792,-0.0109 14.35522,0.36047 3.9369,0.75081 6.62759,2.72442 8.16127,5.98626 0.428,0.91027 0.65545,1.61165 0.94333,2.90881 0.38149,1.71902 0.4932,2.83962 0.49205,4.9361 -0.001,2.03382 -0.0578,2.78121 -0.45633,6.01345 -0.16185,1.31274 -0.28341,2.56005 -0.27284,2.79943 l 0.0191,0.43175 1.77497,0.0173 1.77498,0.0173 0.0638,-0.14753 c 0.16266,-0.3762 2.76747,-11.86256 7.03142,-31.00637 4.55024,-20.42912 6.35627,-28.40063 6.4604,-28.51512 0.036,-0.0396 0.0437,0.0242 0.0196,0.16276 -0.18309,1.05262 -0.28717,6.11762 -0.17162,8.35238 0.34299,6.63393 1.88015,12.13235 4.55386,16.28911 3.06226,4.76084 7.74996,7.74993 13.6808,8.7235 2.12685,0.34913 2.42652,0.35837 11.61428,0.35837 h 8.50578 l 0.0674,0.17733 c 0.0392,0.10313 0.072,0.89989 0.0784,1.90426 0.009,1.43496 -0.009,1.82323 -0.10549,2.29647 -0.0641,0.31324 -0.0984,0.59888 -0.0762,0.63476 0.0256,0.0415 0.84359,0.0652 2.24767,0.0652 2.09026,0 2.21084,-0.006 2.27259,-0.12185 0.0359,-0.067 0.14312,-0.48449 0.23836,-0.92771 0.15264,-0.71039 0.17684,-0.99348 0.20424,-2.38925 0.0217,-1.10511 0.0536,-1.5919 0.10571,-1.61157 0.0411,-0.0155 22.96242,-0.0354 50.93637,-0.0442 l 50.86174,-0.016 v 17.43134 17.43133 h -148.5 -148.5000006 z m 214.3842607,5.85544 0.0326,-3.69843 0.24133,0.31307 c 0.55541,0.72054 0.99762,1.09897 1.59243,1.36279 0.68315,0.30299 1.77886,0.27839 2.49559,-0.056 0.34355,-0.1603 1.01172,-0.67295 1.2896,-0.98942 0.47134,-0.53683 1.06543,-1.5862 1.33354,-2.35546 0.14895,-0.42738 0.19785,-0.61747 0.40839,-1.58753 0.29535,-1.36077 0.2903,-4.7667 -0.009,-6.18478 -0.50539,-2.39329 -1.58506,-4.10059 -3.02238,-4.77938 -0.40734,-0.19236 -0.45628,-0.19986 -1.30805,-0.20042 l -0.88488,-5.9e-4 -0.48629,0.24683 c -0.26746,0.13576 -0.6361,0.38478 -0.8192,0.55338 -0.33515,0.30862 -0.92859,1.03186 -0.92859,1.13171 0,0.0296 -0.0284,0.0537 -0.0632,0.0537 -0.0366,0 -0.0708,-0.34965 -0.0814,-0.83006 l -0.0182,-0.83006 h -1.39971 -1.39972 l -0.0167,10.70944 c -0.009,5.8902 -0.003,10.74663 0.0147,10.79206 0.0244,0.0641 0.36322,0.0787 1.51408,0.0651 l 1.48267,-0.0175 0.0326,-3.69843 z m 1.98565,-5.3443 c -0.14323,-0.0453 -0.3483,-0.12877 -0.45572,-0.1855 -0.39673,-0.20951 -0.96794,-1.06652 -1.16084,-1.74163 -0.31087,-1.088 -0.33349,-1.28596 -0.33478,-2.92963 -0.001,-1.46372 0.0113,-1.64326 0.15095,-2.18096 0.45947,-1.7688 1.43252,-2.6735 2.48039,-2.30615 0.40632,0.14244 0.70327,0.40198 1.01814,0.88987 0.28208,0.43706 0.37204,0.65642 0.55864,1.36213 0.14233,0.53828 0.15202,0.69339 0.15183,2.43041 0,1.73556 -0.0101,1.8933 -0.15274,2.44137 -0.32272,1.23957 -0.86315,1.99688 -1.57607,2.20859 -0.3984,0.11831 -0.34492,0.11741 -0.6798,0.0115 z m -10.64435,3.37874 c 1.50966,-0.34362 2.64451,-1.50066 3.22465,-3.28767 0.16117,-0.49645 0.18266,-0.67154 0.20892,-1.70184 0.0261,-1.0248 0.0141,-1.20705 -0.11145,-1.69267 -0.2176,-0.84154 -0.4812,-1.32277 -1.01703,-1.85676 -0.7481,-0.74553 -1.43267,-1.0929 -3.76991,-1.91298 -0.91765,-0.32198 -1.56884,-0.637 -1.77561,-0.85896 -0.46776,-0.50217 -0.23479,-1.31891 0.4584,-1.60698 0.18421,-0.0766 0.5427,-0.15676 0.79665,-0.17822 1.07031,-0.0905 1.78297,0.40084 2.08414,1.43682 0.0916,0.31498 0.1274,0.36391 0.26652,0.36391 0.2883,0 2.59444,-0.64686 2.66958,-0.7488 0.0902,-0.12243 -0.15433,-1.09339 -0.4267,-1.69409 -0.82628,-1.82232 -2.00947,-2.50494 -4.34186,-2.50494 -1.36265,0 -2.12689,0.21252 -2.96698,0.82504 -0.35427,0.25831 -0.8286,0.86373 -1.10375,1.40879 -0.7481,1.48199 -0.74006,3.8425 0.0179,5.24251 0.25137,0.46433 0.72194,1.00398 1.10103,1.26268 0.69767,0.4761 1.99962,1.05122 3.43068,1.51547 1.06525,0.34556 1.37947,0.52344 1.5314,0.8669 0.17817,0.40278 0.13636,0.92487 -0.10738,1.34077 -0.47314,0.80736 -2.10587,1.00453 -2.9327,0.35414 -0.29948,-0.23557 -0.62263,-0.82247 -0.76104,-1.38221 -0.072,-0.29113 -0.15541,-0.55456 -0.18537,-0.5854 -0.0303,-0.0312 -0.6965,0.0845 -1.50023,0.26042 -1.18934,0.26034 -1.45396,0.33841 -1.49192,0.44015 -0.0587,0.15734 0.19172,1.12855 0.45259,1.75519 0.31369,0.75351 0.80036,1.45106 1.38994,1.99222 0.52097,0.47819 1.47975,0.91409 2.29,1.04114 0.5635,0.0884 1.99766,0.0356 2.56956,-0.0946 z m 23.41391,0.0967 c 1.37661,-0.17261 2.35846,-0.78756 3.10753,-1.94629 0.67081,-1.03765 0.91335,-1.91891 0.91545,-3.3261 10e-4,-0.79277 -0.0236,-1.03786 -0.15465,-1.52992 -0.0858,-0.32226 -0.20993,-0.70772 -0.27575,-0.85658 -0.44604,-1.00864 -1.79002,-1.97296 -3.5694,-2.56107 -0.84204,-0.27831 -2.19921,-0.81703 -2.45823,-0.97578 -0.60315,-0.36967 -0.64369,-1.27106 -0.0749,-1.66524 0.67869,-0.47034 1.965,-0.46396 2.5313,0.0126 0.25298,0.21287 0.5269,0.67774 0.62347,1.0581 0.10738,0.42289 0.18708,0.45088 0.82388,0.28936 1.3933,-0.3534 2.10679,-0.56236 2.15295,-0.63051 0.0569,-0.0841 0.0474,-0.14201 -0.13444,-0.82307 -0.25968,-0.97231 -0.87827,-2.02423 -1.46797,-2.49626 -0.76924,-0.61575 -1.4485,-0.82121 -2.87497,-0.86962 -1.29351,-0.0439 -1.90563,0.0551 -2.67612,0.43264 -0.8971,0.43961 -1.59956,1.31267 -1.99343,2.47752 -0.20672,0.61138 -0.20914,0.63304 -0.21115,1.88799 -0.002,1.15004 0.0123,1.31545 0.14977,1.75778 0.16603,0.53409 0.47283,1.12822 0.78608,1.52229 0.59378,0.74697 1.6901,1.32519 4.10267,2.1638 1.11723,0.38835 1.38724,0.53981 1.54256,0.86527 0.16679,0.34948 0.0956,1.02009 -0.1466,1.3807 -0.55935,0.83285 -2.13231,0.94613 -2.94848,0.21232 -0.17469,-0.15706 -0.3745,-0.39533 -0.44402,-0.52948 -0.14145,-0.27296 -0.40733,-1.06535 -0.40733,-1.21394 0,-0.0531 -0.0296,-0.11478 -0.0658,-0.13715 -0.0551,-0.034 -1.17737,0.18554 -2.57087,0.50303 -0.47815,0.10895 -0.49157,0.14482 -0.31785,0.84956 0.48305,1.95957 1.6623,3.41299 3.18351,3.92364 0.82059,0.27546 1.83434,0.35468 2.87278,0.22446 z m 12.00214,-0.0994 c 1.46102,-0.44678 2.52222,-1.64581 3.15916,-3.56947 0.24209,-0.73115 0.27404,-0.96568 0.14482,-1.06289 -0.11397,-0.0857 -2.68265,-0.68732 -2.8197,-0.66038 -0.13659,0.0269 -0.18606,0.12119 -0.28476,0.5429 -0.098,0.41886 -0.36269,0.99874 -0.54508,1.19427 -0.21562,0.23117 -0.63234,0.42134 -0.92395,0.42164 -0.76844,7.8e-4 -1.4637,-0.6812 -1.8216,-1.78681 -0.17267,-0.53337 -0.33313,-1.7368 -0.24353,-1.8264 0.0288,-0.0288 1.60378,-0.0599 3.50007,-0.0691 l 3.44779,-0.0169 -0.0176,-1.30862 c -0.01,-0.71974 -0.0463,-1.50342 -0.0814,-1.74151 -0.0351,-0.23808 -0.0926,-0.62924 -0.12792,-0.86924 -0.2924,-1.98832 -1.17387,-3.73894 -2.34464,-4.65653 -0.42814,-0.33556 -1.0111,-0.61665 -1.52992,-0.73772 -0.62564,-0.14598 -1.86573,-0.10029 -2.38745,0.088 -0.78219,0.28227 -1.54488,0.92604 -2.13712,1.8039 -0.70243,1.04118 -1.00684,1.87232 -1.38299,3.77597 -0.10603,0.53662 -0.10707,4.4828 -0.001,5.01293 0.40742,2.04235 0.80312,3.04692 1.57109,3.98848 0.66209,0.81175 1.46325,1.33878 2.28703,1.50451 0.19694,0.0396 0.41666,0.0856 0.48828,0.10214 0.28646,0.0662 1.70379,-0.0231 2.05074,-0.12915 z m -3.29845,-9.57199 c -0.11228,-0.29259 0.0792,-1.33099 0.38324,-2.07877 0.26203,-0.64434 0.98686,-1.26951 1.47189,-1.26951 1.00049,0 1.88104,1.30438 1.91779,2.84083 l 0.0138,0.57708 -1.87337,0.0173 c -1.66747,0.0154 -1.87777,0.006 -1.91335,-0.0869 z m 14.76243,9.66699 c 1.12614,-0.17472 2.28931,-0.93806 3.0416,-1.99606 0.81441,-1.14536 1.40822,-2.6234 1.57608,-3.92298 0.0393,-0.30436 0.10116,-0.69986 0.13743,-0.87889 0.0959,-0.47351 0.0354,-2.60046 -0.10009,-3.51557 -0.27741,-1.87392 -1.19814,-3.77206 -2.34475,-4.8339 -0.203,-0.18798 -0.38693,-0.34179 -0.40874,-0.34179 -0.0218,0 -0.13801,-0.075 -0.25822,-0.16671 -1.04392,-0.79623 -3.20116,-0.9169 -4.52373,-0.25304 -0.70953,0.35615 -1.56379,1.11363 -2.05193,1.81947 -0.65301,0.94424 -1.30088,2.86131 -1.4631,4.32935 -0.12456,1.12724 -0.0754,2.90652 0.11242,4.06894 0.26421,1.63522 0.96192,3.20696 1.84514,4.15659 1.13249,1.21766 2.78892,1.79044 4.43789,1.53459 z m -1.27673,-3.59714 c -0.84567,-0.27735 -1.44289,-1.09902 -1.83777,-2.52847 -0.094,-0.34028 -0.11381,-0.68929 -0.11387,-2.00694 0,-1.46039 0.0126,-1.64173 0.14958,-2.14839 0.47827,-1.7684 1.49727,-2.72186 2.60155,-2.43424 0.74819,0.19488 1.32648,0.81007 1.70005,1.80851 0.67363,1.80045 0.49729,4.93057 -0.35295,6.26514 -0.57551,0.90335 -1.38128,1.29538 -2.14659,1.04439 z m 25.45065,3.50611 c 0.86989,-0.23216 1.77594,-0.88353 2.34342,-1.68471 0.54646,-0.77151 1.13346,-2.26876 1.25066,-3.19001 0.0234,-0.18415 0.069,-0.38608 0.10126,-0.44874 0.1395,-0.27091 -0.0122,-0.34261 -1.47197,-0.69593 -0.77032,-0.18644 -1.4283,-0.32185 -1.46217,-0.30092 -0.0339,0.0209 -0.0799,0.13295 -0.10234,0.24891 -0.23603,1.22135 -0.51101,1.8939 -0.92238,2.256 -0.6636,0.58412 -1.54823,0.50893 -2.21795,-0.18851 -0.7099,-0.73931 -0.99554,-1.96582 -0.99554,-4.27493 0,-1.80243 0.20458,-2.89637 0.67874,-3.62941 0.27569,-0.4262 0.45329,-0.58628 0.84049,-0.75756 0.58844,-0.26029 1.20177,-0.16554 1.6857,0.26044 0.4099,0.3608 0.58984,0.76564 0.80388,1.80856 0.0426,0.20764 0.18382,0.19357 1.54898,-0.15433 1.50118,-0.38257 1.47334,-0.37143 1.47334,-0.58978 0,-0.36407 -0.41007,-1.63945 -0.75009,-2.33292 -0.57771,-1.17823 -1.35213,-1.93073 -2.38366,-2.3162 -0.48297,-0.18048 -0.64553,-0.2074 -1.437,-0.23799 -1.0063,-0.0389 -1.44391,0.0235 -2.13353,0.30414 -0.42114,0.17139 -1.13507,0.67027 -1.49448,1.04432 -0.66898,0.69624 -1.40453,2.12687 -1.6413,3.19229 -0.24931,1.12183 -0.39583,2.47172 -0.39571,3.64576 0,1.05906 0.18029,2.88111 0.33802,3.41791 0.62401,2.12378 1.13835,2.99564 2.32646,3.94357 0.47998,0.38295 0.92438,0.58932 1.61436,0.74965 0.49383,0.11476 1.86035,0.0752 2.40281,-0.0696 z m -124.67239,-0.34308 c 0.0194,-0.0627 0.0782,-0.36295 0.13072,-0.66731 0.0525,-0.30435 0.17354,-0.97817 0.26894,-1.49737 0.0954,-0.51919 0.22702,-1.2516 0.29253,-1.62757 0.12351,-0.70894 0.3723,-2.07229 0.59402,-3.25515 0.0705,-0.37597 0.18018,-0.97655 0.2438,-1.33462 0.0636,-0.35806 0.13255,-0.60708 0.15321,-0.55337 0.0567,0.14737 0.11192,0.43036 0.53381,2.73432 0.0951,0.5192 0.22691,1.23696 0.29297,1.59503 0.12455,0.67516 0.37433,2.03932 0.59007,3.2226 0.0686,0.37597 0.16215,0.85936 0.20801,1.0742 l 0.0834,0.39062 1.44937,0.0175 1.44937,0.0175 0.0627,-0.14772 c 0.0345,-0.0813 0.10692,-0.36746 0.16091,-0.63601 0.11481,-0.5711 0.35259,-1.66316 0.55282,-2.53902 0.0778,-0.34016 0.19514,-0.86749 0.26082,-1.17185 0.0657,-0.30436 0.19855,-0.90493 0.29523,-1.33461 0.0967,-0.42968 0.22918,-1.03026 0.2944,-1.33461 0.0652,-0.30436 0.19707,-0.90494 0.29297,-1.33462 0.0959,-0.42968 0.2288,-1.03025 0.29532,-1.33461 0.30275,-1.38499 0.47258,-2.15952 0.59241,-2.70177 0.0712,-0.32226 0.17197,-0.79101 0.22391,-1.04165 0.12007,-0.57943 0.28531,-1.27327 0.33334,-1.39972 0.0378,-0.0994 0.0849,0.0817 0.38107,1.46482 0.2343,1.09408 0.3831,1.78391 0.54771,2.53902 0.0781,0.35806 0.21119,0.97329 0.29588,1.36716 0.0847,0.39388 0.21464,0.9798 0.28881,1.30206 0.0742,0.32226 0.20579,0.92284 0.29249,1.33461 0.0867,0.41178 0.2148,1.01236 0.28465,1.33462 0.13524,0.6239 0.39985,1.8566 0.59395,2.76687 0.0649,0.30436 0.19732,0.90494 0.29426,1.33462 0.097,0.42968 0.21034,0.94236 0.25199,1.1393 l 0.0757,0.35807 h 1.49737 1.49737 l 0.1147,-0.61848 c 0.0631,-0.34017 0.17467,-0.94074 0.24796,-1.33461 0.13099,-0.70393 0.32575,-1.77562 0.57972,-3.19005 0.0707,-0.39388 0.18561,-1.02375 0.2553,-1.39972 0.0697,-0.37597 0.18796,-1.03514 0.26282,-1.46482 0.17353,-0.996 0.19741,-1.09812 0.24555,-1.04998 0.0218,0.0218 0.10986,0.4427 0.19577,0.9354 0.0859,0.4927 0.21132,1.18878 0.2787,1.54685 0.0674,0.35807 0.18047,0.95864 0.25131,1.33461 0.0708,0.37597 0.20287,1.09373 0.29338,1.59503 0.0905,0.50129 0.22479,1.2337 0.29841,1.62757 0.0736,0.39388 0.18591,1.0091 0.24955,1.36717 l 0.11569,0.65103 h 1.49356 1.49356 l 0.0519,-0.29297 c 0.0285,-0.16113 0.0847,-0.41015 0.1249,-0.55337 0.0705,-0.25149 0.14633,-0.60302 0.44033,-2.04247 0.0759,-0.37142 0.15159,-0.69741 0.16827,-0.72441 0.0167,-0.027 0.0924,-0.35299 0.16828,-0.72441 0.0759,-0.37142 0.19323,-0.92433 0.26082,-1.22868 0.0676,-0.30436 0.19659,-0.89029 0.28667,-1.30206 0.0901,-0.41178 0.22197,-1.01235 0.2931,-1.33461 0.0711,-0.32226 0.19907,-0.90819 0.2843,-1.30207 0.0852,-0.39387 0.22055,-0.99444 0.3007,-1.33461 0.14885,-0.63169 0.27772,-1.22214 0.51866,-2.37626 0.0747,-0.35806 0.16275,-0.73892 0.19555,-0.84634 0.0328,-0.10742 0.0946,-0.37108 0.1374,-0.58592 0.0701,-0.35223 0.0839,-0.37463 0.14009,-0.22786 0.0343,0.0895 0.13109,0.49966 0.21515,0.91144 0.0841,0.41177 0.2164,1.04165 0.29409,1.39971 0.0777,0.35807 0.20954,0.97329 0.29301,1.36717 0.17905,0.84497 0.34338,1.59804 0.58245,2.66922 0.0959,0.42968 0.22727,1.03026 0.29193,1.33461 0.38485,1.8116 0.68971,3.21575 1.13785,5.2408 0.0951,0.42968 0.21464,0.98631 0.26568,1.23695 0.051,0.25065 0.1087,0.52164 0.12814,0.60221 l 0.0353,0.14648 h 1.45973 c 1.0741,0 1.47264,-0.0209 1.50856,-0.079 0.0515,-0.0833 0.0864,-0.2496 0.2839,-1.35327 0.0673,-0.37597 0.19756,-1.09373 0.2895,-1.59502 0.0919,-0.5013 0.22347,-1.23371 0.29232,-1.62758 0.0688,-0.39387 0.14135,-0.76008 0.1611,-0.81379 0.0198,-0.0537 0.0951,-0.46386 0.16753,-0.91144 0.0724,-0.44758 0.19223,-1.13605 0.26631,-1.52992 0.0741,-0.39387 0.15054,-0.81135 0.16991,-0.92772 0.0592,-0.35557 0.12918,-0.23959 0.23577,0.39062 0.056,0.33121 0.15958,0.90982 0.23015,1.28579 0.0706,0.37597 0.20609,1.10837 0.30116,1.62757 0.0951,0.5192 0.22691,1.23696 0.29297,1.59502 0.31549,1.71021 0.47381,2.58495 0.55967,3.0924 0.0515,0.30436 0.10905,0.61984 0.12788,0.70107 l 0.0342,0.1477 1.47806,-0.0175 1.47807,-0.0175 0.0854,-0.35807 c 0.15166,-0.6359 0.34793,-1.5126 0.50283,-2.24605 0.0832,-0.39388 0.21514,-0.99445 0.29325,-1.33462 0.0781,-0.34016 0.19521,-0.86749 0.26026,-1.17185 0.065,-0.30436 0.19503,-0.89028 0.28887,-1.30206 0.0938,-0.41178 0.22898,-1.03793 0.30032,-1.39144 0.0713,-0.35352 0.14334,-0.66485 0.16003,-0.69186 0.0167,-0.027 0.0924,-0.35298 0.16827,-0.7244 0.0759,-0.37142 0.19323,-0.92433 0.26082,-1.22869 0.0676,-0.30436 0.19659,-0.89028 0.28667,-1.30206 0.0901,-0.41178 0.22193,-1.01235 0.29301,-1.33461 0.0711,-0.32226 0.20192,-0.93158 0.29075,-1.35404 0.0888,-0.42247 0.17977,-0.79766 0.20209,-0.83377 0.0223,-0.0361 0.0226,-0.13722 6.5e-4,-0.2247 l -0.0399,-0.15906 h -1.45974 c -0.80286,0 -1.47498,0.0247 -1.49361,0.0548 -0.0186,0.0302 -0.0634,0.21325 -0.0995,0.4069 -0.28059,1.50635 -0.38896,2.05804 -0.42086,2.14241 -0.0203,0.0537 -0.0811,0.33203 -0.13512,0.61848 -0.054,0.28645 -0.15487,0.79914 -0.22414,1.1393 -0.0693,0.34016 -0.20437,1.01398 -0.30024,1.49737 -0.0959,0.48339 -0.22746,1.14256 -0.29244,1.46482 -0.065,0.32226 -0.16554,0.83495 -0.22349,1.1393 -0.0579,0.30436 -0.12328,0.62662 -0.1452,0.71614 -0.038,0.15512 -0.0427,0.15206 -0.0994,-0.0651 -0.071,-0.27153 -0.24236,-1.23015 -0.7622,-4.26425 -0.0675,-0.39387 -0.1704,-0.99444 -0.2287,-1.33461 -0.0583,-0.34016 -0.13744,-0.77961 -0.17587,-0.97654 -0.0384,-0.19694 -0.12739,-0.69498 -0.1977,-1.10675 -0.19341,-1.1329 -0.22065,-1.26764 -0.27357,-1.35327 -0.0359,-0.0581 -0.43473,-0.079 -1.5098,-0.079 -0.80354,0 -1.46269,0.007 -1.4648,0.0163 -0.002,0.009 -0.0596,0.33854 -0.12775,0.73241 -0.14107,0.81523 -0.40513,2.28068 -0.59241,3.28771 -0.0699,0.37597 -0.19912,1.09373 -0.28711,1.59502 -0.088,0.50129 -0.22118,1.2337 -0.29599,1.62758 -0.0748,0.39387 -0.18364,1.01642 -0.24182,1.38344 -0.0582,0.36701 -0.12516,0.6673 -0.14882,0.6673 -0.0237,0 -0.0616,-0.0952 -0.0844,-0.21158 -0.0228,-0.11637 -0.0973,-0.50455 -0.16561,-0.86262 -0.0683,-0.35807 -0.20201,-1.04653 -0.29709,-1.52992 -0.0951,-0.48339 -0.22761,-1.15721 -0.29454,-1.49737 -0.0669,-0.34016 -0.18456,-0.92609 -0.26142,-1.30206 -0.0769,-0.37597 -0.20878,-1.04979 -0.29315,-1.49737 -0.33639,-1.78442 -0.41154,-2.13809 -0.48251,-2.2707 -0.0736,-0.13753 -0.0859,-0.13811 -2.93777,-0.13811 h -2.86385 l -0.0696,0.17903 c -0.0383,0.0985 -0.14304,0.55989 -0.23282,1.02537 -0.0898,0.46549 -0.22018,1.12466 -0.28977,1.46482 -0.0696,0.34017 -0.19842,0.98469 -0.2863,1.43227 -0.0879,0.44758 -0.21971,1.10675 -0.29296,1.46482 -0.12299,0.60114 -0.25143,1.25463 -0.57313,2.9158 -0.18691,0.96515 -0.22596,0.95307 -0.4027,-0.12455 -0.0697,-0.42518 -0.18307,-1.09532 -0.25184,-1.48919 -0.0688,-0.39388 -0.17243,-0.99445 -0.23035,-1.33461 -0.0579,-0.34017 -0.13655,-0.77961 -0.17472,-0.97655 -0.0382,-0.19694 -0.10964,-0.62173 -0.1588,-0.94399 -0.0491,-0.32226 -0.11775,-0.68847 -0.15244,-0.81379 -0.0347,-0.12532 -0.11092,-0.52083 -0.16941,-0.87889 -0.0585,-0.35807 -0.15558,-0.92935 -0.21576,-1.26951 l -0.10942,-0.61848 h -1.49562 -1.49562 l -0.11512,0.65103 c -0.0633,0.35807 -0.17315,0.97329 -0.24409,1.36716 -0.0709,0.39388 -0.18612,1.0384 -0.25597,1.43227 -0.0699,0.39387 -0.14329,0.76008 -0.16318,0.81379 -0.0199,0.0537 -0.0959,0.46386 -0.16888,0.91144 -0.073,0.44758 -0.18906,1.1214 -0.25793,1.49737 -0.0689,0.37597 -0.18591,1.03514 -0.26008,1.46482 -0.23017,1.33337 -0.24895,1.35305 -0.41954,0.43944 -0.15261,-0.81732 -0.38371,-2.01462 -0.55606,-2.8808 -0.0748,-0.37597 -0.19473,-1.00585 -0.26651,-1.39972 -0.0718,-0.39387 -0.14912,-0.77473 -0.17185,-0.84634 -0.0227,-0.0716 -0.0927,-0.40852 -0.15552,-0.74868 -0.0628,-0.34017 -0.17529,-0.95036 -0.24995,-1.35599 -0.0747,-0.40564 -0.17567,-0.87438 -0.22443,-1.04165 l -0.0887,-0.30414 -2.86548,-0.017 c -2.43154,-0.0144 -2.87727,-0.003 -2.94341,0.077 -0.0429,0.0516 -0.13599,0.39618 -0.20694,0.76563 -0.28572,1.48763 -0.45164,2.33064 -0.5807,2.95033 -0.0746,0.35806 -0.18799,0.92934 -0.25203,1.2695 -0.064,0.34017 -0.13515,0.67708 -0.15802,0.74869 -0.0229,0.0716 -0.0974,0.43782 -0.16564,0.81379 -0.24609,1.35582 -0.57793,2.8714 -0.59156,2.70177 -0.007,-0.0857 -0.15928,-0.98582 -0.32516,-1.92054 -0.0731,-0.41177 -0.2051,-1.17348 -0.29339,-1.69267 -0.0883,-0.5192 -0.21752,-1.26626 -0.28719,-1.66013 -0.0697,-0.39388 -0.17406,-0.99445 -0.23198,-1.33461 -0.0579,-0.34017 -0.13654,-0.77961 -0.17472,-0.97655 -0.0382,-0.19694 -0.11075,-0.62109 -0.16126,-0.94257 -0.0505,-0.32148 -0.10849,-0.63696 -0.12884,-0.70107 -0.0343,-0.10819 -0.14301,-0.11531 -1.51332,-0.0991 l -1.47632,0.0175 -0.0834,0.39062 c -0.0935,0.43824 -0.26723,1.37911 -0.50476,2.73433 -0.0879,0.50129 -0.22047,1.2337 -0.29468,1.62757 -0.0742,0.39387 -0.20354,1.11164 -0.28741,1.59503 -0.19947,1.14965 -0.40685,2.27799 -0.4487,2.44136 -0.0183,0.0716 -0.0543,0.21809 -0.08,0.32551 -0.0399,0.1671 -0.0638,0.11068 -0.16518,-0.39061 -0.22275,-1.1012 -0.39135,-1.95294 -0.54772,-2.76688 -0.086,-0.44759 -0.21588,-1.10675 -0.28865,-1.46482 -0.18742,-0.9222 -0.37744,-1.88858 -0.55684,-2.83198 -0.0851,-0.44759 -0.19289,-1.00422 -0.23951,-1.23696 l -0.0847,-0.42317 -1.44964,-0.0175 c -1.23439,-0.0149 -1.45516,-0.003 -1.48681,0.0794 -0.0342,0.0892 0.0982,0.80498 0.44023,2.37954 0.0739,0.34017 0.20264,0.94074 0.28611,1.33462 0.0835,0.39387 0.20895,0.9798 0.27888,1.30206 0.0699,0.32226 0.20304,0.93748 0.29583,1.36716 0.0928,0.42968 0.22797,1.0449 0.30042,1.36716 0.0725,0.32226 0.20687,0.93749 0.29873,1.36717 0.19722,0.92251 0.37524,1.74314 0.54373,2.50646 0.0672,0.30436 0.18325,0.86099 0.25793,1.23696 0.0747,0.37597 0.16416,0.78612 0.19885,0.91144 0.0347,0.12533 0.13965,0.56341 0.23325,0.97352 0.0936,0.41011 0.1846,0.76899 0.20223,0.79751 0.0176,0.0285 0.68752,0.0519 1.48863,0.0519 1.33041,0 1.45965,-0.01 1.49182,-0.11393 z m 45.1876,-2.03447 v -2.11585 h -1.49737 -1.49737 l -0.0172,2.05015 c -0.009,1.12757 -0.003,2.08758 0.0147,2.13334 0.0249,0.0649 0.35833,0.0794 1.51459,0.0657 l 1.48267,-0.0175 z m 65.10303,-8.6587 v -10.77456 l -1.46019,-0.0175 c -1.12472,-0.0135 -1.47224,0.001 -1.51265,0.0651 -0.0605,0.0953 -0.0748,21.27511 -0.0145,21.43232 0.0353,0.092 0.21244,0.10214 1.51365,0.0867 l 1.47367,-0.0175 z m 5.72906,8.6587 v -2.11585 h -1.52992 -1.52992 l -0.0172,2.05015 c -0.009,1.12757 -0.003,2.08758 0.0147,2.13332 0.0249,0.0649 0.36468,0.0793 1.54714,0.0657 l 1.51523,-0.0175 z m 22.65585,0.22786 v -1.88799 l -2.74939,-0.004 c -1.51218,-0.002 -2.76628,-0.0211 -2.78691,-0.0417 -0.0206,-0.0206 0.24249,-0.46686 0.58472,-0.99162 0.34223,-0.52475 0.62223,-0.97268 0.62223,-0.99537 0,-0.0227 0.11331,-0.2191 0.25179,-0.43643 0.34717,-0.54486 1.11538,-1.8474 1.11538,-1.8912 0,-0.0197 0.0982,-0.18924 0.21829,-0.37667 0.12005,-0.18744 0.43198,-0.707 0.69315,-1.15458 0.26117,-0.44758 0.57309,-0.96714 0.69315,-1.15458 0.12006,-0.18743 0.21829,-0.35422 0.21829,-0.37065 0,-0.0164 0.19099,-0.34985 0.42441,-0.74095 l 0.42442,-0.71108 -0.0175,-1.48983 -0.0175,-1.48983 -4.45956,-0.0169 c -4.13472,-0.0157 -4.46548,-0.009 -4.54093,0.0938 -0.10793,0.14687 -0.11631,3.1541 -0.009,3.35396 0.0715,0.13364 0.0888,0.13425 2.44136,0.0868 1.8768,-0.0379 2.36933,-0.0309 2.36933,0.0335 0,0.0752 -0.17077,0.36086 -0.99282,1.66049 -0.17008,0.2689 -0.30924,0.5008 -0.30924,0.51533 0,0.0145 -0.23437,0.41279 -0.52082,0.885 -0.28645,0.47221 -0.52082,0.86579 -0.52082,0.87462 0,0.009 -0.19423,0.33477 -0.43163,0.7243 -0.23739,0.38952 -0.49689,0.82541 -0.57666,0.96864 -0.0798,0.14322 -0.44656,0.75845 -0.81509,1.36716 -0.36852,0.60871 -0.75355,1.25777 -0.8556,1.44235 l -0.18556,0.33559 v 1.56334 c 0,0.85984 0.0178,1.60988 0.0397,1.66674 0.0358,0.0934 0.50719,0.10178 4.86645,0.0867 l 4.82677,-0.0167 z m -153.74141,-6.48101 c -0.001,-0.2235 -0.20027,-1.83131 -0.28549,-2.30905 -0.63819,-3.57786 -2.65236,-6.46793 -5.61414,-8.05557 -1.92296,-1.03078 -3.61737,-1.50093 -6.5575,-1.81951 -0.44145,-0.0478 -4.66566,-0.0845 -12.73712,-0.1106 l -12.076615,-0.039 -0.0326,-0.68358 -0.0326,-0.68358 h -2.408819 -2.408808 l -0.01859,0.67024 c -0.01251,0.4511 -0.04444,0.68 -0.09765,0.70012 -0.04349,0.0164 -21.384847,0.0371 -47.425243,0.0459 l -47.3461749,0.016 2e-7,-25.14605 10e-8,-25.14604 H 148.2903 h 148.5 v 24.03929 24.03929 l -50.89116,-0.0164 c -30.57588,-0.01 -50.91488,-0.0401 -50.95058,-0.0758 -0.0327,-0.0327 -0.0988,-0.4501 -0.14695,-0.9276 -0.40264,-3.99386 -2.08587,-7.94682 -4.79134,-11.2521 -3.3963,-4.14929 -8.28193,-7.54039 -14.71622,-10.2145 -4.52747,-1.88162 -9.29213,-3.23223 -13.73141,-3.89235 -0.98534,-0.14652 -1.42482,-0.17829 -2.49779,-0.18053 -1.14983,-0.002 -1.37734,0.0153 -1.94596,0.15118 -1.03536,0.24748 -2.38339,0.93561 -2.38339,1.21665 0,0.0495 0.46803,0.15068 1.31834,0.28511 8.86195,1.40106 16.23145,4.02195 21.85834,7.77372 1.95374,1.30267 3.2569,2.37625 4.98428,4.1062 2.17459,2.17783 3.33767,3.74446 4.86178,6.54869 0.29221,0.53765 0.88417,1.88543 1.14377,2.60412 0.45037,1.24687 1.04864,3.62701 0.95129,3.78454 -0.0195,0.0315 -3.7558,0.056 -8.44567,0.0554 -7.81268,-0.001 -8.49174,-0.01 -9.55003,-0.12477 -3.27833,-0.35566 -5.83064,-1.13696 -8.01836,-2.45454 -5.07843,-3.05857 -8.17218,-8.51709 -9.55169,-16.85277 -0.98116,-5.92865 -1.00383,-13.28258 -0.0671,-21.76731 0.10812,-0.97938 0.18768,-1.88757 0.17678,-2.0182 l -0.0198,-0.23751 h -2.05075 -2.05074 l -0.17172,0.68359 c -0.7418,2.95298 -3.1786,13.5324 -7.63271,33.13744 -1.37888,6.06922 -3.1224,13.70093 -3.87449,16.95933 -0.75209,3.25841 -1.43167,6.20269 -1.51019,6.54286 -0.13157,0.57001 -0.25375,0.88004 -0.25529,0.64777 z m -80.472487,-13.4376 c 0.814396,-0.41268 1.078847,-1.05726 1.033663,-2.51945 l -0.0188,-0.60841 h -0.878891 -0.878891 v 0.78123 0.78124 l 0.325515,0.0326 c 0.30215,0.0302 0.324067,0.0442 0.305337,0.19531 -0.02908,0.23456 -0.211829,0.46077 -0.488061,0.60412 -0.315623,0.16379 -0.311912,0.37365 0.01378,0.77932 0.121328,0.15112 0.211459,0.14406 0.586348,-0.0459 z m -43.059886,-1.49122 c 0.632594,-0.16881 1.449474,-0.69964 1.840747,-1.19616 0.272533,-0.34585 0.575999,-0.97284 0.67214,-1.38872 0.103387,-0.44723 0.107079,-2.07189 0.0057,-2.50222 -0.272139,-1.15502 -1.185025,-2.15957 -2.28795,-2.51767 -0.610713,-0.1983 -2.102745,-0.24489 -2.759176,-0.0862 -1.0353162,0.25034 -1.8246622,0.89523 -2.2937002,1.87395 -0.2908976,0.607 -0.3756546,1.18098 -0.3378166,2.28774 0.02596,0.75942 0.05835,0.98842 0.1893926,1.33923 0.452769,1.21208 1.467384,2.0432 2.7508272,2.25336 0.608915,0.0997 1.728596,0.0678 2.219851,-0.0633 z m -1.783021,-1.44318 c -0.583757,-0.16256 -1.051782,-0.57984 -1.324503,-1.18091 -0.1968582,-0.43386 -0.2441392,-1.65625 -0.08521,-2.20295 0.22325,-0.76796 0.749747,-1.27257 1.489176,-1.42728 0.490155,-0.10255 0.863994,-0.053 1.379084,0.18282 0.782736,0.35835 1.172193,1.42135 1.007201,2.74909 -0.114717,0.92317 -0.52316,1.52331 -1.212177,1.78111 -0.500755,0.18735 -0.83824,0.21377 -1.253573,0.0981 z m 123.418614,1.5288 c 0.56287,-0.0913 1.08307,-0.36877 1.48154,-0.79014 0.499,-0.52766 0.63233,-0.865 0.63857,-1.61565 0.005,-0.56756 -0.0106,-0.64691 -0.18609,-0.96369 -0.12185,-0.21996 -0.31081,-0.43074 -0.52082,-0.58095 -0.18128,-0.12966 -0.35169,-0.25423 -0.37871,-0.27683 -0.027,-0.0226 0.0902,-0.18624 0.26041,-0.36367 0.33294,-0.34698 0.53826,-0.80929 0.53772,-1.2107 -9.1e-4,-0.65666 -0.58174,-1.46965 -1.28572,-1.79955 -0.34178,-0.16017 -0.44342,-0.17561 -1.15597,-0.17561 -0.6128,0 -0.85141,0.0269 -1.10675,0.12462 -0.43389,0.16612 -0.86833,0.50447 -1.09484,0.85268 -0.23317,0.35845 -0.40656,0.98347 -0.30632,1.10424 0.0388,0.0468 0.31134,0.11855 0.60565,0.15953 0.2943,0.041 0.61507,0.0904 0.7128,0.10974 0.16364,0.0324 0.19033,0.007 0.33747,-0.32607 0.20518,-0.46397 0.46977,-0.64461 0.8824,-0.60245 0.37515,0.0383 0.58807,0.26608 0.58807,0.62902 0,0.49953 -0.2538,0.76412 -0.84582,0.88178 l -0.35858,0.0713 -0.0859,0.60593 c -0.0506,0.35684 -0.0619,0.62989 -0.0276,0.66423 0.0343,0.0343 0.19649,0.0287 0.39447,-0.0138 0.34105,-0.0731 0.70313,-0.0119 0.91185,0.15414 0.16814,0.13379 0.33703,0.56373 0.33703,0.85798 0,0.38462 -0.12626,0.67951 -0.38369,0.89612 -0.53687,0.45175 -1.2128,0.21088 -1.46532,-0.52218 -0.10284,-0.29851 -0.20436,-0.31802 -1.08996,-0.20954 -0.45834,0.0562 -0.6436,0.10522 -0.67147,0.17784 -0.0212,0.0552 0.0265,0.30846 0.10584,0.56287 0.1249,0.40026 0.20183,0.52027 0.57123,0.8911 0.30031,0.30145 0.52343,0.4633 0.75242,0.54577 0.60602,0.21825 1.18572,0.26911 1.84602,0.16197 z M 23.976173,151.24258 c 0.766224,-0.36074 1.32977,-1.01393 1.587582,-1.84013 0.121216,-0.38846 0.0912,-1.41099 -0.053,-1.80551 -0.288347,-0.78888 -0.792962,-1.34089 -1.539999,-1.68463 -0.336306,-0.15475 -0.486379,-0.18071 -1.182258,-0.20452 -0.8422,-0.0288 -1.176996,0.023 -1.698959,0.26287 -0.461231,0.21198 -0.786121,0.49377 -1.062716,0.92171 -0.613982,0.94995 -0.664743,2.0984 -0.141945,3.21146 0.269968,0.57477 1.017944,1.13238 1.77147,1.32061 0.130089,0.0325 0.602731,0.0531 1.050314,0.0459 0.771368,-0.0125 0.837543,-0.0244 1.269509,-0.22775 z m -1.822885,-1.22139 c -0.721167,-0.37372 -1.006808,-1.2652 -0.682831,-2.1311 0.226957,-0.6066 0.888578,-0.95155 1.462061,-0.76229 0.418555,0.13814 0.668221,0.41658 0.814781,0.90871 0.161558,0.54248 0.161615,0.57088 0.0022,1.10606 -0.141913,0.47652 -0.341649,0.71666 -0.731536,0.87953 -0.307475,0.12844 -0.61573,0.12811 -0.864706,-9.1e-4 z m 17.88254,1.34613 c 0.196711,-0.0677 0.454469,-0.17312 0.572794,-0.23431 0.335639,-0.17356 0.857733,-0.74172 1.108125,-1.20589 l 0.227861,-0.42239 v -0.91145 c 0,-0.90287 -0.002,-0.91556 -0.217766,-1.3496 -0.353263,-0.71078 -1.027378,-1.26316 -1.800428,-1.47529 -0.336607,-0.0924 -1.616483,-0.0924 -1.953091,0 -0.771688,0.21176 -1.401495,0.72597 -1.778636,1.45217 l -0.239557,0.46128 v 0.91144 c 0,0.85555 0.01085,0.93459 0.176853,1.28889 0.330164,0.70466 0.828006,1.15566 1.582692,1.43378 0.598195,0.22046 1.755252,0.24606 2.321153,0.0514 z m -1.572939,-1.3906 c -0.15769,-0.0806 -0.37331,-0.25537 -0.479155,-0.38846 -0.164062,-0.20629 -0.197037,-0.31351 -0.22357,-0.72695 -0.0496,-0.77294 0.01586,-1.04371 0.331616,-1.37161 0.493919,-0.51291 1.174872,-0.54866 1.653087,-0.0868 0.321291,0.31032 0.426406,0.5928 0.42919,1.15337 0.0038,0.76753 -0.307645,1.3085 -0.859561,1.49295 -0.325551,0.10881 -0.530935,0.0913 -0.851607,-0.0725 z m 7.587299,1.3041 c 0.181282,-0.094 0.367972,-0.21714 0.414865,-0.27365 0.1291,-0.15555 0.189159,-0.12467 0.211675,0.10886 l 0.0204,0.21158 h 0.781236 0.781236 v -2.76688 -2.76688 l -0.828338,-0.0182 c -0.815957,-0.0179 -0.828828,-0.016 -0.861089,0.1302 -0.01801,0.0816 -0.04076,0.92477 -0.05055,1.87365 -0.01636,1.5855 -0.02823,1.74247 -0.146586,1.93819 -0.15191,0.25122 -0.567408,0.47062 -0.891239,0.47062 -0.293705,0 -0.643884,-0.23432 -0.729717,-0.48828 -0.0363,-0.10742 -0.08226,-1.03025 -0.102129,-2.05074 l -0.03612,-1.85544 h -0.813788 -0.813788 l -0.02003,2.0833 c -0.02406,2.50165 -0.0027,2.65269 0.437322,3.09271 0.43033,0.43033 0.721229,0.52109 1.600904,0.49947 0.625816,-0.0154 0.757702,-0.0392 1.045738,-0.18851 z m 7.459839,0.002 c 0.202235,-0.0935 0.490768,-0.29312 0.641184,-0.44354 0.260417,-0.26041 0.594952,-0.87007 0.68691,-1.25181 0.05449,-0.22622 -0.03759,-0.26602 -0.94466,-0.40837 -0.645751,-0.10134 -0.685489,-0.10094 -0.764961,0.008 -0.0461,0.0631 -0.08487,0.16031 -0.08613,0.21613 -0.007,0.30622 -0.479806,0.71996 -0.822811,0.71996 -0.363056,0 -0.695254,-0.17525 -0.884011,-0.46635 -0.210646,-0.32487 -0.268872,-0.67217 -0.231635,-1.38165 0.03455,-0.65827 0.196676,-0.96985 0.599938,-1.15299 0.346498,-0.15737 0.520762,-0.15436 0.870612,0.015 0.224097,0.10848 0.314309,0.20259 0.41146,0.42924 l 0.124434,0.29029 0.341503,-0.045 c 0.547077,-0.0721 1.246117,-0.22726 1.309622,-0.29076 0.07525,-0.0753 -0.101987,-0.52085 -0.35133,-0.88326 -0.46617,-0.67756 -1.093232,-0.94154 -2.236511,-0.94154 -0.909401,0 -1.362349,0.12374 -1.87801,0.51307 -0.409497,0.30918 -0.626749,0.59673 -0.842019,1.1145 -0.130952,0.31497 -0.148871,0.46777 -0.148871,1.26951 0,0.80174 0.01792,0.95454 0.148871,1.26951 0.215323,0.5179 0.432536,0.80534 0.842466,1.11484 0.564238,0.42601 0.9244,0.51649 1.967363,0.49425 0.7878,-0.0168 0.917001,-0.0364 1.24659,-0.18879 z m 19.892467,0.078 c 0.851189,-0.29917 1.595056,-1.07933 1.814258,-1.90278 0.110278,-0.41429 0.1202,-1.22074 0.02072,-1.68458 -0.158878,-0.74085 -0.747676,-1.44337 -1.530364,-1.82597 l -0.447948,-0.21897 -0.976545,0.003 c -1.127917,0.004 -1.310056,0.0528 -1.953742,0.52539 -0.85576,0.62835 -1.236554,1.62595 -1.079278,2.82746 0.08165,0.62374 0.259846,1.03838 0.634969,1.47747 0.310841,0.36384 0.838976,0.6812 1.388954,0.83465 0.489639,0.13661 1.695979,0.11624 2.128973,-0.0359 z m -1.532623,-1.32303 c -0.278576,-0.10527 -0.503553,-0.32333 -0.679038,-0.65815 -0.196409,-0.37475 -0.197613,-1.19618 -0.0023,-1.56868 0.197998,-0.37761 0.436333,-0.58971 0.766542,-0.68216 0.369597,-0.10348 0.667918,-0.0464 0.994787,0.1904 0.382806,0.27731 0.537153,0.6463 0.537153,1.28417 0,0.42143 -0.02932,0.57812 -0.151482,0.80951 -0.289878,0.54908 -0.936618,0.82482 -1.465671,0.62491 z m 13.605744,1.24681 c 0.594528,-0.27777 1.267654,-1.07227 1.215877,-1.43513 -0.01905,-0.13353 -0.08445,-0.15882 -0.672136,-0.25993 -0.966949,-0.16635 -0.95846,-0.16775 -1.183495,0.19427 -0.250927,0.40365 -0.57068,0.52229 -0.999677,0.37093 -0.153727,-0.0542 -0.320795,-0.13288 -0.371263,-0.17476 -0.140661,-0.11674 -0.34265,-0.54841 -0.34265,-0.73229 v -0.16433 l 1.839161,-0.0173 1.83916,-0.0173 0.02088,-0.25547 c 0.03562,-0.4357 -0.116053,-1.33906 -0.2784,-1.65822 -0.345339,-0.67892 -0.805631,-1.09433 -1.455711,-1.31378 -0.348607,-0.11768 -0.527126,-0.1353 -1.173299,-0.1158 -0.706381,0.0213 -0.793919,0.0387 -1.196705,0.23699 -0.522484,0.25726 -0.901025,0.6583 -1.180689,1.25084 -0.186194,0.39451 -0.201389,0.48277 -0.224397,1.30318 -0.02121,0.75605 -0.0062,0.93244 0.10617,1.2523 0.283133,0.80557 0.80457,1.34622 1.552356,1.60956 0.323575,0.11395 0.508526,0.13097 1.258227,0.1158 0.79259,-0.016 0.914997,-0.0347 1.246592,-0.18958 z m -2.331743,-3.34764 c -0.05728,-0.14927 0.200648,-0.65051 0.402956,-0.78307 0.265965,-0.17427 0.739375,-0.18852 0.992026,-0.0299 0.264475,0.16607 0.479699,0.50572 0.45647,0.72035 l -0.01762,0.16276 -0.896501,0.0181 c -0.780227,0.0158 -0.9018,0.004 -0.937334,-0.0883 z m 7.305497,3.45846 c 0.124673,-0.0521 0.240354,-0.13265 0.25706,-0.17903 0.01671,-0.0464 0.009,-0.33334 -0.01719,-0.63769 l -0.04757,-0.55338 -0.19531,0.004 c -0.107419,0.002 -0.286896,0.0254 -0.39884,0.0522 -0.150668,0.0361 -0.231318,0.0209 -0.310516,-0.0583 -0.09368,-0.0937 -0.104802,-0.27829 -0.08943,-1.4845 l 0.01755,-1.37751 0.488273,-0.0326 0.488273,-0.0326 v -0.65103 -0.65103 l -0.488273,-0.0325 -0.488273,-0.0326 -0.03255,-0.91069 c -0.03878,-1.08488 -0.03806,-1.0842 -0.722963,-0.68932 -0.253179,0.14597 -0.472986,0.2654 -0.488455,0.2654 -0.01547,0 -0.143493,0.0728 -0.284494,0.16183 l -0.256362,0.16184 -0.01903,0.50547 -0.01903,0.50547 -0.292963,0.0326 -0.292964,0.0325 v 0.65103 0.65103 l 0.292964,0.0326 0.292963,0.0326 0.03255,1.72523 c 0.02822,1.49557 0.04833,1.75694 0.151091,1.96344 0.150785,0.30302 0.298497,0.43542 0.60956,0.54636 0.344427,0.12283 1.519602,0.12258 1.813926,-3.9e-4 z m 4.786492,-0.15719 c 0.430721,-0.22564 0.762174,-0.55212 1.023914,-1.00858 0.258472,-0.45075 0.207178,-0.51155 -0.540068,-0.64011 -0.96695,-0.16635 -0.95846,-0.16775 -1.183495,0.19427 -0.254755,0.4098 -0.564274,0.52034 -1.021174,0.36466 -0.340905,-0.11616 -0.662033,-0.50103 -0.702201,-0.84158 l -0.02277,-0.19301 1.868952,-0.0173 1.868945,-0.0173 0.04176,-0.22263 c 0.02297,-0.12244 0.01211,-0.31974 -0.02413,-0.43845 -0.03624,-0.1187 -0.08437,-0.3717 -0.106958,-0.56221 -0.109041,-0.91994 -0.761913,-1.73108 -1.635134,-2.03151 -0.46895,-0.16134 -1.532929,-0.17725 -2.027718,-0.0303 -0.719896,0.21379 -1.343609,0.81724 -1.620779,1.56813 -0.144294,0.39093 -0.166189,0.55543 -0.168109,1.26324 -0.002,0.73182 0.01505,0.85616 0.169092,1.23442 0.232919,0.57194 0.403079,0.80857 0.797095,1.10854 0.561175,0.42722 0.948844,0.5263 1.980714,0.50622 0.861587,-0.0168 0.893624,-0.0226 1.302061,-0.23655 z m -2.368084,-3.2402 c -0.09307,-0.0931 -0.03913,-0.30171 0.148507,-0.57443 0.29396,-0.42727 0.804634,-0.55075 1.222921,-0.29572 0.263134,0.16044 0.479842,0.50059 0.45647,0.71649 l -0.01762,0.16276 -0.882563,0.018 c -0.485408,0.01 -0.902881,-0.002 -0.927718,-0.0271 z m 8.496123,3.28512 c 0.49874,-0.23297 0.92679,-0.67502 1.16261,-1.20063 0.23055,-0.51384 0.23964,-0.66106 0.0453,-0.73348 -0.23014,-0.0858 -1.47414,-0.27969 -1.53859,-0.23986 -0.0319,0.0197 -0.0771,0.13781 -0.10047,0.26248 -0.12698,0.67687 -0.990125,0.9717 -1.525625,0.52111 -0.29541,-0.24858 -0.40961,-0.61695 -0.41383,-1.33497 -0.002,-0.34372 0.0314,-0.73128 0.0743,-0.86125 0.16379,-0.49629 0.77112,-0.79953 1.270945,-0.63457 0.25784,0.0851 0.55686,0.40413 0.55686,0.59412 0,0.07 0.0421,0.1434 0.0935,0.16314 0.0831,0.0319 1.1961,-0.12543 1.48189,-0.20943 0.19112,-0.0562 0.19769,-0.26317 0.0199,-0.62631 -0.22933,-0.46836 -0.63917,-0.883 -1.07293,-1.08549 -0.31728,-0.14811 -0.46047,-0.17061 -1.2166,-0.19121 -0.658495,-0.0179 -0.942585,0.002 -1.226525,0.0841 -0.71103,0.2067 -1.250699,0.67773 -1.578269,1.37752 -0.17221,0.36789 -0.17928,0.42408 -0.17928,1.42464 0,1.03401 0.001,1.04476 0.20412,1.46482 0.32883,0.68167 0.941299,1.20289 1.614879,1.37425 0.10956,0.0279 0.59469,0.0447 1.078075,0.0375 0.80009,-0.012 0.91215,-0.0287 1.24975,-0.18645 z m 12.51955,0.1187 c 0.47635,-0.12693 0.69773,-0.25911 1.16319,-0.69453 0.74817,-0.69988 1.0336,-1.63192 0.83686,-2.73274 -0.12738,-0.71269 -0.46613,-1.26615 -1.0403,-1.69965 -0.65763,-0.49652 -0.83293,-0.54597 -1.93629,-0.5462 -0.87247,-2e-4 -1.01666,0.016 -1.35299,0.15174 -0.72576,0.29294 -1.24087,0.82212 -1.5441,1.58628 -0.14306,0.36054 -0.16223,0.50469 -0.15838,1.19141 0.004,0.75381 0.0124,0.79838 0.23379,1.26951 0.35349,0.75237 0.94279,1.2408 1.7638,1.46188 0.43719,0.11772 1.61215,0.12483 2.03442,0.0123 z m -1.43226,-1.36692 c -0.25866,-0.11942 -0.5132,-0.36419 -0.66077,-0.63542 -0.0913,-0.16777 -0.12003,-0.3607 -0.12022,-0.80646 0,-0.50134 0.0226,-0.62573 0.15772,-0.86172 0.0869,-0.15168 0.2748,-0.35676 0.4176,-0.45572 0.21582,-0.14956 0.32823,-0.17993 0.66606,-0.17993 0.35612,0 0.43681,0.0246 0.65201,0.19878 0.39903,0.32297 0.51523,0.61603 0.51486,1.29859 -6.5e-4,0.67993 -0.1169,0.9765 -0.50817,1.29319 -0.28217,0.22837 -0.79803,0.29691 -1.11909,0.14869 z m 13.24805,1.22317 0.48419,-0.23204 0.12161,0.16693 c 0.11934,0.16384 0.13679,0.16694 0.93735,0.16694 h 0.81575 l -0.0353,-0.17903 c -0.0194,-0.0985 -0.0809,-0.35481 -0.13658,-0.56965 -0.0778,-0.3 -0.10147,-0.7533 -0.10225,-1.95401 -9.2e-4,-1.39735 -0.0148,-1.60132 -0.13082,-1.92054 -0.1413,-0.38881 -0.36979,-0.62113 -0.84675,-0.8609 -0.27185,-0.13666 -0.37741,-0.14728 -1.46481,-0.14728 -1.28782,0 -1.4138,0.0266 -1.91552,0.40449 -0.42511,0.32019 -0.79999,0.9563 -0.70675,1.19926 0.0219,0.0572 0.29201,0.13596 0.73731,0.21507 l 0.70269,0.12485 0.18424,-0.22069 c 0.10133,-0.12138 0.18424,-0.24064 0.18424,-0.26501 0,-0.0543 0.15709,-0.12142 0.44599,-0.19058 0.27717,-0.0664 0.82806,0.0707 0.95428,0.2374 0.12819,0.16933 0.11998,0.39922 -0.0168,0.47069 -0.0627,0.0327 -0.4069,0.12251 -0.76496,0.19949 -1.65273,0.35531 -1.83567,0.42362 -2.21676,0.82769 -0.62464,0.66232 -0.51784,1.8431 0.21489,2.37573 0.44447,0.32309 0.62649,0.37279 1.38522,0.37828 0.65654,0.005 0.70583,-0.005 1.16961,-0.22709 z m -0.94358,-1.0327 c -0.2254,-0.0977 -0.38918,-0.26922 -0.45101,-0.47239 -0.0315,-0.10339 0.007,-0.19796 0.14,-0.34719 0.15303,-0.17128 0.28926,-0.23073 0.82612,-0.36052 0.35359,-0.0855 0.66797,-0.13991 0.69864,-0.12096 0.11886,0.0735 0.0584,0.65465 -0.0916,0.87977 -0.23993,0.36021 -0.78815,0.56603 -1.12217,0.42129 z m -106.183038,-2.674 v -3.77597 h -0.846339 -0.84634 l -0.0169,3.71087 c -0.0093,2.04098 -0.0026,3.74837 0.01498,3.79421 0.02412,0.0631 0.234246,0.0789 0.863241,0.0651 l 0.831357,-0.0182 z m 9.632041,3.66205 c 0.0175,-0.0806 0.04011,-0.90819 0.05023,-1.83916 0.01641,-1.50917 0.03141,-1.71418 0.138353,-1.89096 0.330491,-0.54634 1.098554,-0.66337 1.359327,-0.20712 0.05983,0.10467 0.09192,0.68806 0.115423,2.09808 l 0.03255,1.95309 0.841244,0.0183 c 0.629286,0.0137 0.854578,-0.003 0.894169,-0.0651 0.02911,-0.0459 0.05402,-0.84511 0.05535,-1.77608 0.0022,-1.519 0.01508,-1.72055 0.125748,-1.9643 0.148482,-0.32703 0.367546,-0.48267 0.73814,-0.52444 0.359048,-0.0405 0.556145,0.11295 0.649342,0.50546 0.03795,0.15983 0.08643,1.0816 0.107732,2.04838 l 0.03873,1.75778 0.808651,0.0184 c 0.603193,0.0137 0.82211,-0.003 0.861619,-0.0651 0.02913,-0.0459 0.05342,-0.93896 0.05396,-1.98456 0.0012,-2.29346 -0.06934,-2.6891 -0.562842,-3.15684 -0.343419,-0.32549 -0.706026,-0.44027 -1.395813,-0.44185 -0.732576,-0.002 -0.947075,0.0607 -1.4123,0.41044 l -0.344661,0.25914 -0.208715,-0.20162 c -0.357513,-0.34535 -0.716557,-0.46634 -1.388659,-0.46796 -0.650881,-0.002 -1.023018,0.0959 -1.366535,0.35791 -0.116441,0.0888 -0.226458,0.16148 -0.244482,0.16148 -0.01802,0 -0.04195,-0.0952 -0.05317,-0.21158 l -0.0204,-0.21159 h -0.781237 -0.781236 l -0.01701,2.70174 c -0.0094,1.48595 -0.0029,2.73837 0.01423,2.78315 0.0227,0.0592 0.253999,0.0814 0.845834,0.0814 0.791929,0 0.815477,-0.004 0.846417,-0.14648 z m 39.082066,-0.0743 c 1.116074,-0.51543 1.608858,-2.00377 0.993244,-2.99985 -0.13949,-0.2257 -0.678764,-0.70521 -0.861671,-0.76618 -0.05261,-0.0175 0.02385,-0.14628 0.209827,-0.35333 0.382571,-0.42594 0.544339,-0.87529 0.506729,-1.40763 -0.06661,-0.94295 -0.692351,-1.61703 -1.673844,-1.80317 -0.191872,-0.0364 -1.321175,-0.0661 -2.513504,-0.0661 -1.914232,0 -2.169679,0.0119 -2.204617,0.10298 -0.05261,0.1371 -0.05111,7.2779 0.0016,7.41515 0.03732,0.0973 0.273378,0.10517 2.587845,0.0867 l 2.546772,-0.0203 z m -3.695365,-2.09208 v -0.89492 l 1.129907,0.0311 c 1.008961,0.0278 1.163041,0.0471 1.439475,0.18094 0.64812,0.31375 0.649376,1.07509 0.0023,1.42093 -0.152673,0.0816 -0.455578,0.11021 -1.383595,0.13068 l -1.18813,0.0262 z m 0,-3.08084 v -0.79105 l 0.699857,0.003 c 0.384922,0.002 0.918819,0.0282 1.186431,0.0592 0.427187,0.0494 0.508631,0.081 0.667306,0.25858 0.229065,0.25636 0.249755,0.65202 0.04482,0.85695 -0.261409,0.26141 -0.560453,0.33015 -1.601529,0.36815 l -0.996889,0.0364 z m 17.349956,4.67761 v -0.68358 l -1.383439,-0.0176 c -0.760892,-0.01 -1.38344,-0.0324 -1.38344,-0.0505 0,-0.0181 0.587028,-0.694 1.304509,-1.50204 l 1.304508,-1.46917 -0.01872,-0.56368 -0.01872,-0.56369 -2.40447,-0.0171 c -1.880325,-0.0134 -2.415836,8.3e-4 -2.456636,0.0651 -0.07121,0.11217 -0.06629,1.16664 0.006,1.28079 0.04808,0.076 0.250243,0.0846 1.167721,0.05 0.610262,-0.023 1.124251,-0.0181 1.142206,0.0109 0.01795,0.029 -0.05969,0.15304 -0.172523,0.27555 -0.112843,0.12251 -0.454972,0.50107 -0.760299,0.84123 -0.305327,0.34016 -0.78291,0.86448 -1.061297,1.16515 l -0.50615,0.54667 v 0.63061 c 0,0.34683 0.01986,0.65047 0.04414,0.67475 0.02428,0.0243 1.203456,0.0365 2.620397,0.0271 l 2.576231,-0.017 z m 24.27906,0.56965 c 0.0169,-0.0806 0.0414,-0.86702 0.0546,-1.74767 0.023,-1.54037 0.0299,-1.61332 0.18215,-1.92054 0.18537,-0.37402 0.46147,-0.53934 0.90875,-0.54408 0.31475,-0.003 0.53111,0.10793 0.66501,0.342 0.0585,0.10218 0.0912,0.69273 0.11443,2.06368 l 0.0326,1.92054 h 0.8789 0.87889 l -0.005,-1.95309 c -0.005,-2.10454 -0.0483,-2.49715 -0.31954,-2.90697 -0.38661,-0.58422 -0.93088,-0.80131 -1.90268,-0.7589 -0.64064,0.028 -0.85928,0.0981 -1.30483,0.41882 l -0.14649,0.10543 -9.7e-4,-1.16352 c -6.5e-4,-0.63993 -0.0248,-1.20108 -0.054,-1.24699 -0.0395,-0.0623 -0.25842,-0.0788 -0.86162,-0.0651 l -0.80865,0.0184 -0.0169,3.71087 c -0.009,2.04098 -0.003,3.74749 0.0142,3.79225 0.0226,0.0591 0.25406,0.0814 0.84573,0.0814 0.79227,0 0.81543,-0.004 0.84526,-0.14648 z m 14.8111,0.0539 c 0.0423,-0.0509 0.13059,-0.23402 0.19631,-0.4069 0.0657,-0.17287 0.24284,-0.60728 0.39361,-0.96535 0.15077,-0.35806 0.34049,-0.81216 0.42158,-1.00909 0.51079,-1.24041 0.78944,-1.9109 0.96048,-2.31116 0.10711,-0.25065 0.20954,-0.53629 0.22763,-0.63476 l 0.0329,-0.17903 h -0.85222 c -0.8122,0 -0.8567,0.007 -0.94739,0.14648 -0.0523,0.0806 -0.31786,0.71776 -0.59005,1.41599 -0.27219,0.69823 -0.52641,1.34971 -0.56493,1.44772 -0.0892,0.22687 -0.13873,0.19283 -0.28009,-0.19236 -0.30814,-0.83958 -0.89979,-2.35509 -0.99841,-2.55742 l -0.11106,-0.22786 -0.84104,-0.0183 c -0.49854,-0.0109 -0.86751,0.008 -0.90602,0.0467 -0.0432,0.0432 -0.0261,0.1583 0.0511,0.34382 0.0638,0.15336 0.2268,0.54251 0.36215,0.86477 0.13536,0.32226 0.35019,0.83495 0.47741,1.1393 0.12722,0.30436 0.33865,0.8024 0.46985,1.10675 0.1312,0.30436 0.35138,0.82793 0.4893,1.16349 0.40149,0.97689 0.32746,0.91981 1.19288,0.91981 0.55963,0 0.75788,-0.0225 0.81605,-0.0926 z m -40.420957,-6.69442 c 0.298146,-0.40282 0.543766,-0.791 0.545824,-0.86261 0.0035,-0.12126 -0.04436,-0.13148 -0.695913,-0.14869 l -0.699649,-0.0185 -0.20805,0.29516 c -0.114425,0.16234 -0.239032,0.29426 -0.276896,0.29315 -0.03786,-0.001 -0.167484,-0.13294 -0.288035,-0.29296 l -0.219189,-0.29095 h -0.669012 c -0.820825,0 -0.870193,0.054 -0.499314,0.54572 0.138201,0.18324 0.39511,0.53092 0.570921,0.77261 l 0.31965,0.43945 h 0.788788 0.788788 z m 15.238964,0.43559 c 0.120552,-0.16325 0.322312,-0.43424 0.448358,-0.6022 0.637606,-0.84967 0.634911,-0.85876 -0.254715,-0.85876 h -0.709135 l -0.248238,0.32551 c -0.136534,0.17904 -0.250848,0.32552 -0.254038,0.32552 -0.0032,0 -0.117505,-0.14648 -0.254039,-0.32552 l -0.248238,-0.32551 h -0.709134 c -0.595524,0 -0.709128,0.0161 -0.709128,0.10039 0,0.10537 0.176878,0.36455 0.798859,1.17055 l 0.37569,0.48684 h 0.772285 0.772285 z m -61.563581,-4.58753 c 2.069233,-0.37039 3.925379,-1.87608 5.040291,-4.08865 0.973961,-1.93284 1.388488,-4.04511 1.388387,-7.0747 -1.3e-4,-3.02309 -0.369787,-4.95971 -1.317338,-6.90092 -0.531321,-1.08849 -0.971603,-1.72451 -1.680079,-2.42699 -0.923218,-0.9154 -1.839393,-1.46157 -2.97554,-1.77384 -0.736088,-0.2023 -2.701445,-0.25778 -3.494216,-0.0986 -0.640246,0.12853 -1.541936,0.43134 -1.832949,0.61554 -0.113626,0.0719 -0.30913,0.18787 -0.434453,0.25767 -0.325424,0.18125 -0.992552,0.77539 -1.410586,1.25626 -0.981992,1.12961 -1.686051,2.53181 -2.233687,4.44859 -0.04092,0.14323 -0.117827,0.52408 -0.170902,0.84634 -0.05308,0.32226 -0.129046,0.77635 -0.168822,1.0091 -0.09776,0.57205 -0.09826,5.03518 -6.51e-4,5.59886 0.213543,1.23282 0.273519,1.54999 0.332394,1.75778 0.728633,2.57157 1.679384,4.14571 3.193411,5.28727 1.083288,0.81678 2.07014,1.21947 3.323351,1.35611 0.588844,0.0642 1.902619,0.0266 2.441363,-0.0698 z m -2.290061,-3.96888 c -0.548806,-0.14385 -0.780392,-0.25616 -1.233179,-0.59802 -0.946508,-0.71462 -1.675926,-2.04501 -2.010413,-3.66681 -0.199611,-0.96784 -0.235735,-1.4278 -0.235194,-2.99474 5.21e-4,-1.55133 0.03336,-1.98064 0.230116,-3.00931 0.446378,-2.33379 1.68549,-3.86273 3.422882,-4.22351 1.179184,-0.24487 2.376666,0.17619 3.281979,1.15402 0.414684,0.44789 0.474,0.53588 0.796161,1.18101 0.33363,0.66809 0.57424,1.53521 0.708714,2.55408 0.113883,0.86287 0.113883,3.75945 0,4.62232 -0.272282,2.06301 -0.95978,3.50008 -2.081574,4.35109 -0.923289,0.70042 -1.842911,0.90158 -2.879492,0.62987 z m 17.97989,4.0331 c 1.33619,-0.12632 2.338409,-0.48105 3.190048,-1.12908 1.156396,-0.87992 2.047264,-2.5509 2.312164,-4.33687 0.07073,-0.47685 0.07161,-2.20387 0.0014,-2.73432 -0.174545,-1.3187 -0.641319,-2.45853 -1.35224,-3.30209 -0.39243,-0.46564 -0.938971,-0.99471 -1.027562,-0.99471 -0.02842,0 -0.142331,-0.068 -0.253131,-0.15112 -0.493509,-0.3702 -1.582679,-0.83634 -3.456606,-1.47937 -1.62218,-0.55664 -2.283295,-0.87927 -2.708482,-1.32176 -0.683285,-0.7111 -0.670188,-1.94751 0.02707,-2.55575 0.659739,-0.5755 1.753716,-0.84551 2.666711,-0.65818 0.875908,0.17971 1.415045,0.58905 1.749302,1.32813 0.06779,0.1499 0.205281,0.58935 0.305528,0.97655 l 0.182265,0.704 1.004651,-0.0206 c 0.552557,-0.0113 1.32691,-0.0406 1.720783,-0.0651 l 0.716134,-0.0445 -0.02071,-0.58592 c -0.06822,-1.92984 -0.714133,-3.52443 -1.907555,-4.70925 -0.228492,-0.22685 -0.517978,-0.46929 -0.643301,-0.53877 -0.125323,-0.0695 -0.319193,-0.1814 -0.430821,-0.24872 -0.348087,-0.20991 -1.105397,-0.45292 -1.75834,-0.56421 -0.489229,-0.0834 -0.885499,-0.0993 -1.80661,-0.0725 -1.35289,0.0394 -1.820702,0.13744 -2.6733,0.56039 -1.59849,0.79296 -2.481357,2.11192 -2.967787,4.43373 -0.09756,0.46566 -0.04804,2.0906 0.08332,2.73433 0.292249,1.43213 1.055653,2.69593 2.134758,3.53404 0.818137,0.63543 1.685687,1.03373 3.935766,1.80694 2.080959,0.7151 2.675389,1.11408 2.891545,1.94079 0.225925,0.86407 0.22701,0.70328 -0.01141,1.69146 -0.156122,0.64707 -0.879149,1.46093 -1.506353,1.6956 -0.914811,0.34227 -1.78736,0.34665 -2.588878,0.013 -1.028734,-0.42826 -1.644514,-1.32772 -2.010223,-2.93629 -0.199713,-0.87843 -0.215842,-0.90978 -0.46788,-0.90923 -0.188458,3.9e-4 -1.242965,0.13222 -2.538172,0.31724 -0.240463,0.0343 -0.467509,0.0812 -0.504548,0.10408 -0.186067,0.115 0.07701,1.832 0.464046,3.02868 0.5935,1.83503 1.710249,3.25831 3.049275,3.88624 1.227531,0.57565 2.522537,0.76166 4.199146,0.60316 z m 18.740921,-0.13375 c 0.616558,-0.20496 1.264144,-0.62241 1.787137,-1.15202 0.261981,-0.26529 0.484685,-0.47209 0.4949,-0.45955 0.01021,0.0125 0.05341,0.18393 0.09599,0.38086 0.04258,0.19694 0.104998,0.48454 0.138702,0.63911 0.03371,0.15457 0.07818,0.30837 0.09883,0.34179 0.02161,0.035 0.727304,0.0608 1.663323,0.0608 1.314443,0 1.632315,-0.017 1.659913,-0.089 0.01878,-0.0489 -0.02681,-0.26132 -0.101294,-0.47199 -0.128742,-0.36412 -0.265777,-0.87594 -0.407597,-1.52235 -0.03631,-0.16547 -0.08626,-2.40357 -0.114783,-5.14313 -0.02969,-2.85135 -0.08022,-5.07823 -0.122609,-5.40356 -0.170668,-1.30986 -0.571787,-2.04547 -1.505442,-2.7608 -0.794713,-0.60889 -1.386649,-0.76416 -3.062173,-0.80328 -1.008342,-0.0235 -1.391525,-0.007 -1.849492,0.0786 -1.652571,0.30967 -2.74012,1.34813 -3.381066,3.22848 -0.128784,0.37782 -0.241841,0.83149 -0.251235,1.00817 l -0.01708,0.32123 0.260412,0.0592 c 0.143227,0.0326 0.784892,0.1882 1.425924,0.34587 0.641032,0.15766 1.201289,0.27293 1.245012,0.25616 0.04372,-0.0168 0.09812,-0.12806 0.120864,-0.24729 0.0547,-0.28667 0.332676,-0.87733 0.542093,-1.1519 0.09475,-0.12422 0.326596,-0.29322 0.532771,-0.38837 0.669344,-0.30887 1.819682,-0.1864 2.256002,0.24018 0.281558,0.27528 0.485291,0.91743 0.485291,1.52962 0,0.47439 -0.0072,0.49791 -0.179033,0.58295 -0.393691,0.19487 -1.534186,0.57551 -2.475549,0.82622 -1.819194,0.48449 -2.656581,0.86897 -3.269793,1.50129 -0.623475,0.64291 -0.973948,1.37959 -1.237013,2.60015 -0.08847,0.4105 -0.05428,1.77841 0.05897,2.35915 0.304206,1.55995 1.384633,2.91547 2.592779,3.25296 0.756745,0.21139 1.846127,0.20295 2.515249,-0.0195 z m -0.841222,-3.11128 c -0.832069,-0.37794 -1.282732,-1.74211 -0.879015,-2.66084 0.27704,-0.63043 0.704083,-0.89109 2.194669,-1.33955 0.542575,-0.16324 1.093164,-0.34137 1.223539,-0.39584 0.192106,-0.0803 0.243258,-0.0828 0.269852,-0.0135 0.01805,0.047 0.02238,0.56609 0.0096,1.15345 -0.03372,1.55268 -0.220022,2.11873 -0.913025,2.77415 -0.580191,0.54871 -1.337333,0.74028 -1.905643,0.48215 z m 22.138661,3.24628 c 1.404266,-0.1303 2.270754,-0.44582 3.230334,-1.17629 0.667475,-0.5081 1.152174,-1.10854 1.539283,-1.90686 0.277918,-0.57312 0.409335,-0.93142 0.672455,-1.83341 0.189847,-0.65081 0.223349,-2.63221 0.05973,-3.53251 -0.230517,-1.26837 -0.755091,-2.45724 -1.406343,-3.18726 -0.833605,-0.93442 -2.09844,-1.64718 -4.070196,-2.29361 -2.637551,-0.86471 -3.479405,-1.37628 -3.722421,-2.262 -0.141638,-0.51623 -0.139816,-0.63034 0.01741,-1.08733 0.21676,-0.63003 0.574508,-0.95496 1.401134,-1.27259 0.57652,-0.22153 1.523209,-0.22162 2.14258,-1.9e-4 0.87225,0.31181 1.404031,1.03469 1.625173,2.20917 0.05695,0.30243 0.145167,0.59151 0.196038,0.64238 0.07911,0.0791 0.321961,0.0814 1.677575,0.0158 0.871788,-0.0422 1.62169,-0.0887 1.666449,-0.10325 0.14333,-0.0467 0.06642,-1.50206 -0.109673,-2.07534 -0.034,-0.11072 -0.123911,-0.40637 -0.199782,-0.65702 -0.513389,-1.6959 -1.629619,-2.96701 -3.149736,-3.58675 -0.73431,-0.29939 -1.489733,-0.4171 -2.676769,-0.4171 -1.537923,0 -2.469365,0.21375 -3.421575,0.78519 -0.481821,0.28916 -1.177889,0.93674 -1.48205,1.37882 -1.063934,1.54638 -1.432039,3.65419 -0.992092,5.6809 0.2509,1.15584 0.985978,2.48151 1.767495,3.18757 0.724961,0.65495 1.721805,1.164 3.44464,1.75904 2.375127,0.82032 2.930964,1.07744 3.361119,1.55484 0.39181,0.43483 0.505675,0.84546 0.465545,1.67886 -0.0263,0.54609 -0.05977,0.69591 -0.235002,1.05186 -0.406536,0.82579 -0.931794,1.25193 -1.828021,1.48307 -1.131875,0.29192 -2.175079,0.0531 -2.963158,-0.67847 -0.603284,-0.55999 -0.970686,-1.33325 -1.242491,-2.61502 -0.06074,-0.28645 -0.12115,-0.55745 -0.134236,-0.6022 -0.02878,-0.0985 -0.352859,-0.10259 -0.971871,-0.0124 -0.250647,0.0365 -0.878338,0.12311 -1.394871,0.19243 -0.516534,0.0693 -0.967243,0.15413 -1.001578,0.18847 -0.116697,0.11669 0.170036,1.90119 0.450083,2.80111 0.429355,1.37973 1.018296,2.39147 1.869453,3.21153 0.43302,0.4172 0.65064,0.56705 1.244829,0.85721 1.225115,0.59825 2.451187,0.78093 4.170532,0.62139 z m 30.838175,-0.0947 c 3.15836,-0.55219 5.02286,-3.42583 4.79532,-7.39073 -0.0699,-1.21801 -0.26525,-2.04495 -0.68138,-2.88436 -0.64795,-1.30702 -1.50427,-2.12265 -2.92142,-2.78261 -0.89631,-0.4174 -1.00751,-0.46153 -2.04628,-0.81201 -2.44489,-0.8249 -3.03145,-1.13828 -3.46612,-1.85183 -0.20089,-0.32978 -0.21665,-0.39616 -0.21638,-0.91144 0,-0.48431 0.0225,-0.59342 0.17322,-0.84872 0.0951,-0.16113 0.25612,-0.37076 0.35778,-0.46585 0.87201,-0.81558 2.72958,-0.90454 3.73158,-0.1787 0.48352,0.35026 0.83834,1.06384 1.00418,2.01946 0.0497,0.28671 0.1073,0.53813 0.12789,0.55872 0.0412,0.0411 3.36417,-0.1081 3.4428,-0.15464 0.10376,-0.0614 0.0351,-0.96899 -0.14201,-1.87664 -0.36677,-1.87979 -1.46164,-3.49427 -2.83646,-4.18262 -1.10472,-0.55312 -1.90465,-0.69974 -3.55124,-0.65093 -1.34721,0.0399 -1.86719,0.15467 -2.7831,0.61409 -1.33361,0.66895 -2.24193,1.88686 -2.75843,3.69863 -0.13237,0.46435 -0.14841,0.66202 -0.1479,1.82289 6.5e-4,1.20462 0.0132,1.34609 0.16901,1.89051 0.39689,1.38646 1.12923,2.53384 2.07309,3.24796 0.74642,0.56474 1.82702,1.09188 3.08011,1.50255 1.91564,0.6278 2.89942,1.06374 3.29642,1.46073 0.43067,0.43067 0.55154,0.77308 0.55283,1.56604 9.8e-4,0.60745 -0.0197,0.73327 -0.186,1.12967 -0.22764,0.54268 -0.76892,1.15349 -1.22865,1.38645 -0.90016,0.45615 -2.19347,0.44524 -3.05893,-0.0258 -0.9284,-0.5053 -1.56737,-1.63566 -1.83095,-3.239 -0.0731,-0.44463 -0.0799,-0.45621 -0.27923,-0.47571 -0.1935,-0.0189 -1.75171,0.16472 -2.70653,0.31899 -0.52987,0.0856 -0.61826,0.18963 -0.51296,0.60374 0.0376,0.14801 0.0861,0.44489 0.10769,0.65973 0.13202,1.31316 0.80802,3.11349 1.53198,4.07993 0.31599,0.42183 1.25758,1.35617 1.3667,1.35617 0.0298,0 0.19562,0.0879 0.3685,0.1954 0.42395,0.26354 1.32001,0.56062 1.9472,0.64557 0.2827,0.0383 0.60189,0.0822 0.70931,0.0975 0.35997,0.0513 1.97106,-0.0274 2.51836,-0.12312 z M 17.374407,140.02067 c 0.04173,-0.078 0.143154,-0.40756 0.225384,-0.73241 0.08223,-0.32485 0.210247,-0.81768 0.284482,-1.09519 0.07423,-0.2775 0.193566,-0.72427 0.265179,-0.99282 0.07161,-0.26855 0.188799,-0.70799 0.260412,-0.97654 0.07161,-0.26855 0.188799,-0.708 0.260412,-0.97655 0.07161,-0.26855 0.188799,-0.70799 0.260413,-0.97654 0.07161,-0.26855 0.188798,-0.708 0.260412,-0.97655 0.07161,-0.26855 0.191123,-0.71532 0.265576,-0.99282 0.07445,-0.2775 0.192477,-0.72427 0.262274,-0.99282 0.0698,-0.26855 0.183801,-0.70088 0.253341,-0.96072 0.06954,-0.25985 0.185029,-0.69218 0.256643,-0.96073 0.277085,-1.03907 0.388791,-1.44866 0.523526,-1.91963 0.07683,-0.26855 0.168867,-0.60546 0.204534,-0.74868 0.03567,-0.14323 0.531821,-2.01008 1.102567,-4.14855 0.570746,-2.13847 1.03772,-3.96217 1.03772,-4.05266 v -0.16453 l -1.774057,9.9e-4 c -0.975732,5.2e-4 -1.807225,0.0225 -1.847763,0.0488 -0.04054,0.0263 -0.518364,1.83491 -1.061838,4.01912 -0.543473,2.1842 -1.178514,4.73299 -1.411201,5.66396 -0.232687,0.93097 -0.449611,1.80986 -0.482054,1.95309 -0.0579,0.2556 -0.213754,0.88703 -0.457986,1.85544 -0.06773,0.26855 -0.179232,0.72264 -0.247785,1.00909 -0.06855,0.28646 -0.153661,0.59407 -0.189128,0.68359 -0.06167,0.15565 -0.06771,0.14996 -0.138436,-0.13021 -0.04067,-0.16113 -0.102463,-0.3955 -0.137311,-0.52083 -0.134074,-0.48216 -0.271124,-1.02578 -0.361086,-1.43226 -0.05151,-0.23275 -0.111767,-0.46712 -0.133904,-0.52083 -0.02214,-0.0537 -0.09314,-0.31737 -0.157796,-0.58592 -0.164267,-0.68234 -0.354876,-1.43908 -0.516546,-2.05075 -0.146555,-0.55448 -0.302756,-1.17285 -0.509797,-2.01819 -0.07016,-0.28646 -0.368215,-1.45831 -0.662349,-2.60412 -0.294134,-1.14582 -0.711403,-2.78641 -0.927265,-3.64577 -0.215862,-0.85936 -0.421816,-1.5991 -0.457676,-1.64385 -0.101126,-0.12622 -3.6854938,-0.11687 -3.7340788,0.01 -0.01923,0.0501 0.214366,1.02421 0.5191046,2.16467 0.304739,1.14046 0.705645,2.65949 0.890904,3.37562 0.36727,1.41972 0.528652,2.0357 0.7163712,2.73433 0.06735,0.25064 0.184533,0.69009 0.260412,0.97654 0.07588,0.28645 0.193064,0.7259 0.260412,0.97655 0.06735,0.25064 0.179557,0.67544 0.249355,0.94399 0.0698,0.26855 0.18782,0.71532 0.262274,0.99282 0.07445,0.2775 0.191892,0.71695 0.260973,0.97655 0.06908,0.2596 0.205083,0.76496 0.302227,1.12302 0.09714,0.35807 0.213911,0.81216 0.259483,1.0091 0.04557,0.19694 0.143941,0.58511 0.218597,0.86262 0.07466,0.2775 0.194332,0.72427 0.265945,0.99282 0.07161,0.26855 0.190944,0.71532 0.26518,0.99282 0.316807,1.18427 0.695376,2.62792 0.781041,2.97846 0.035,0.14323 0.09579,0.34098 0.135086,0.43945 l 0.07145,0.17903 h 1.845248 c 1.828805,0 1.845923,-0.001 1.921122,-0.14177 z m 83.260573,-3.92717 0.0326,-4.03639 1.80247,-0.0408 c 2.69274,-0.061 3.40239,-0.15746 4.27003,-0.5807 1.09906,-0.53612 2.05983,-1.71824 2.59029,-3.18703 0.47617,-1.31851 0.58906,-3.6311 0.26034,-5.33324 -0.36942,-1.91284 -1.42396,-3.47803 -2.78233,-4.1296 -0.77755,-0.37298 -1.11841,-0.39746 -5.55487,-0.39893 l -4.036384,-10e-4 -0.0167,10.8071 c -0.009,5.94391 -0.003,10.84422 0.0147,10.88958 0.0244,0.0643 0.40212,0.0786 1.709389,0.0651 l 1.678025,-0.0174 z m 0.0337,-7.98119 c -0.0193,-0.0504 -0.0275,-1.39527 -0.0181,-2.98867 l 0.017,-2.89708 1.66013,8.6e-4 c 1.55211,8e-4 1.69189,0.0107 2.1484,0.15207 0.42018,0.13013 0.53848,0.20264 0.8483,0.51997 0.62784,0.64304 0.88206,1.3971 0.82665,2.45204 -0.0523,0.99592 -0.36655,1.705 -0.97748,2.20561 -0.53371,0.43733 -1.11965,0.55501 -3.02303,0.60715 -1.2096,0.0331 -1.45243,0.0246 -1.4818,-0.052 z m 38.99555,10.12959 v -1.88799 l -4.45955,-0.0326 -4.45956,-0.0325 v -2.83198 -2.83198 l 3.96775,-0.0168 c 3.07496,-0.013 3.97932,-0.035 4.01912,-0.0976 0.0283,-0.0445 0.0514,-0.87187 0.0514,-1.83865 0,-0.96678 -0.0231,-1.79418 -0.0514,-1.83865 -0.0398,-0.0627 -0.94416,-0.0847 -4.01912,-0.0977 l -3.96775,-0.0168 v -2.24606 -2.24605 l 4.2968,-0.0326 4.2968,-0.0326 v -1.88798 -1.88799 h -6.08714 -6.08713 l -0.0167,10.8071 c -0.009,5.94391 -0.003,10.84387 0.0144,10.88881 0.0247,0.0649 1.31255,0.0783 6.26661,0.0651 l 6.23553,-0.0166 z M 49.607397,116.48122 c 0.05416,-0.0627 0.25259,-0.42155 0.440964,-0.79752 0.188374,-0.37597 0.364247,-0.71287 0.390831,-0.74868 0.02658,-0.0358 0.334585,-0.62173 0.684447,-1.30206 0.349863,-0.68033 0.664831,-1.27321 0.69993,-1.31751 0.0351,-0.0443 0.04681,-0.12487 0.02603,-0.17903 -0.03198,-0.0833 -0.236786,-0.0985 -1.331805,-0.0985 -1.15101,0 -1.305032,0.0126 -1.393717,0.11393 -0.115622,0.13213 -0.531766,0.82088 -0.767224,1.26982 -0.344492,0.65684 -0.331468,0.65606 -0.664921,0.04 -0.547831,-1.01207 -0.653324,-1.1956 -0.752915,-1.30986 -0.08849,-0.10151 -0.243611,-0.11393 -1.423828,-0.11393 -1.183113,0 -1.324522,0.0114 -1.324522,0.10656 0,0.0586 0.179923,0.44678 0.399829,0.86261 0.377185,0.71325 0.529451,0.99824 1.056144,1.97675 0.120459,0.22379 0.316037,0.59732 0.434618,0.83006 0.118582,0.23274 0.271039,0.50373 0.338794,0.6022 l 0.123191,0.17904 h 1.482846 c 1.331321,0 1.492908,-0.0116 1.581313,-0.11393 z m 70.086183,0.0325 c 0.0978,-0.12343 0.59475,-1.0507 1.57892,-2.94591 0.26033,-0.5013 0.53083,-1.0074 0.60113,-1.12468 0.23603,-0.39378 0.20074,-0.40525 -1.2474,-0.40525 -0.95936,0 -1.3205,0.0214 -1.37367,0.0814 -0.0397,0.0448 -0.30906,0.48619 -0.59864,0.98095 l -0.52652,0.89958 -0.11473,-0.18344 c -0.0631,-0.10089 -0.30383,-0.535 -0.53496,-0.96468 l -0.42022,-0.78123 h -1.35827 c -1.19479,0 -1.36068,0.0126 -1.37837,0.10443 -0.0111,0.0574 0.16676,0.45295 0.39517,0.87889 0.2284,0.42595 0.56406,1.05277 0.7459,1.39294 0.18185,0.34016 0.45039,0.83493 0.59676,1.09949 0.14637,0.26456 0.26614,0.49218 0.26614,0.50584 0,0.0137 0.0736,0.14143 0.16357,0.28395 l 0.16358,0.25912 h 1.48858 c 1.11308,0 1.50483,-0.0205 1.55303,-0.0814 z"
       style="fill:#44b1cc;stroke-width:0.06510302" />
  </g>
</svg>
