<?xml version="1.0" encoding="UTF-8" standalone="no"?>
<svg
		xmlns:dc="http://purl.org/dc/elements/1.1/"
		xmlns:cc="http://creativecommons.org/ns#"
		xmlns:rdf="http://www.w3.org/1999/02/22-rdf-syntax-ns#"
		xmlns="http://www.w3.org/2000/svg"
		id="svg1260"
		version="1.1"
		viewBox="0 0 171.02666 160.95616"
		height="160.95616mm"
		width="171.02666mm">
	<defs
			id="defs1254"/>
	<metadata
			id="metadata1257">
		<rdf:RDF>
			<cc:Work
					rdf:about="">
				<dc:format>image/svg+xml</dc:format>
				<dc:type
						rdf:resource="http://purl.org/dc/dcmitype/StillImage"/>
				<dc:title></dc:title>
			</cc:Work>
		</rdf:RDF>
	</metadata>
	<g
			transform="translate(-76.260477,-31.313587)"
			id="layer1">
		<g
				id="g1072"
				transform="matrix(0.26458333,0,0,0.26458333,76.260477,30.741623)">
			<g
					id="g1070">
				<g
						id="g1048">
					<path
							style="fill:#606060"
							id="path1046"
							d="m 279.5,96.7 c 0,-47.2 24.4,-67.3 63.4,-91.6 17.7,-11 14.4,10.2 14.3,41.7 0,33 11,32.7 11,32.7 z"/>
				</g>
				<g
						id="g1052">
					<path
							style="fill:#606060"
							id="path1050"
							d="m 214.9,129.3 c -3.7,-1.5 -19,-25.6 -10.6,-43.5 11.7,-25.1 36.6,-50.2 36.6,-50.2 0,0 9.7,17.7 16.5,45.4 6.8,27.7 -38,53.3 -38,53.3 z"/>
				</g>
				<g
						id="g1056">
					<path
							style="fill:#606060"
							id="path1054"
							d="m 171.7,233.7 c -25.5,-8 -40.8,-30.4 -34.1,-60.7 6.7,-30.3 6.2,-36.2 6.2,-36.2 0,0 14,10.9 24.1,13.1 10.1,2.2 39.8,13.1 39.8,13.1 z"/>
				</g>
				<g
						id="g1060">
					<path
							style="fill:#606060"
							id="path1058"
							d="m 170.2,361.4 c -22.9,1.9 -42,-26.7 -43.9,-49.9 -1.9,-23.2 -3.5,-22.3 -3.5,-22.3 0,0 13.3,3.1 23.9,2.2 10.6,-0.9 34.3,-1.8 34.3,-1.8 z"/>
				</g>
				<g
						id="g1064">
					<path
							style="fill:#606060"
							id="path1062"
							d="m 129.1,481.9 c -19.5,-19.1 -10.7,-69.6 -10.7,-69.6 0,0 12.2,8.6 22.7,10 10.5,1.4 30.2,-0.2 30.2,-0.2 l -26.9,67 z"/>
				</g>
				<g
						id="g1068">
					<path
							style="fill:#606060"
							id="path1066"
							d="m 30.7,518.7 c 0,0 -0.9,-9.5 2.4,-20.6 3.3,-11.1 12.4,-19 12.4,-19 0,0 9.7,14.8 20.2,22.5 10.5,7.7 31,11.1 31,11.1 l -11.2,27.9 -35.3,-3.7 z"/>
				</g>
			</g>
		</g>
		<path
				id="path1074"
				d="m 172.91277,41.43079 c 24.65917,0 30.29479,6.535208 37.94125,12.726458 5.37104,4.365626 9.07521,15.504584 8.94292,19.711459 -0.13229,4.7625 -2.51354,8.202084 -4.23334,9.921875 -1.71979,1.719792 -21.29895,13.758334 -21.29895,33.998958 0,20.24063 21.82812,24.47396 21.82812,24.47396 0,0 -0.66146,3.73063 -4.89479,7.14375 -0.87313,0.71438 -2.16958,2.46063 -1.98438,4.78896 0.15875,1.95792 1.66688,4.33917 1.7198,6.85271 0.10583,5.66208 0.42333,5.13292 0.42333,7.64646 0,2.51354 -0.0265,-1.29646 -0.0265,5.18583 0,6.48229 -1.5875,10.05417 -1.5875,12.30313 0,2.24895 0.92604,3.41312 -0.39687,4.70958 -2.56646,2.46062 -10.45105,-3.04271 -10.84792,-2.64583 -2.48708,2.48708 -6.93208,4.02166 -8.28146,4.02166 -6.24417,0 -6.19125,-6.40291 -9.97479,-6.40291 -7.80521,0 -16.40417,0.1852 -20.08188,0.1852 -5.42396,0 -5.42396,6.21771 -12.56771,6.21771 -7.14375,0 -7.01145,-6.05896 -10.9802,-5.95312 -3.06917,0.0794 -2.51355,5.95312 -7.54063,5.95312 -5.02708,0 -6.87917,-6.74687 -8.86354,-6.74687 -1.98438,0 -3.57188,2.51354 -19.18229,2.51354 -15.610379,0 -24.764963,-17.30375 -24.764963,-27.35792 0,-1.34937 0.529167,-10.13354 2.301875,-10.13354 3.307292,0 -1.957916,16.56292 16.007292,16.56292 17.965206,0 23.680206,-23.01875 23.680206,-35.29542 0,-12.27667 -1.05833,-39.131878 -1.05833,-45.746461 0,-6.614583 11.80042,-44.635209 55.72125,-44.635209 z"
				style="fill:#3d3d3d;stroke-width:0.26458332"/>
		<g
				id="g1080"
				transform="matrix(0.26458333,0,0,0.26458333,76.260477,30.741623)">
			<circle
					style="fill:#f4f4f4"
					id="circle1076"
					r="29.799999"
					cy="144.2"
					cx="422.39999"/>
			<circle
					style="fill:#f4f4f4"
					id="circle1078"
					r="28.299999"
					cy="146.10001"
					cx="494.79999"/>
		</g>
		<path
				id="path1082"
				d="m 212.62673,83.578916 c 0,0 -73.36896,-12.065 -73.36896,34.131254 0,15.18708 7.54062,24.34167 43.39167,24.34167 12.17083,0 28.575,0.1852 28.575,0.1852 0,0 -19.10292,-2.64583 -19.10292,-24.60625 0,-21.960416 20.50521,-34.051874 20.50521,-34.051874 z"
				style="fill:#e5785c;stroke-width:0.26458332"/>
		<path
				id="path1084"
				d="m 143.46464,101.04142 c -2.64583,4.47145 -4.20687,9.94833 -4.20687,16.66875 0,15.18708 7.54062,24.34167 43.39167,24.34167 12.17083,0 28.575,0.1852 28.575,0.1852 0,0 -0.0265,0 -0.0794,0 -17.09206,-0.26458 -54.23956,-5.13291 -67.6804,-41.19562 z"
				style="fill:#be6245;stroke-width:0.26458332"/>
		<g
				id="g1120"
				transform="matrix(0.26458333,0,0,0.26458333,76.260477,30.741623)">
			<path
					style="fill:#d6d6d6"
					id="path1112"
					d="m 632.1,286.3 -15,-20.6 -75.6,46.9 c 0,0 2,2 -5.6,2.3 C 528.3,315.2 407,268.5 407,268.5 L 287.8,463.2 298.3,481.3 426,380 l 105.8,-14.5 63,-29.8 z"/>
			<polygon
					style="fill:#7f7f7f"
					id="polygon1114"
					points="286.7,496.7 416.7,296.5 523.1,335.7 411.1,528.8 "/>
			<polygon
					style="fill:#7f7f7f"
					id="polygon1116"
					points="442.1,523.7 545.5,335.7 646.4,277.7 516,503.8 "/>
			<path
					style="fill:#474747"
					id="path1118"
					d="m 545.5,335.7 c 0,0 -1,1.3 -11.7,1.3 -10.7,0 -10.7,-1.3 -10.7,-1.3 L 411,528.7 c 0,0 9,0.4 17.9,-0.8 9.7,-1.3 13.2,-4.3 13.2,-4.3"/>
		</g>
		<path
				id="path1122"
				d="m 154.65652,159.24975 -9.02229,-8.75771 c -1.24354,-1.21708 -1.27,-3.22791 -0.0529,-4.49791 v 0 c 1.21708,-1.24354 3.22791,-1.27 4.49791,-0.0529 l 9.0223,8.75771 c 1.24354,1.21708 1.27,3.22792 0.0529,4.49792 v 0 c -1.24354,1.24354 -3.25438,1.27 -4.49792,0.0529 z"
				style="fill:#606060;stroke-width:0.26458332"/>
		<path
				id="path1124"
				d="m 168.07089,157.74163 -8.62541,3.09562 c -2.14313,0.76729 -4.55084,-0.34396 -5.31813,-2.51354 v 0 c -0.76729,-2.14312 0.34396,-4.55083 2.51354,-5.31812 l 8.62542,-3.09563 c 2.14313,-0.76729 4.55083,0.34396 5.31813,2.51354 v 0 c 0.76729,2.16959 -0.37042,4.55084 -2.51355,5.31813 z"
				style="fill:#606060;stroke-width:0.26458332"/>
	</g>
</svg>
